ChironHeiHKVF-weight0-Master.ufo
<glyph name="cid42997" format="2">
  <advance height="1000" width="270"/>
  <unicode hex="0021"/>
  <outline>
    <contour>
      <point x="122" y="176" type="line"/>
      <point x="148" y="176" type="line"/>
      <point x="153" y="652" type="line"/>
      <point x="153" y="719" type="line"/>
      <point x="118" y="719" type="line"/>
      <point x="118" y="652" type="line"/>
    </contour>
    <contour>
      <point x="135" y="-24" type="curve" smooth="yes"/>
      <point x="155" y="-24"/>
      <point x="174" y="-9"/>
      <point x="174" y="17" type="curve" smooth="yes"/>
      <point x="174" y="46"/>
      <point x="155" y="61"/>
      <point x="135" y="61" type="curve" smooth="yes"/>
      <point x="116" y="61"/>
      <point x="96" y="46"/>
      <point x="96" y="17" type="curve" smooth="yes"/>
      <point x="96" y="-9"/>
      <point x="116" y="-24"/>
    </contour>
  </outline>
</glyph>
<glyph name="cid43007" format="2">
  <advance height="1000" width="366"/>
  <unicode hex="0022"/>
  <outline>
    <contour>
      <point x="98" y="527" type="line"/>
      <point x="126" y="527" type="line"/>
      <point x="133" y="680" type="line"/>
      <point x="133" y="745" type="line"/>
      <point x="92" y="745" type="line"/>
      <point x="92" y="680" type="line"/>
    </contour>
    <contour>
      <point x="238" y="527" type="line"/>
      <point x="266" y="527" type="line"/>
      <point x="273" y="680" type="line"/>
      <point x="273" y="745" type="line"/>
      <point x="231" y="745" type="line"/>
      <point x="231" y="680" type="line"/>
    </contour>
  </outline>
</glyph>
<glyph name="cid43323" format="2">
  <advance height="1000" width="514"/>
  <unicode hex="0023"/>
  <outline>
    <contour>
      <point x="102" y="-11" type="line"/>
      <point x="133" y="-11" type="line"/>
      <point x="161" y="227" type="line"/>
      <point x="331" y="227" type="line"/>
      <point x="303" y="-11" type="line"/>
      <point x="334" y="-11" type="line"/>
      <point x="362" y="227" type="line"/>
      <point x="460" y="227" type="line"/>
      <point x="460" y="257" type="line"/>
      <point x="366" y="257" type="line"/>
      <point x="390" y="451" type="line"/>
      <point x="482" y="451" type="line"/>
      <point x="482" y="482" type="line"/>
      <point x="392" y="482" type="line"/>
      <point x="421" y="698" type="line"/>
      <point x="390" y="698" type="line"/>
      <point x="362" y="482" type="line"/>
      <point x="192" y="482" type="line"/>
      <point x="220" y="698" type="line"/>
      <point x="190" y="698" type="line"/>
      <point x="161" y="482" type="line"/>
      <point x="61" y="482" type="line"/>
      <point x="61" y="451" type="line"/>
      <point x="159" y="451" type="line"/>
      <point x="135" y="257" type="line"/>
      <point x="39" y="257" type="line"/>
      <point x="39" y="227" type="line"/>
      <point x="131" y="227" type="line"/>
    </contour>
    <contour>
      <point x="166" y="257" type="line"/>
      <point x="190" y="451" type="line"/>
      <point x="360" y="451" type="line"/>
      <point x="336" y="257" type="line"/>
    </contour>
  </outline>
</glyph>
<glyph name="cid44625" format="2">
  <advance height="1000" width="514"/>
  <unicode hex="0024"/>
  <outline>
    <contour>
      <point x="266" y="-24" type="curve" smooth="yes"/>
      <point x="366" y="-24"/>
      <point x="449" y="46"/>
      <point x="449" y="161" type="curve" smooth="yes"/>
      <point x="449" y="373"/>
      <point x="131" y="362"/>
      <point x="131" y="536" type="curve" smooth="yes"/>
      <point x="131" y="610"/>
      <point x="185" y="669"/>
      <point x="264" y="669" type="curve" smooth="yes"/>
      <point x="334" y="669"/>
      <point x="375" y="645"/>
      <point x="408" y="604" type="curve"/>
      <point x="429" y="621" type="line"/>
      <point x="395" y="667"/>
      <point x="344" y="700"/>
      <point x="266" y="700" type="curve" smooth="yes"/>
      <point x="170" y="700"/>
      <point x="96" y="630"/>
      <point x="96" y="534" type="curve" smooth="yes"/>
      <point x="96" y="338"/>
      <point x="414" y="349"/>
      <point x="414" y="159" type="curve" smooth="yes"/>
      <point x="414" y="70"/>
      <point x="362" y="6"/>
      <point x="266" y="6" type="curve" smooth="yes"/>
      <point x="187" y="6"/>
      <point x="126" y="41"/>
      <point x="87" y="83" type="curve"/>
      <point x="68" y="63" type="line"/>
      <point x="107" y="13"/>
      <point x="181" y="-24"/>
    </contour>
    <contour>
      <point x="249" y="-131" type="line"/>
      <point x="281" y="-131" type="line"/>
      <point x="281" y="-20" type="line"/>
      <point x="249" y="-20" type="line"/>
    </contour>
    <contour>
      <point x="249" y="680" type="line"/>
      <point x="281" y="680" type="line"/>
      <point x="281" y="807" type="line"/>
      <point x="249" y="807" type="line"/>
    </contour>
  </outline>
</glyph>
<glyph name="cid41274" format="2">
  <advance height="1000" width="613"/>
  <unicode hex="0026"/>
  <outline>
    <contour>
      <point x="244" y="-24" type="curve" smooth="yes"/>
      <point x="329" y="-24"/>
      <point x="392" y="20"/>
      <point x="447" y="81" type="curve" smooth="yes"/>
      <point x="510" y="156"/>
      <point x="556" y="255"/>
      <point x="586" y="362" type="curve"/>
      <point x="554" y="362" type="line"/>
      <point x="525" y="259"/>
      <point x="484" y="170"/>
      <point x="423" y="100" type="curve" smooth="yes"/>
      <point x="375" y="46"/>
      <point x="314" y="6"/>
      <point x="246" y="6" type="curve" smooth="yes"/>
      <point x="155" y="6"/>
      <point x="76" y="72"/>
      <point x="76" y="172" type="curve" smooth="yes"/>
      <point x="76" y="351"/>
      <point x="397" y="416"/>
      <point x="397" y="595" type="curve" smooth="yes"/>
      <point x="397" y="667"/>
      <point x="358" y="721"/>
      <point x="283" y="721" type="curve" smooth="yes"/>
      <point x="201" y="721"/>
      <point x="142" y="656"/>
      <point x="142" y="565" type="curve" smooth="yes"/>
      <point x="142" y="405"/>
      <point x="288" y="203"/>
      <point x="427" y="78" type="curve" smooth="yes"/>
      <point x="486" y="26"/>
      <point x="541" y="-7"/>
      <point x="586" y="-24" type="curve"/>
      <point x="600" y="6" type="line"/>
      <point x="554" y="24"/>
      <point x="501" y="57"/>
      <point x="447" y="105" type="curve" smooth="yes"/>
      <point x="316" y="218"/>
      <point x="174" y="416"/>
      <point x="174" y="567" type="curve" smooth="yes"/>
      <point x="174" y="634"/>
      <point x="214" y="691"/>
      <point x="281" y="691" type="curve" smooth="yes"/>
      <point x="342" y="691"/>
      <point x="364" y="641"/>
      <point x="364" y="593" type="curve" smooth="yes"/>
      <point x="364" y="427"/>
      <point x="41" y="366"/>
      <point x="41" y="170" type="curve" smooth="yes"/>
      <point x="41" y="50"/>
      <point x="135" y="-24"/>
    </contour>
  </outline>
</glyph>
<glyph name="cid43206" format="2">
  <advance height="1000" width="294"/>
  <unicode hex="0028"/>
  <outline>
    <contour>
      <point x="242" y="-201" type="curve"/>
      <point x="262" y="-188" type="line"/>
      <point x="174" y="-50"/>
      <point x="129" y="118"/>
      <point x="129" y="292" type="curve" smooth="yes"/>
      <point x="129" y="466"/>
      <point x="174" y="634"/>
      <point x="262" y="772" type="curve"/>
      <point x="242" y="785" type="line"/>
      <point x="153" y="641"/>
      <point x="98" y="484"/>
      <point x="98" y="292" type="curve" smooth="yes"/>
      <point x="98" y="100"/>
      <point x="153" y="-57"/>
    </contour>
  </outline>
</glyph>
<glyph name="cid43208" format="2">
  <advance height="1000" width="294"/>
  <unicode hex="0029"/>
  <outline>
    <contour>
      <point x="52" y="-201" type="line"/>
      <point x="142" y="-57"/>
      <point x="196" y="100"/>
      <point x="196" y="292" type="curve" smooth="yes"/>
      <point x="196" y="484"/>
      <point x="142" y="641"/>
      <point x="52" y="785" type="curve"/>
      <point x="33" y="772" type="line"/>
      <point x="120" y="634"/>
      <point x="166" y="466"/>
      <point x="166" y="292" type="curve" smooth="yes"/>
      <point x="166" y="118"/>
      <point x="120" y="-50"/>
      <point x="33" y="-188" type="curve"/>
    </contour>
  </outline>
</glyph>
<glyph name="cid43227" format="2">
  <advance height="1000" width="421"/>
  <unicode hex="002A"/>
  <outline>
    <contour>
      <point x="142" y="510" type="line"/>
      <point x="211" y="599" type="line"/>
      <point x="279" y="510" type="line"/>
      <point x="303" y="527" type="line"/>
      <point x="244" y="621" type="line"/>
      <point x="340" y="658" type="line"/>
      <point x="331" y="684" type="line"/>
      <point x="231" y="658" type="line"/>
      <point x="225" y="765" type="line"/>
      <point x="196" y="765" type="line"/>
      <point x="190" y="656" type="line"/>
      <point x="89" y="684" type="line"/>
      <point x="81" y="658" type="line"/>
      <point x="177" y="621" type="line"/>
      <point x="118" y="527" type="line"/>
    </contour>
  </outline>
</glyph>
<glyph name="cid42987" format="2">
  <advance height="1000" width="227"/>
  <unicode hex="002C"/>
  <outline>
    <contour>
      <point x="65" y="-174" type="line"/>
      <point x="122" y="-140"/>
      <point x="166" y="-81"/>
      <point x="166" y="-7" type="curve" smooth="yes"/>
      <point x="166" y="35"/>
      <point x="146" y="61"/>
      <point x="118" y="61" type="curve" smooth="yes"/>
      <point x="98" y="61"/>
      <point x="78" y="48"/>
      <point x="78" y="22" type="curve" smooth="yes"/>
      <point x="78" y="-4"/>
      <point x="96" y="-18"/>
      <point x="118" y="-18" type="curve" smooth="yes"/>
      <point x="131" y="-18"/>
      <point x="144" y="-15"/>
      <point x="153" y="0" type="curve"/>
      <point x="116" y="46" type="line"/>
      <point x="131" y="-13" type="line"/>
      <point x="131" y="-76"/>
      <point x="98" y="-122"/>
      <point x="52" y="-148" type="curve"/>
    </contour>
  </outline>
</glyph>
<glyph name="cid43220" format="2">
  <advance height="1000" width="392"/>
  <unicode hex="002F"/>
  <outline>
    <contour>
      <point x="9" y="-185" type="line"/>
      <point x="41" y="-185" type="line"/>
      <point x="390" y="763" type="line"/>
      <point x="358" y="763" type="line"/>
    </contour>
  </outline>
</glyph>
<glyph name="cid42856" format="2">
  <advance height="1000" width="514"/>
  <unicode hex="0030"/>
  <outline>
    <contour>
      <point x="257" y="-24" type="curve" smooth="yes"/>
      <point x="388" y="-24"/>
      <point x="460" y="109"/>
      <point x="460" y="340" type="curve" smooth="yes"/>
      <point x="460" y="571"/>
      <point x="388" y="700"/>
      <point x="257" y="700" type="curve" smooth="yes"/>
      <point x="126" y="700"/>
      <point x="55" y="571"/>
      <point x="55" y="340" type="curve" smooth="yes"/>
      <point x="55" y="109"/>
      <point x="126" y="-24"/>
    </contour>
    <contour>
      <point x="257" y="6" type="curve" smooth="yes"/>
      <point x="155" y="6"/>
      <point x="89" y="124"/>
      <point x="89" y="340" type="curve" smooth="yes"/>
      <point x="89" y="556"/>
      <point x="155" y="669"/>
      <point x="257" y="669" type="curve" smooth="yes"/>
      <point x="360" y="669"/>
      <point x="425" y="556"/>
      <point x="425" y="340" type="curve" smooth="yes"/>
      <point x="425" y="124"/>
      <point x="360" y="6"/>
    </contour>
  </outline>
</glyph>
<glyph name="cid42858" format="2">
  <advance height="1000" width="514"/>
  <unicode hex="0032"/>
  <outline>
    <contour>
      <point x="46" y="-11" type="line"/>
      <point x="464" y="-11" type="line"/>
      <point x="464" y="20" type="line"/>
      <point x="211" y="20" type="line" smooth="yes"/>
      <point x="172" y="20"/>
      <point x="133" y="17"/>
      <point x="94" y="15" type="curve"/>
      <point x="301" y="231"/>
      <point x="429" y="366"/>
      <point x="429" y="508" type="curve" smooth="yes"/>
      <point x="429" y="623"/>
      <point x="360" y="700"/>
      <point x="238" y="700" type="curve" smooth="yes"/>
      <point x="155" y="700"/>
      <point x="94" y="654"/>
      <point x="44" y="597" type="curve"/>
      <point x="68" y="575" type="line"/>
      <point x="111" y="630"/>
      <point x="170" y="669"/>
      <point x="235" y="669" type="curve" smooth="yes"/>
      <point x="347" y="669"/>
      <point x="395" y="597"/>
      <point x="395" y="508" type="curve" smooth="yes"/>
      <point x="395" y="384"/>
      <point x="281" y="251"/>
      <point x="46" y="9" type="curve"/>
    </contour>
  </outline>
</glyph>
<glyph name="cid42865" format="2">
  <advance height="1000" width="514"/>
  <unicode hex="0033"/>
  <outline>
    <contour>
      <point x="251" y="-24" type="curve" smooth="yes"/>
      <point x="368" y="-24"/>
      <point x="458" y="52"/>
      <point x="458" y="172" type="curve" smooth="yes"/>
      <point x="458" y="272"/>
      <point x="384" y="338"/>
      <point x="296" y="355" type="curve"/>
      <point x="296" y="360" type="line"/>
      <point x="373" y="385"/>
      <point x="432" y="440"/>
      <point x="432" y="534" type="curve" smooth="yes"/>
      <point x="432" y="639"/>
      <point x="351" y="700"/>
      <point x="249" y="700" type="curve" smooth="yes"/>
      <point x="168" y="700"/>
      <point x="109" y="660"/>
      <point x="63" y="615" type="curve"/>
      <point x="85" y="591" type="line"/>
      <point x="124" y="634"/>
      <point x="183" y="669"/>
      <point x="249" y="669" type="curve" smooth="yes"/>
      <point x="338" y="669"/>
      <point x="397" y="615"/>
      <point x="397" y="532" type="curve" smooth="yes"/>
      <point x="397" y="445"/>
      <point x="338" y="373"/>
      <point x="172" y="373" type="curve"/>
      <point x="172" y="340" type="line"/>
      <point x="349" y="340"/>
      <point x="423" y="270"/>
      <point x="423" y="170" type="curve" smooth="yes"/>
      <point x="423" y="72"/>
      <point x="351" y="6"/>
      <point x="253" y="6" type="curve" smooth="yes"/>
      <point x="153" y="6"/>
      <point x="96" y="52"/>
      <point x="55" y="98" type="curve"/>
      <point x="33" y="74" type="line"/>
      <point x="76" y="28"/>
      <point x="140" y="-24"/>
    </contour>
  </outline>
</glyph>
<glyph name="cid42867" format="2">
  <advance height="1000" width="514"/>
  <unicode hex="0034"/>
  <outline>
    <contour>
      <point x="340" y="-11" type="line"/>
      <point x="373" y="-11" type="line"/>
      <point x="373" y="687" type="line"/>
      <point x="351" y="687" type="line"/>
      <point x="17" y="220" type="line"/>
      <point x="17" y="203" type="line"/>
      <point x="480" y="203" type="line"/>
      <point x="480" y="233" type="line"/>
      <point x="63" y="233" type="line"/>
      <point x="283" y="541" type="line" smooth="yes"/>
      <point x="303" y="571"/>
      <point x="323" y="595"/>
      <point x="340" y="623" type="curve"/>
      <point x="344" y="623" type="line"/>
      <point x="342" y="593"/>
      <point x="340" y="538"/>
      <point x="340" y="508" type="curve" smooth="yes"/>
    </contour>
  </outline>
</glyph>
<glyph name="cid42869" format="2">
  <advance height="1000" width="514"/>
  <unicode hex="0036"/>
  <outline>
    <contour>
      <point x="281" y="-24" type="curve" smooth="yes"/>
      <point x="382" y="-24"/>
      <point x="467" y="67"/>
      <point x="467" y="192" type="curve" smooth="yes"/>
      <point x="467" y="331"/>
      <point x="397" y="408"/>
      <point x="275" y="408" type="curve" smooth="yes"/>
      <point x="205" y="408"/>
      <point x="140" y="366"/>
      <point x="89" y="303" type="curve"/>
      <point x="89" y="259" type="line"/>
      <point x="150" y="344"/>
      <point x="220" y="377"/>
      <point x="273" y="377" type="curve" smooth="yes"/>
      <point x="386" y="377"/>
      <point x="432" y="296"/>
      <point x="432" y="192" type="curve" smooth="yes"/>
      <point x="432" y="89"/>
      <point x="368" y="6"/>
      <point x="283" y="6" type="curve" smooth="yes"/>
      <point x="150" y="6"/>
      <point x="94" y="133"/>
      <point x="94" y="303" type="curve" smooth="yes"/>
      <point x="94" y="575"/>
      <point x="194" y="669"/>
      <point x="310" y="669" type="curve" smooth="yes"/>
      <point x="355" y="669"/>
      <point x="398" y="650"/>
      <point x="429" y="610" type="curve"/>
      <point x="451" y="634" type="line"/>
      <point x="416" y="674"/>
      <point x="373" y="700"/>
      <point x="312" y="700" type="curve" smooth="yes"/>
      <point x="179" y="700"/>
      <point x="59" y="599"/>
      <point x="59" y="303" type="curve" smooth="yes"/>
      <point x="59" y="96"/>
      <point x="142" y="-24"/>
    </contour>
  </outline>
</glyph>
<glyph name="cid42873" format="2">
  <advance height="1000" width="514"/>
  <unicode hex="0037"/>
  <outline>
    <contour>
      <point x="205" y="-11" type="curve"/>
      <point x="242" y="-11" type="line"/>
      <point x="253" y="262"/>
      <point x="299" y="442"/>
      <point x="469" y="667" type="curve"/>
      <point x="469" y="687" type="line"/>
      <point x="48" y="687" type="line"/>
      <point x="48" y="656" type="line"/>
      <point x="425" y="656" type="line"/>
      <point x="279" y="458"/>
      <point x="216" y="277"/>
    </contour>
  </outline>
</glyph>
<glyph name="cid42875" format="2">
  <advance height="1000" width="514"/>
  <unicode hex="0038"/>
  <outline>
    <contour>
      <point x="262" y="-24" type="curve" smooth="yes"/>
      <point x="386" y="-24"/>
      <point x="469" y="57"/>
      <point x="469" y="157" type="curve" smooth="yes"/>
      <point x="469" y="251"/>
      <point x="405" y="296"/>
      <point x="347" y="333" type="curve"/>
      <point x="347" y="338" type="line"/>
      <point x="386" y="371"/>
      <point x="447" y="440"/>
      <point x="447" y="519" type="curve" smooth="yes"/>
      <point x="447" y="621"/>
      <point x="379" y="700"/>
      <point x="262" y="700" type="curve" smooth="yes"/>
      <point x="164" y="700"/>
      <point x="85" y="630"/>
      <point x="85" y="532" type="curve" smooth="yes"/>
      <point x="85" y="458"/>
      <point x="135" y="405"/>
      <point x="185" y="373" type="curve"/>
      <point x="185" y="368" type="line"/>
      <point x="120" y="333"/>
      <point x="44" y="264"/>
      <point x="44" y="168" type="curve" smooth="yes"/>
      <point x="44" y="59"/>
      <point x="135" y="-24"/>
    </contour>
    <contour>
      <point x="314" y="349" type="curve"/>
      <point x="220" y="386"/>
      <point x="120" y="427"/>
      <point x="120" y="532" type="curve" smooth="yes"/>
      <point x="120" y="610"/>
      <point x="179" y="669"/>
      <point x="262" y="669" type="curve" smooth="yes"/>
      <point x="358" y="669"/>
      <point x="412" y="599"/>
      <point x="412" y="519" type="curve" smooth="yes"/>
      <point x="412" y="456"/>
      <point x="377" y="399"/>
    </contour>
    <contour>
      <point x="262" y="6" type="curve" smooth="yes"/>
      <point x="155" y="6"/>
      <point x="78" y="78"/>
      <point x="78" y="168" type="curve" smooth="yes"/>
      <point x="78" y="248"/>
      <point x="135" y="309"/>
      <point x="211" y="353" type="curve"/>
      <point x="323" y="309"/>
      <point x="434" y="270"/>
      <point x="434" y="157" type="curve" smooth="yes"/>
      <point x="434" y="74"/>
      <point x="366" y="6"/>
    </contour>
  </outline>
</glyph>
<glyph name="cid42877" format="2">
  <advance height="1000" width="514"/>
  <unicode hex="0039"/>
  <outline>
    <contour>
      <point x="203" y="-24" type="curve" smooth="yes"/>
      <point x="336" y="-24"/>
      <point x="456" y="76"/>
      <point x="456" y="373" type="curve" smooth="yes"/>
      <point x="456" y="580"/>
      <point x="373" y="700"/>
      <point x="233" y="700" type="curve" smooth="yes"/>
      <point x="133" y="700"/>
      <point x="48" y="608"/>
      <point x="48" y="484" type="curve" smooth="yes"/>
      <point x="48" y="344"/>
      <point x="118" y="268"/>
      <point x="240" y="268" type="curve" smooth="yes"/>
      <point x="310" y="268"/>
      <point x="375" y="309"/>
      <point x="425" y="373" type="curve"/>
      <point x="425" y="416" type="line"/>
      <point x="364" y="331"/>
      <point x="294" y="299"/>
      <point x="242" y="299" type="curve" smooth="yes"/>
      <point x="129" y="299"/>
      <point x="83" y="379"/>
      <point x="83" y="484" type="curve" smooth="yes"/>
      <point x="83" y="586"/>
      <point x="146" y="669"/>
      <point x="231" y="669" type="curve" smooth="yes"/>
      <point x="364" y="669"/>
      <point x="421" y="543"/>
      <point x="421" y="373" type="curve" smooth="yes"/>
      <point x="421" y="100"/>
      <point x="320" y="6"/>
      <point x="205" y="6" type="curve" smooth="yes"/>
      <point x="159" y="6"/>
      <point x="117" y="26"/>
      <point x="85" y="65" type="curve"/>
      <point x="63" y="41" type="line"/>
      <point x="97" y="2"/>
      <point x="142" y="-24"/>
    </contour>
  </outline>
</glyph>
<glyph name="cid42990" format="2">
  <advance height="1000" width="227"/>
  <unicode hex="003A"/>
  <outline>
    <contour>
      <point x="113" y="401" type="curve" smooth="yes"/>
      <point x="133" y="401"/>
      <point x="153" y="416"/>
      <point x="153" y="442" type="curve" smooth="yes"/>
      <point x="153" y="471"/>
      <point x="133" y="486"/>
      <point x="113" y="486" type="curve" smooth="yes"/>
      <point x="94" y="486"/>
      <point x="74" y="471"/>
      <point x="74" y="442" type="curve" smooth="yes"/>
      <point x="74" y="416"/>
      <point x="94" y="401"/>
    </contour>
    <contour>
      <point x="113" y="-24" type="curve" smooth="yes"/>
      <point x="133" y="-24"/>
      <point x="153" y="-9"/>
      <point x="153" y="17" type="curve" smooth="yes"/>
      <point x="153" y="46"/>
      <point x="133" y="61"/>
      <point x="113" y="61" type="curve" smooth="yes"/>
      <point x="94" y="61"/>
      <point x="74" y="46"/>
      <point x="74" y="17" type="curve" smooth="yes"/>
      <point x="74" y="-9"/>
      <point x="94" y="-24"/>
    </contour>
  </outline>
</glyph>
<glyph name="cid44796" format="2">
  <advance height="1000" width="514"/>
  <unicode hex="003D"/>
  <outline>
    <contour>
      <point x="37" y="442" type="line"/>
      <point x="477" y="442" type="line"/>
      <point x="477" y="473" type="line"/>
      <point x="37" y="473" type="line"/>
    </contour>
    <contour>
      <point x="37" y="224" type="line"/>
      <point x="477" y="224" type="line"/>
      <point x="477" y="255" type="line"/>
      <point x="37" y="255" type="line"/>
    </contour>
  </outline>
</glyph>
<glyph name="cid44802" format="2">
  <advance height="1000" width="514"/>
  <unicode hex="003E"/>
  <outline>
    <contour>
      <point x="37" y="155" type="line"/>
      <point x="477" y="331" type="line"/>
      <point x="477" y="371" type="line"/>
      <point x="37" y="547" type="line"/>
      <point x="37" y="512" type="line"/>
      <point x="299" y="410" type="line"/>
      <point x="443" y="353" type="line"/>
      <point x="443" y="349" type="line"/>
      <point x="299" y="292" type="line"/>
      <point x="37" y="190" type="line"/>
    </contour>
  </outline>
</glyph>
<glyph name="cid43002" format="2">
  <advance height="1000" width="429"/>
  <unicode hex="003F"/>
  <outline>
    <contour>
      <point x="179" y="176" type="curve"/>
      <point x="209" y="176" type="line"/>
      <point x="187" y="348"/>
      <point x="373" y="418"/>
      <point x="373" y="569" type="curve" smooth="yes"/>
      <point x="373" y="658"/>
      <point x="314" y="732"/>
      <point x="209" y="732" type="curve" smooth="yes"/>
      <point x="135" y="732"/>
      <point x="81" y="695"/>
      <point x="39" y="650" type="curve"/>
      <point x="61" y="630" type="line"/>
      <point x="98" y="676"/>
      <point x="153" y="702"/>
      <point x="207" y="702" type="curve" smooth="yes"/>
      <point x="299" y="702"/>
      <point x="338" y="636"/>
      <point x="338" y="567" type="curve" smooth="yes"/>
      <point x="338" y="425"/>
      <point x="155" y="362"/>
    </contour>
    <contour>
      <point x="198" y="-24" type="curve" smooth="yes"/>
      <point x="218" y="-24"/>
      <point x="238" y="-9"/>
      <point x="238" y="17" type="curve" smooth="yes"/>
      <point x="238" y="46"/>
      <point x="218" y="61"/>
      <point x="198" y="61" type="curve" smooth="yes"/>
      <point x="179" y="61"/>
      <point x="159" y="46"/>
      <point x="159" y="17" type="curve" smooth="yes"/>
      <point x="159" y="-9"/>
      <point x="179" y="-24"/>
    </contour>
  </outline>
</glyph>
<glyph name="cid40012" format="2">
  <advance height="1000" width="613"/>
  <unicode hex="0043"/>
  <outline>
    <contour>
      <point x="358" y="-24" type="curve" smooth="yes"/>
      <point x="453" y="-24"/>
      <point x="514" y="15"/>
      <point x="569" y="78" type="curve"/>
      <point x="548" y="97" type="line"/>
      <point x="494" y="36"/>
      <point x="436" y="9"/>
      <point x="360" y="9" type="curve" smooth="yes"/>
      <point x="198" y="9"/>
      <point x="98" y="144"/>
      <point x="98" y="351" type="curve" smooth="yes"/>
      <point x="98" y="558"/>
      <point x="198" y="689"/>
      <point x="364" y="689" type="curve" smooth="yes"/>
      <point x="429" y="689"/>
      <point x="486" y="660"/>
      <point x="525" y="615" type="curve"/>
      <point x="547" y="636" type="line"/>
      <point x="510" y="682"/>
      <point x="445" y="721"/>
      <point x="364" y="721" type="curve" smooth="yes"/>
      <point x="181" y="721"/>
      <point x="61" y="578"/>
      <point x="61" y="351" type="curve" smooth="yes"/>
      <point x="61" y="124"/>
      <point x="181" y="-24"/>
    </contour>
  </outline>
</glyph>
<glyph name="cid40020" format="2">
  <advance height="1000" width="512"/>
  <unicode hex="0046"/>
  <outline>
    <contour>
      <point x="109" y="-11" type="line"/>
      <point x="144" y="-11" type="line"/>
      <point x="144" y="344" type="line"/>
      <point x="438" y="344" type="line"/>
      <point x="438" y="375" type="line"/>
      <point x="144" y="375" type="line"/>
      <point x="144" y="678" type="line"/>
      <point x="493" y="678" type="line"/>
      <point x="493" y="708" type="line"/>
      <point x="109" y="708" type="line"/>
    </contour>
  </outline>
</glyph>
<glyph name="cid40021" format="2">
  <advance height="1000" width="654"/>
  <unicode hex="0047"/>
  <outline>
    <contour>
      <point x="364" y="-24" type="curve" smooth="yes"/>
      <point x="458" y="-24"/>
      <point x="530" y="9"/>
      <point x="573" y="57" type="curve"/>
      <point x="573" y="336" type="line"/>
      <point x="360" y="336" type="line"/>
      <point x="360" y="305" type="line"/>
      <point x="538" y="305" type="line"/>
      <point x="538" y="67" type="line"/>
      <point x="501" y="30"/>
      <point x="436" y="9"/>
      <point x="366" y="9" type="curve" smooth="yes"/>
      <point x="198" y="9"/>
      <point x="98" y="144"/>
      <point x="98" y="351" type="curve" smooth="yes"/>
      <point x="98" y="558"/>
      <point x="203" y="689"/>
      <point x="375" y="689" type="curve" smooth="yes"/>
      <point x="456" y="689"/>
      <point x="508" y="654"/>
      <point x="545" y="612" type="curve"/>
      <point x="567" y="636" type="line"/>
      <point x="530" y="676"/>
      <point x="471" y="721"/>
      <point x="375" y="721" type="curve" smooth="yes"/>
      <point x="185" y="721"/>
      <point x="61" y="578"/>
      <point x="61" y="351" type="curve" smooth="yes"/>
      <point x="61" y="124"/>
      <point x="181" y="-24"/>
    </contour>
  </outline>
</glyph>
<glyph name="cid40033" format="2">
  <advance height="1000" width="501"/>
  <unicode hex="004C"/>
  <outline>
    <contour>
      <point x="109" y="-11" type="line"/>
      <point x="482" y="-11" type="line"/>
      <point x="482" y="20" type="line"/>
      <point x="144" y="20" type="line"/>
      <point x="144" y="708" type="line"/>
      <point x="109" y="708" type="line"/>
    </contour>
  </outline>
</glyph>
<glyph name="cid40038" format="2">
  <advance height="1000" width="706"/>
  <unicode hex="004F"/>
  <outline>
    <contour>
      <point x="353" y="-24" type="curve" smooth="yes"/>
      <point x="523" y="-24"/>
      <point x="645" y="124"/>
      <point x="645" y="351" type="curve" smooth="yes"/>
      <point x="645" y="578"/>
      <point x="523" y="721"/>
      <point x="353" y="721" type="curve" smooth="yes"/>
      <point x="183" y="721"/>
      <point x="61" y="578"/>
      <point x="61" y="351" type="curve" smooth="yes"/>
      <point x="61" y="124"/>
      <point x="183" y="-24"/>
    </contour>
    <contour>
      <point x="353" y="9" type="curve" smooth="yes"/>
      <point x="201" y="9"/>
      <point x="98" y="144"/>
      <point x="98" y="351" type="curve" smooth="yes"/>
      <point x="98" y="558"/>
      <point x="201" y="689"/>
      <point x="353" y="689" type="curve" smooth="yes"/>
      <point x="506" y="689"/>
      <point x="608" y="558"/>
      <point x="608" y="351" type="curve" smooth="yes"/>
      <point x="608" y="144"/>
      <point x="506" y="9"/>
    </contour>
  </outline>
</glyph>
<glyph name="cid40041" format="2">
  <advance height="1000" width="706"/>
  <unicode hex="0051"/>
  <outline>
    <contour>
      <point x="353" y="-24" type="curve" smooth="yes"/>
      <point x="523" y="-24"/>
      <point x="645" y="124"/>
      <point x="645" y="351" type="curve" smooth="yes"/>
      <point x="645" y="578"/>
      <point x="523" y="721"/>
      <point x="353" y="721" type="curve" smooth="yes"/>
      <point x="183" y="721"/>
      <point x="61" y="578"/>
      <point x="61" y="351" type="curve" smooth="yes"/>
      <point x="61" y="124"/>
      <point x="183" y="-24"/>
    </contour>
    <contour>
      <point x="353" y="6" type="curve" smooth="yes"/>
      <point x="201" y="6"/>
      <point x="98" y="144"/>
      <point x="98" y="351" type="curve" smooth="yes"/>
      <point x="98" y="558"/>
      <point x="201" y="689"/>
      <point x="353" y="689" type="curve" smooth="yes"/>
      <point x="506" y="689"/>
      <point x="608" y="558"/>
      <point x="608" y="351" type="curve" smooth="yes"/>
      <point x="608" y="144"/>
      <point x="506" y="6"/>
    </contour>
    <contour>
      <point x="560" y="-177" type="curve" smooth="yes"/>
      <point x="593" y="-177"/>
      <point x="626" y="-170"/>
      <point x="643" y="-164" type="curve"/>
      <point x="634" y="-133" type="line"/>
      <point x="617" y="-137"/>
      <point x="595" y="-142"/>
      <point x="562" y="-142" type="curve" smooth="yes"/>
      <point x="464" y="-142"/>
      <point x="397" y="-94"/>
      <point x="366" y="-11" type="curve"/>
      <point x="327" y="-11" type="line"/>
      <point x="358" y="-105"/>
      <point x="438" y="-177"/>
    </contour>
  </outline>
</glyph>
<glyph name="cid40047" format="2">
  <advance height="1000" width="687"/>
  <unicode hex="0055"/>
  <outline>
    <contour>
      <point x="342" y="-24" type="curve" smooth="yes"/>
      <point x="458" y="-24"/>
      <point x="580" y="35"/>
      <point x="580" y="257" type="curve" smooth="yes"/>
      <point x="580" y="708" type="line"/>
      <point x="547" y="708" type="line"/>
      <point x="547" y="266" type="line" smooth="yes"/>
      <point x="547" y="67"/>
      <point x="449" y="9"/>
      <point x="342" y="9" type="curve" smooth="yes"/>
      <point x="238" y="9"/>
      <point x="142" y="67"/>
      <point x="142" y="266" type="curve" smooth="yes"/>
      <point x="142" y="708" type="line"/>
      <point x="107" y="708" type="line"/>
      <point x="107" y="257" type="line" smooth="yes"/>
      <point x="107" y="35"/>
      <point x="227" y="-24"/>
    </contour>
  </outline>
</glyph>
<glyph name="cid40050" format="2">
  <advance height="1000" width="525"/>
  <unicode hex="0056"/>
  <outline>
    <contour>
      <point x="242" y="-11" type="line"/>
      <point x="277" y="-11" type="line"/>
      <point x="519" y="708" type="line"/>
      <point x="484" y="708" type="line"/>
      <point x="340" y="277" type="line" smooth="yes"/>
      <point x="310" y="185"/>
      <point x="290" y="124"/>
      <point x="262" y="35" type="curve"/>
      <point x="257" y="35" type="line"/>
      <point x="229" y="124"/>
      <point x="207" y="185"/>
      <point x="179" y="277" type="curve" smooth="yes"/>
      <point x="44" y="708" type="line"/>
      <point x="7" y="708" type="line"/>
    </contour>
  </outline>
</glyph>
<glyph name="cid40054" format="2">
  <advance height="1000" width="475"/>
  <unicode hex="0059"/>
  <outline>
    <contour>
      <point x="220" y="-11" type="line"/>
      <point x="255" y="-11" type="line"/>
      <point x="255" y="285" type="line"/>
      <point x="471" y="708" type="line"/>
      <point x="436" y="708" type="line"/>
      <point x="320" y="475" type="line" smooth="yes"/>
      <point x="296" y="423"/>
      <point x="268" y="373"/>
      <point x="240" y="320" type="curve"/>
      <point x="235" y="320" type="line"/>
      <point x="207" y="373"/>
      <point x="183" y="423"/>
      <point x="157" y="475" type="curve" smooth="yes"/>
      <point x="41" y="708" type="line"/>
      <point x="4" y="708" type="line"/>
      <point x="220" y="285" type="line"/>
    </contour>
  </outline>
</glyph>
<glyph name="cid40056" format="2">
  <advance height="1000" width="586"/>
  <unicode hex="005A"/>
  <outline>
    <contour>
      <point x="57" y="-11" type="line"/>
      <point x="532" y="-11" type="line"/>
      <point x="532" y="20" type="line"/>
      <point x="100" y="20" type="line"/>
      <point x="528" y="689" type="line"/>
      <point x="528" y="708" type="line"/>
      <point x="94" y="708" type="line"/>
      <point x="94" y="678" type="line"/>
      <point x="484" y="678" type="line"/>
      <point x="57" y="9" type="line"/>
    </contour>
  </outline>
</glyph>
<glyph name="cid43212" format="2">
  <advance height="1000" width="294"/>
  <unicode hex="005B"/>
  <outline>
    <contour>
      <point x="109" y="-177" type="line"/>
      <point x="275" y="-177" type="line"/>
      <point x="275" y="-153" type="line"/>
      <point x="135" y="-153" type="line"/>
      <point x="135" y="737" type="line"/>
      <point x="275" y="737" type="line"/>
      <point x="275" y="761" type="line"/>
      <point x="109" y="761" type="line"/>
    </contour>
  </outline>
</glyph>
<glyph name="cid43224" format="2">
  <advance height="1000" width="392"/>
  <unicode hex="005C"/>
  <outline>
    <contour>
      <point x="351" y="-185" type="line"/>
      <point x="384" y="-185" type="line"/>
      <point x="35" y="763" type="line"/>
      <point x="2" y="763" type="line"/>
    </contour>
  </outline>
</glyph>
<glyph name="cid44816" format="2">
  <advance height="1000" width="514"/>
  <unicode hex="005E"/>
  <outline>
    <contour>
      <point x="74" y="307" type="line"/>
      <point x="109" y="307" type="line"/>
      <point x="198" y="541" type="line"/>
      <point x="255" y="684" type="line"/>
      <point x="259" y="684" type="line"/>
      <point x="316" y="541" type="line"/>
      <point x="405" y="307" type="line"/>
      <point x="440" y="307" type="line"/>
      <point x="277" y="719" type="line"/>
      <point x="238" y="719" type="line"/>
    </contour>
  </outline>
</glyph>
<glyph name="cid43194" format="2">
  <advance height="1000" width="545"/>
  <unicode hex="005F"/>
  <outline>
    <contour>
      <point x="13" y="-135" type="line"/>
      <point x="532" y="-135" type="line"/>
      <point x="532" y="-100" type="line"/>
      <point x="13" y="-100" type="line"/>
    </contour>
  </outline>
</glyph>
<glyph name="cid45017" format="2">
  <advance height="1000" width="580"/>
  <unicode hex="0060"/>
  <outline>
    <contour>
      <point x="334" y="610" type="line"/>
      <point x="366" y="610" type="line"/>
      <point x="214" y="774" type="line"/>
      <point x="172" y="774" type="line"/>
      <point x="170" y="769" type="line"/>
    </contour>
  </outline>
</glyph>
<glyph name="cid40059" format="2">
  <advance height="1000" width="586"/>
  <unicode hex="0062"/>
  <outline>
    <contour>
      <point x="299" y="-24" type="curve" smooth="yes"/>
      <point x="423" y="-24"/>
      <point x="530" y="81"/>
      <point x="530" y="257" type="curve" smooth="yes"/>
      <point x="530" y="418"/>
      <point x="462" y="523"/>
      <point x="320" y="523" type="curve" smooth="yes"/>
      <point x="255" y="523"/>
      <point x="190" y="484"/>
      <point x="135" y="438" type="curve"/>
      <point x="137" y="543" type="line"/>
      <point x="137" y="776" type="line"/>
      <point x="105" y="776" type="line"/>
      <point x="105" y="-11" type="line"/>
      <point x="133" y="-11" type="line"/>
      <point x="137" y="41" type="line"/>
      <point x="140" y="41" type="line"/>
      <point x="190" y="2"/>
      <point x="249" y="-24"/>
    </contour>
    <contour>
      <point x="301" y="6" type="curve" smooth="yes"/>
      <point x="259" y="6"/>
      <point x="198" y="26"/>
      <point x="137" y="78" type="curve"/>
      <point x="137" y="401" type="line"/>
      <point x="203" y="460"/>
      <point x="264" y="493"/>
      <point x="318" y="493" type="curve" smooth="yes"/>
      <point x="447" y="493"/>
      <point x="495" y="390"/>
      <point x="495" y="257" type="curve" smooth="yes"/>
      <point x="495" y="111"/>
      <point x="414" y="6"/>
    </contour>
  </outline>
</glyph>
<glyph name="cid40072" format="2">
  <advance height="1000" width="242"/>
  <unicode hex="006A"/>
  <outline>
    <contour>
      <point x="31" y="-266" type="curve" smooth="yes"/>
      <point x="102" y="-266"/>
      <point x="137" y="-222"/>
      <point x="137" y="-122" type="curve" smooth="yes"/>
      <point x="137" y="510" type="line"/>
      <point x="105" y="510" type="line"/>
      <point x="105" y="-118" type="line" smooth="yes"/>
      <point x="105" y="-185"/>
      <point x="94" y="-236"/>
      <point x="33" y="-236" type="curve" smooth="yes"/>
      <point x="13" y="-236"/>
      <point x="-11" y="-229"/>
      <point x="-24" y="-225" type="curve"/>
      <point x="-33" y="-251" type="line"/>
      <point x="-17" y="-260"/>
      <point x="11" y="-266"/>
    </contour>
    <contour>
      <point x="120" y="643" type="curve" smooth="yes"/>
      <point x="140" y="643"/>
      <point x="155" y="658"/>
      <point x="155" y="682" type="curve" smooth="yes"/>
      <point x="155" y="704"/>
      <point x="140" y="719"/>
      <point x="120" y="719" type="curve" smooth="yes"/>
      <point x="100" y="719"/>
      <point x="85" y="704"/>
      <point x="85" y="682" type="curve" smooth="yes"/>
      <point x="85" y="658"/>
      <point x="100" y="643"/>
    </contour>
  </outline>
</glyph>
<glyph name="cid40088" format="2">
  <advance height="1000" width="436"/>
  <unicode hex="0073"/>
  <outline>
    <contour>
      <point x="227" y="-24" type="curve" smooth="yes"/>
      <point x="336" y="-24"/>
      <point x="397" y="44"/>
      <point x="397" y="120" type="curve" smooth="yes"/>
      <point x="397" y="222"/>
      <point x="305" y="247"/>
      <point x="222" y="279" type="curve" smooth="yes"/>
      <point x="159" y="303"/>
      <point x="100" y="327"/>
      <point x="100" y="390" type="curve" smooth="yes"/>
      <point x="100" y="441"/>
      <point x="140" y="493"/>
      <point x="227" y="493" type="curve" smooth="yes"/>
      <point x="281" y="493"/>
      <point x="318" y="474"/>
      <point x="353" y="449" type="curve"/>
      <point x="373" y="471" type="line"/>
      <point x="336" y="501"/>
      <point x="286" y="523"/>
      <point x="229" y="523" type="curve" smooth="yes"/>
      <point x="122" y="523"/>
      <point x="65" y="460"/>
      <point x="65" y="388" type="curve" smooth="yes"/>
      <point x="65" y="299"/>
      <point x="150" y="268"/>
      <point x="231" y="240" type="curve" smooth="yes"/>
      <point x="292" y="218"/>
      <point x="362" y="187"/>
      <point x="362" y="118" type="curve" smooth="yes"/>
      <point x="362" y="59"/>
      <point x="316" y="6"/>
      <point x="229" y="6" type="curve" smooth="yes"/>
      <point x="146" y="6"/>
      <point x="100" y="33"/>
      <point x="57" y="70" type="curve"/>
      <point x="37" y="48" type="line"/>
      <point x="81" y="4"/>
      <point x="144" y="-24"/>
    </contour>
  </outline>
</glyph>
<glyph name="cid43215" format="2">
  <advance height="1000" width="294"/>
  <unicode hex="007B"/>
  <outline>
    <contour>
      <point x="242" y="-177" type="curve" smooth="yes"/>
      <point x="275" y="-177" type="line"/>
      <point x="275" y="-153" type="line"/>
      <point x="240" y="-153" type="line" smooth="yes"/>
      <point x="170" y="-153"/>
      <point x="153" y="-113"/>
      <point x="153" y="-35" type="curve" smooth="yes"/>
      <point x="153" y="37"/>
      <point x="159" y="98"/>
      <point x="159" y="179" type="curve" smooth="yes"/>
      <point x="159" y="238"/>
      <point x="148" y="277"/>
      <point x="107" y="290" type="curve"/>
      <point x="107" y="294" type="line"/>
      <point x="148" y="307"/>
      <point x="159" y="344"/>
      <point x="159" y="405" type="curve" smooth="yes"/>
      <point x="159" y="486"/>
      <point x="153" y="547"/>
      <point x="153" y="619" type="curve" smooth="yes"/>
      <point x="153" y="698"/>
      <point x="170" y="737"/>
      <point x="240" y="737" type="curve" smooth="yes"/>
      <point x="275" y="737" type="line"/>
      <point x="275" y="761" type="line"/>
      <point x="242" y="761" type="line" smooth="yes"/>
      <point x="164" y="761"/>
      <point x="124" y="732"/>
      <point x="124" y="623" type="curve" smooth="yes"/>
      <point x="124" y="543"/>
      <point x="133" y="471"/>
      <point x="133" y="392" type="curve" smooth="yes"/>
      <point x="133" y="349"/>
      <point x="116" y="305"/>
      <point x="39" y="305" type="curve"/>
      <point x="39" y="279" type="line"/>
      <point x="116" y="279"/>
      <point x="133" y="235"/>
      <point x="133" y="190" type="curve" smooth="yes"/>
      <point x="133" y="113"/>
      <point x="124" y="41"/>
      <point x="124" y="-39" type="curve" smooth="yes"/>
      <point x="124" y="-148"/>
      <point x="164" y="-177"/>
    </contour>
  </outline>
</glyph>
<glyph name="cid43218" format="2">
  <advance height="1000" width="294"/>
  <unicode hex="007D"/>
  <outline>
    <contour>
      <point x="20" y="-177" type="line"/>
      <point x="52" y="-177" type="line" smooth="yes"/>
      <point x="131" y="-177"/>
      <point x="170" y="-148"/>
      <point x="170" y="-39" type="curve" smooth="yes"/>
      <point x="170" y="41"/>
      <point x="161" y="113"/>
      <point x="161" y="190" type="curve" smooth="yes"/>
      <point x="161" y="235"/>
      <point x="179" y="279"/>
      <point x="255" y="279" type="curve"/>
      <point x="255" y="305" type="line"/>
      <point x="179" y="305"/>
      <point x="161" y="349"/>
      <point x="161" y="392" type="curve" smooth="yes"/>
      <point x="161" y="471"/>
      <point x="170" y="543"/>
      <point x="170" y="623" type="curve" smooth="yes"/>
      <point x="170" y="732"/>
      <point x="131" y="761"/>
      <point x="52" y="761" type="curve" smooth="yes"/>
      <point x="20" y="761" type="line"/>
      <point x="20" y="737" type="line"/>
      <point x="55" y="737" type="line" smooth="yes"/>
      <point x="124" y="737"/>
      <point x="142" y="698"/>
      <point x="142" y="619" type="curve" smooth="yes"/>
      <point x="142" y="547"/>
      <point x="135" y="486"/>
      <point x="135" y="405" type="curve" smooth="yes"/>
      <point x="135" y="344"/>
      <point x="146" y="307"/>
      <point x="187" y="294" type="curve"/>
      <point x="187" y="290" type="line"/>
      <point x="146" y="277"/>
      <point x="135" y="238"/>
      <point x="135" y="179" type="curve" smooth="yes"/>
      <point x="135" y="98"/>
      <point x="142" y="37"/>
      <point x="142" y="-35" type="curve" smooth="yes"/>
      <point x="142" y="-113"/>
      <point x="124" y="-153"/>
      <point x="55" y="-153" type="curve" smooth="yes"/>
      <point x="20" y="-153" type="line"/>
    </contour>
  </outline>
</glyph>
<glyph name="cid44822" format="2">
  <advance height="1000" width="514"/>
  <unicode hex="007E"/>
  <outline>
    <contour>
      <point x="355" y="283" type="curve" smooth="yes"/>
      <point x="397" y="283"/>
      <point x="440" y="312"/>
      <point x="469" y="368" type="curve"/>
      <point x="445" y="384" type="line"/>
      <point x="419" y="331"/>
      <point x="390" y="314"/>
      <point x="358" y="314" type="curve" smooth="yes"/>
      <point x="294" y="314"/>
      <point x="242" y="414"/>
      <point x="159" y="414" type="curve" smooth="yes"/>
      <point x="118" y="414"/>
      <point x="74" y="386"/>
      <point x="46" y="327" type="curve"/>
      <point x="70" y="314" type="line"/>
      <point x="96" y="366"/>
      <point x="124" y="384"/>
      <point x="157" y="384" type="curve" smooth="yes"/>
      <point x="220" y="384"/>
      <point x="273" y="283"/>
    </contour>
  </outline>
</glyph>
<glyph name="cid42998" format="2">
  <advance height="1000" width="270"/>
  <unicode hex="00A1"/>
  <outline>
    <contour>
      <point x="118" y="-220" type="line"/>
      <point x="153" y="-220" type="line"/>
      <point x="153" y="-153" type="line"/>
      <point x="148" y="323" type="line"/>
      <point x="122" y="323" type="line"/>
      <point x="118" y="-153" type="line"/>
    </contour>
    <contour>
      <point x="135" y="438" type="curve" smooth="yes"/>
      <point x="155" y="438"/>
      <point x="174" y="453"/>
      <point x="174" y="482" type="curve" smooth="yes"/>
      <point x="174" y="508"/>
      <point x="155" y="523"/>
      <point x="135" y="523" type="curve" smooth="yes"/>
      <point x="116" y="523"/>
      <point x="96" y="508"/>
      <point x="96" y="482" type="curve" smooth="yes"/>
      <point x="96" y="453"/>
      <point x="116" y="438"/>
    </contour>
  </outline>
</glyph>
<glyph name="cid44630" format="2">
  <advance height="1000" width="514"/>
  <unicode hex="00A2"/>
  <outline>
    <contour>
      <point x="301" y="81" type="curve" smooth="yes"/>
      <point x="368" y="81"/>
      <point x="423" y="111"/>
      <point x="467" y="150" type="curve"/>
      <point x="447" y="172" type="line"/>
      <point x="410" y="138"/>
      <point x="360" y="111"/>
      <point x="301" y="111" type="curve" smooth="yes"/>
      <point x="181" y="111"/>
      <point x="102" y="198"/>
      <point x="102" y="329" type="curve" smooth="yes"/>
      <point x="102" y="460"/>
      <point x="190" y="547"/>
      <point x="301" y="547" type="curve" smooth="yes"/>
      <point x="355" y="547"/>
      <point x="399" y="523"/>
      <point x="434" y="490" type="curve"/>
      <point x="453" y="512" type="line"/>
      <point x="419" y="545"/>
      <point x="373" y="578"/>
      <point x="301" y="578" type="curve" smooth="yes"/>
      <point x="177" y="578"/>
      <point x="68" y="490"/>
      <point x="68" y="329" type="curve" smooth="yes"/>
      <point x="68" y="170"/>
      <point x="168" y="81"/>
    </contour>
    <contour>
      <point x="275" y="-39" type="line"/>
      <point x="305" y="-39" type="line"/>
      <point x="305" y="700" type="line"/>
      <point x="275" y="700" type="line"/>
    </contour>
  </outline>
</glyph>
<glyph name="cid44622" format="2">
  <advance height="1000" width="514"/>
  <unicode hex="00A4"/>
  <outline>
    <contour>
      <point x="57" y="118" type="line"/>
      <point x="128" y="192" type="line"/>
      <point x="162" y="158"/>
      <point x="208" y="139"/>
      <point x="257" y="139" type="curve" smooth="yes"/>
      <point x="305" y="139"/>
      <point x="352" y="158"/>
      <point x="386" y="192" type="curve"/>
      <point x="458" y="118" type="line"/>
      <point x="480" y="142" type="line"/>
      <point x="408" y="216" type="line"/>
      <point x="433" y="251"/>
      <point x="449" y="295"/>
      <point x="449" y="347" type="curve" smooth="yes"/>
      <point x="449" y="400"/>
      <point x="433" y="446"/>
      <point x="407" y="481" type="curve"/>
      <point x="480" y="556" type="line"/>
      <point x="458" y="580" type="line"/>
      <point x="386" y="505" type="line"/>
      <point x="351" y="537"/>
      <point x="305" y="556"/>
      <point x="257" y="556" type="curve" smooth="yes"/>
      <point x="208" y="556"/>
      <point x="162" y="537"/>
      <point x="129" y="505" type="curve"/>
      <point x="57" y="580" type="line"/>
      <point x="35" y="556" type="line"/>
      <point x="107" y="481" type="line"/>
      <point x="81" y="446"/>
      <point x="65" y="400"/>
      <point x="65" y="347" type="curve" smooth="yes"/>
      <point x="65" y="295"/>
      <point x="81" y="251"/>
      <point x="107" y="216" type="curve"/>
      <point x="35" y="142" type="line"/>
    </contour>
    <contour>
      <point x="257" y="170" type="curve" smooth="yes"/>
      <point x="172" y="170"/>
      <point x="100" y="242"/>
      <point x="100" y="347" type="curve" smooth="yes"/>
      <point x="100" y="451"/>
      <point x="172" y="525"/>
      <point x="257" y="525" type="curve" smooth="yes"/>
      <point x="342" y="525"/>
      <point x="414" y="451"/>
      <point x="414" y="347" type="curve" smooth="yes"/>
      <point x="414" y="242"/>
      <point x="342" y="170"/>
    </contour>
  </outline>
</glyph>
<glyph name="cid43226" format="2">
  <advance height="1000" width="240"/>
  <unicode hex="00A6"/>
  <outline>
    <contour>
      <point x="105" y="288" type="line"/>
      <point x="135" y="288" type="line"/>
      <point x="135" y="807" type="line"/>
      <point x="105" y="807" type="line"/>
    </contour>
    <contour>
      <point x="105" y="-283" type="line"/>
      <point x="135" y="-283" type="line"/>
      <point x="135" y="231" type="line"/>
      <point x="105" y="231" type="line"/>
    </contour>
  </outline>
</glyph>
<glyph name="cid43231" format="2">
  <advance height="1000" width="514"/>
  <unicode hex="00A7"/>
  <outline>
    <contour>
      <point x="253" y="-63" type="curve" smooth="yes"/>
      <point x="329" y="-63"/>
      <point x="401" y="-9"/>
      <point x="401" y="67" type="curve" smooth="yes"/>
      <point x="401" y="251"/>
      <point x="89" y="207"/>
      <point x="89" y="379" type="curve" smooth="yes"/>
      <point x="89" y="440"/>
      <point x="129" y="471"/>
      <point x="183" y="501" type="curve"/>
      <point x="170" y="527" type="line"/>
      <point x="109" y="497"/>
      <point x="57" y="456"/>
      <point x="57" y="377" type="curve" smooth="yes"/>
      <point x="57" y="179"/>
      <point x="368" y="222"/>
      <point x="368" y="65" type="curve" smooth="yes"/>
      <point x="368" y="13"/>
      <point x="323" y="-33"/>
      <point x="253" y="-33" type="curve" smooth="yes"/>
      <point x="183" y="-33"/>
      <point x="144" y="-9"/>
      <point x="107" y="26" type="curve"/>
      <point x="83" y="2" type="line"/>
      <point x="124" y="-35"/>
      <point x="179" y="-63"/>
    </contour>
    <contour>
      <point x="336" y="146" type="line"/>
      <point x="403" y="179"/>
      <point x="458" y="212"/>
      <point x="458" y="299" type="curve" smooth="yes"/>
      <point x="458" y="501"/>
      <point x="150" y="459"/>
      <point x="150" y="610" type="curve" smooth="yes"/>
      <point x="150" y="654"/>
      <point x="181" y="700"/>
      <point x="259" y="700" type="curve" smooth="yes"/>
      <point x="316" y="700"/>
      <point x="351" y="678"/>
      <point x="386" y="650" type="curve"/>
      <point x="405" y="674" type="line"/>
      <point x="366" y="706"/>
      <point x="316" y="730"/>
      <point x="259" y="730" type="curve" smooth="yes"/>
      <point x="161" y="730"/>
      <point x="118" y="665"/>
      <point x="118" y="608" type="curve" smooth="yes"/>
      <point x="118" y="432"/>
      <point x="425" y="473"/>
      <point x="425" y="296" type="curve" smooth="yes"/>
      <point x="425" y="228"/>
      <point x="386" y="203"/>
      <point x="320" y="174" type="curve"/>
    </contour>
  </outline>
</glyph>
<glyph name="cid44499" format="2">
  <advance height="1000" width="364"/>
  <unicode hex="00AA"/>
  <outline>
    <contour>
      <point x="153" y="427" type="curve" smooth="yes"/>
      <point x="201" y="427"/>
      <point x="240" y="453"/>
      <point x="270" y="480" type="curve"/>
      <point x="275" y="480" type="line"/>
      <point x="281" y="436" type="line"/>
      <point x="305" y="436" type="line"/>
      <point x="305" y="656" type="line" smooth="yes"/>
      <point x="305" y="735"/>
      <point x="281" y="789"/>
      <point x="198" y="789" type="curve" smooth="yes"/>
      <point x="142" y="789"/>
      <point x="89" y="761"/>
      <point x="63" y="743" type="curve"/>
      <point x="76" y="719" type="line"/>
      <point x="100" y="737"/>
      <point x="150" y="761"/>
      <point x="196" y="761" type="curve" smooth="yes"/>
      <point x="259" y="761"/>
      <point x="275" y="713"/>
      <point x="275" y="654" type="curve"/>
      <point x="118" y="639"/>
      <point x="48" y="602"/>
      <point x="48" y="525" type="curve" smooth="yes"/>
      <point x="48" y="462"/>
      <point x="92" y="427"/>
    </contour>
    <contour>
      <point x="159" y="456" type="curve" smooth="yes"/>
      <point x="111" y="456"/>
      <point x="81" y="477"/>
      <point x="81" y="527" type="curve" smooth="yes"/>
      <point x="81" y="580"/>
      <point x="131" y="615"/>
      <point x="275" y="630" type="curve"/>
      <point x="275" y="512" type="line"/>
      <point x="233" y="473"/>
      <point x="194" y="456"/>
    </contour>
  </outline>
</glyph>
<glyph name="cid43129" format="2">
  <advance height="1000" width="423"/>
  <unicode hex="00AB"/>
  <outline>
    <contour>
      <point x="196" y="70" type="line"/>
      <point x="218" y="87" type="line"/>
      <point x="83" y="264" type="line"/>
      <point x="218" y="438" type="line"/>
      <point x="196" y="458" type="line"/>
      <point x="46" y="279" type="line"/>
      <point x="46" y="248" type="line"/>
    </contour>
    <contour>
      <point x="342" y="70" type="line"/>
      <point x="364" y="87" type="line"/>
      <point x="229" y="264" type="line"/>
      <point x="364" y="438" type="line"/>
      <point x="342" y="458" type="line"/>
      <point x="192" y="279" type="line"/>
      <point x="192" y="248" type="line"/>
    </contour>
  </outline>
</glyph>
<glyph name="cid43285" format="2">
  <advance height="1000" width="427"/>
  <unicode hex="00AE"/>
  <outline>
    <contour>
      <point x="214" y="344" type="curve" smooth="yes"/>
      <point x="320" y="344"/>
      <point x="410" y="427"/>
      <point x="410" y="554" type="curve" smooth="yes"/>
      <point x="410" y="680"/>
      <point x="320" y="765"/>
      <point x="214" y="765" type="curve" smooth="yes"/>
      <point x="107" y="765"/>
      <point x="17" y="680"/>
      <point x="17" y="554" type="curve" smooth="yes"/>
      <point x="17" y="427"/>
      <point x="107" y="344"/>
    </contour>
    <contour>
      <point x="214" y="373" type="curve" smooth="yes"/>
      <point x="122" y="373"/>
      <point x="48" y="449"/>
      <point x="48" y="554" type="curve" smooth="yes"/>
      <point x="48" y="658"/>
      <point x="122" y="737"/>
      <point x="214" y="737" type="curve" smooth="yes"/>
      <point x="305" y="737"/>
      <point x="379" y="658"/>
      <point x="379" y="554" type="curve" smooth="yes"/>
      <point x="379" y="449"/>
      <point x="305" y="373"/>
    </contour>
    <contour>
      <point x="142" y="445" type="line"/>
      <point x="172" y="445" type="line"/>
      <point x="172" y="530" type="line"/>
      <point x="227" y="530" type="line"/>
      <point x="270" y="445" type="line"/>
      <point x="307" y="445" type="line"/>
      <point x="253" y="541" type="line"/>
      <point x="277" y="547"/>
      <point x="296" y="573"/>
      <point x="296" y="602" type="curve" smooth="yes"/>
      <point x="296" y="656"/>
      <point x="255" y="671"/>
      <point x="214" y="671" type="curve" smooth="yes"/>
      <point x="142" y="671" type="line"/>
    </contour>
    <contour>
      <point x="172" y="558" type="line"/>
      <point x="172" y="643" type="line"/>
      <point x="209" y="643" type="line" smooth="yes"/>
      <point x="251" y="643"/>
      <point x="264" y="626"/>
      <point x="264" y="599" type="curve" smooth="yes"/>
      <point x="264" y="569"/>
      <point x="240" y="558"/>
      <point x="205" y="558" type="curve" smooth="yes"/>
    </contour>
  </outline>
</glyph>
<glyph name="cid45031" format="2">
  <advance height="1000" width="580"/>
  <unicode hex="00AF"/>
  <outline>
    <contour>
      <point x="159" y="652" type="line"/>
      <point x="421" y="652" type="line"/>
      <point x="421" y="682" type="line"/>
      <point x="159" y="682" type="line"/>
    </contour>
  </outline>
</glyph>
<glyph name="cid44852" format="2">
  <advance height="1000" width="331"/>
  <unicode hex="00B0"/>
  <outline>
    <contour>
      <point x="166" y="484" type="curve" smooth="yes"/>
      <point x="227" y="484"/>
      <point x="286" y="530"/>
      <point x="286" y="608" type="curve" smooth="yes"/>
      <point x="286" y="689"/>
      <point x="227" y="735"/>
      <point x="166" y="735" type="curve" smooth="yes"/>
      <point x="105" y="735"/>
      <point x="46" y="689"/>
      <point x="46" y="608" type="curve" smooth="yes"/>
      <point x="46" y="530"/>
      <point x="105" y="484"/>
    </contour>
    <contour>
      <point x="166" y="512" type="curve" smooth="yes"/>
      <point x="113" y="512"/>
      <point x="76" y="554"/>
      <point x="76" y="608" type="curve" smooth="yes"/>
      <point x="76" y="665"/>
      <point x="113" y="706"/>
      <point x="166" y="706" type="curve" smooth="yes"/>
      <point x="218" y="706"/>
      <point x="255" y="665"/>
      <point x="255" y="608" type="curve" smooth="yes"/>
      <point x="255" y="554"/>
      <point x="218" y="512"/>
    </contour>
  </outline>
</glyph>
<glyph name="cid44812" format="2">
  <advance height="1000" width="514"/>
  <unicode hex="00B1"/>
  <outline>
    <contour>
      <point x="240" y="111" type="line"/>
      <point x="275" y="111" type="line"/>
      <point x="275" y="333" type="line"/>
      <point x="477" y="333" type="line"/>
      <point x="477" y="364" type="line"/>
      <point x="275" y="364" type="line"/>
      <point x="275" y="586" type="line"/>
      <point x="240" y="586" type="line"/>
      <point x="240" y="364" type="line"/>
      <point x="37" y="364" type="line"/>
      <point x="37" y="333" type="line"/>
      <point x="240" y="333" type="line"/>
    </contour>
    <contour>
      <point x="37" y="-11" type="line"/>
      <point x="477" y="-11" type="line"/>
      <point x="477" y="20" type="line"/>
      <point x="37" y="20" type="line"/>
    </contour>
  </outline>
</glyph>
<glyph name="cid44404" format="2">
  <advance height="1000" width="392"/>
  <unicode hex="00B3"/>
  <outline>
    <contour>
      <point x="192" y="423" type="curve" smooth="yes"/>
      <point x="270" y="423"/>
      <point x="331" y="469"/>
      <point x="331" y="547" type="curve" smooth="yes"/>
      <point x="331" y="608"/>
      <point x="281" y="645"/>
      <point x="229" y="654" type="curve"/>
      <point x="277" y="671"/>
      <point x="314" y="708"/>
      <point x="314" y="763" type="curve" smooth="yes"/>
      <point x="314" y="833"/>
      <point x="257" y="874"/>
      <point x="187" y="874" type="curve" smooth="yes"/>
      <point x="135" y="874"/>
      <point x="92" y="844"/>
      <point x="63" y="807" type="curve"/>
      <point x="85" y="787" type="line"/>
      <point x="113" y="822"/>
      <point x="150" y="846"/>
      <point x="185" y="846" type="curve" smooth="yes"/>
      <point x="244" y="846"/>
      <point x="281" y="811"/>
      <point x="281" y="761" type="curve" smooth="yes"/>
      <point x="281" y="711"/>
      <point x="231" y="665"/>
      <point x="142" y="665" type="curve"/>
      <point x="142" y="639" type="line"/>
      <point x="238" y="639"/>
      <point x="299" y="606"/>
      <point x="299" y="547" type="curve" smooth="yes"/>
      <point x="299" y="486"/>
      <point x="251" y="451"/>
      <point x="194" y="451" type="curve" smooth="yes"/>
      <point x="144" y="451"/>
      <point x="98" y="482"/>
      <point x="72" y="523" type="curve"/>
      <point x="46" y="503" type="line"/>
      <point x="74" y="462"/>
      <point x="126" y="423"/>
    </contour>
  </outline>
</glyph>
<glyph name="cid43234" format="2">
  <advance height="1000" width="543"/>
  <unicode hex="00B6"/>
  <outline>
    <contour>
      <point x="403" y="-98" type="line"/>
      <point x="438" y="-98" type="line"/>
      <point x="438" y="708" type="line"/>
      <point x="403" y="708" type="line"/>
    </contour>
    <contour>
      <point x="316" y="262" type="curve" smooth="yes"/>
      <point x="344" y="262" type="line"/>
      <point x="344" y="708" type="line"/>
      <point x="296" y="708" type="line" smooth="yes"/>
      <point x="148" y="708"/>
      <point x="46" y="645"/>
      <point x="46" y="484" type="curve" smooth="yes"/>
      <point x="46" y="323"/>
      <point x="155" y="262"/>
    </contour>
  </outline>
</glyph>
<glyph name="cid43152" format="2">
  <advance height="1000" width="227"/>
  <unicode hex="00B7"/>
  <outline>
    <contour>
      <point x="113" y="299" type="curve" smooth="yes"/>
      <point x="133" y="299"/>
      <point x="153" y="314"/>
      <point x="153" y="340" type="curve" smooth="yes"/>
      <point x="153" y="368"/>
      <point x="133" y="384"/>
      <point x="113" y="384" type="curve" smooth="yes"/>
      <point x="94" y="384"/>
      <point x="74" y="368"/>
      <point x="74" y="340" type="curve" smooth="yes"/>
      <point x="74" y="314"/>
      <point x="94" y="299"/>
    </contour>
  </outline>
</glyph>
<glyph name="cid44403" format="2">
  <advance height="1000" width="392"/>
  <unicode hex="00B9"/>
  <outline>
    <contour>
      <point x="194" y="436" type="line"/>
      <point x="225" y="436" type="line"/>
      <point x="225" y="861" type="line"/>
      <point x="196" y="861" type="line"/>
      <point x="172" y="841"/>
      <point x="144" y="828"/>
      <point x="105" y="820" type="curve"/>
      <point x="105" y="796" type="line"/>
      <point x="194" y="796" type="line"/>
    </contour>
  </outline>
</glyph>
<glyph name="cid44504" format="2">
  <advance height="1000" width="390"/>
  <unicode hex="00BA"/>
  <outline>
    <contour>
      <point x="194" y="427" type="curve" smooth="yes"/>
      <point x="281" y="427"/>
      <point x="351" y="495"/>
      <point x="351" y="608" type="curve" smooth="yes"/>
      <point x="351" y="724"/>
      <point x="281" y="789"/>
      <point x="194" y="789" type="curve" smooth="yes"/>
      <point x="107" y="789"/>
      <point x="37" y="724"/>
      <point x="37" y="608" type="curve" smooth="yes"/>
      <point x="37" y="495"/>
      <point x="107" y="427"/>
    </contour>
    <contour>
      <point x="194" y="456" type="curve" smooth="yes"/>
      <point x="120" y="456"/>
      <point x="70" y="519"/>
      <point x="70" y="608" type="curve" smooth="yes"/>
      <point x="70" y="700"/>
      <point x="120" y="761"/>
      <point x="194" y="761" type="curve" smooth="yes"/>
      <point x="268" y="761"/>
      <point x="318" y="700"/>
      <point x="318" y="608" type="curve" smooth="yes"/>
      <point x="318" y="519"/>
      <point x="268" y="456"/>
    </contour>
  </outline>
</glyph>
<glyph name="cid44729" format="2">
  <advance height="1000" width="826"/>
  <unicode hex="00BC"/>
  <outline>
    <contour>
      <point x="172" y="283" type="line"/>
      <point x="203" y="283" type="line"/>
      <point x="203" y="708" type="line"/>
      <point x="174" y="708" type="line"/>
      <point x="150" y="689"/>
      <point x="122" y="676"/>
      <point x="83" y="667" type="curve"/>
      <point x="83" y="643" type="line"/>
      <point x="172" y="643" type="line"/>
    </contour>
    <contour>
      <point x="192" y="-24" type="line"/>
      <point x="227" y="-24" type="line"/>
      <point x="630" y="721" type="line"/>
      <point x="595" y="721" type="line"/>
    </contour>
    <contour>
      <point x="678" y="-11" type="line"/>
      <point x="709" y="-11" type="line"/>
      <point x="709" y="414" type="line"/>
      <point x="685" y="414" type="line"/>
      <point x="486" y="135" type="line"/>
      <point x="486" y="118" type="line"/>
      <point x="772" y="118" type="line"/>
      <point x="772" y="146" type="line"/>
      <point x="530" y="146" type="line"/>
      <point x="615" y="268" type="line"/>
      <point x="678" y="360" type="line"/>
      <point x="682" y="360" type="line"/>
      <point x="678" y="248" type="line"/>
    </contour>
  </outline>
</glyph>
<glyph name="cid44732" format="2">
  <advance height="1000" width="848"/>
  <unicode hex="00BD"/>
  <outline>
    <contour>
      <point x="172" y="283" type="line"/>
      <point x="203" y="283" type="line"/>
      <point x="203" y="708" type="line"/>
      <point x="174" y="708" type="line"/>
      <point x="150" y="689"/>
      <point x="122" y="676"/>
      <point x="83" y="667" type="curve"/>
      <point x="83" y="643" type="line"/>
      <point x="172" y="643" type="line"/>
    </contour>
    <contour>
      <point x="166" y="-24" type="line"/>
      <point x="201" y="-24" type="line"/>
      <point x="604" y="721" type="line"/>
      <point x="569" y="721" type="line"/>
    </contour>
    <contour>
      <point x="519" y="-11" type="line"/>
      <point x="791" y="-11" type="line"/>
      <point x="791" y="17" type="line"/>
      <point x="571" y="17" type="line"/>
      <point x="687" y="131"/>
      <point x="765" y="203"/>
      <point x="765" y="294" type="curve" smooth="yes"/>
      <point x="765" y="384"/>
      <point x="713" y="427"/>
      <point x="637" y="427" type="curve" smooth="yes"/>
      <point x="584" y="427"/>
      <point x="534" y="390"/>
      <point x="510" y="349" type="curve"/>
      <point x="532" y="329" type="line"/>
      <point x="556" y="366"/>
      <point x="593" y="399"/>
      <point x="634" y="399" type="curve" smooth="yes"/>
      <point x="693" y="399"/>
      <point x="732" y="357"/>
      <point x="732" y="292" type="curve" smooth="yes"/>
      <point x="732" y="218"/>
      <point x="669" y="153"/>
      <point x="519" y="11" type="curve"/>
    </contour>
  </outline>
</glyph>
<glyph name="cid43005" format="2">
  <advance height="1000" width="429"/>
  <unicode hex="00BF"/>
  <outline>
    <contour>
      <point x="220" y="-233" type="curve" smooth="yes"/>
      <point x="294" y="-233"/>
      <point x="349" y="-196"/>
      <point x="390" y="-151" type="curve"/>
      <point x="368" y="-131" type="line"/>
      <point x="331" y="-177"/>
      <point x="277" y="-203"/>
      <point x="222" y="-203" type="curve" smooth="yes"/>
      <point x="131" y="-203"/>
      <point x="92" y="-137"/>
      <point x="92" y="-68" type="curve" smooth="yes"/>
      <point x="92" y="74"/>
      <point x="275" y="137"/>
      <point x="251" y="323" type="curve"/>
      <point x="220" y="323" type="line"/>
      <point x="242" y="151"/>
      <point x="57" y="81"/>
      <point x="57" y="-70" type="curve" smooth="yes"/>
      <point x="57" y="-159"/>
      <point x="116" y="-233"/>
    </contour>
    <contour>
      <point x="231" y="438" type="curve" smooth="yes"/>
      <point x="251" y="438"/>
      <point x="270" y="453"/>
      <point x="270" y="482" type="curve" smooth="yes"/>
      <point x="270" y="508"/>
      <point x="251" y="523"/>
      <point x="231" y="523" type="curve" smooth="yes"/>
      <point x="211" y="523"/>
      <point x="192" y="508"/>
      <point x="192" y="482" type="curve" smooth="yes"/>
      <point x="192" y="453"/>
      <point x="211" y="438"/>
    </contour>
  </outline>
</glyph>
<glyph name="cid40102" format="2">
  <advance height="1000" width="567"/>
  <unicode hex="00C1"/>
  <outline>
    <contour>
      <point x="11" y="-11" type="line"/>
      <point x="46" y="-11" type="line"/>
      <point x="198" y="421" type="line" smooth="yes"/>
      <point x="229" y="508"/>
      <point x="255" y="582"/>
      <point x="281" y="671" type="curve"/>
      <point x="286" y="671" type="line"/>
      <point x="312" y="582"/>
      <point x="338" y="508"/>
      <point x="368" y="421" type="curve" smooth="yes"/>
      <point x="519" y="-11" type="line"/>
      <point x="556" y="-11" type="line"/>
      <point x="299" y="708" type="line"/>
      <point x="268" y="708" type="line"/>
    </contour>
    <contour>
      <point x="122" y="246" type="line"/>
      <point x="441" y="246" type="line"/>
      <point x="441" y="277" type="line"/>
      <point x="122" y="277" type="line"/>
    </contour>
    <contour>
      <point x="207" y="763" type="line"/>
      <point x="246" y="763" type="line"/>
      <point x="414" y="889" type="line"/>
      <point x="412" y="894" type="line"/>
      <point x="360" y="894" type="line"/>
    </contour>
  </outline>
</glyph>
<glyph name="cid40105" format="2">
  <advance height="1000" width="567"/>
  <unicode hex="00C3"/>
  <outline>
    <contour>
      <point x="11" y="-11" type="line"/>
      <point x="46" y="-11" type="line"/>
      <point x="198" y="421" type="line" smooth="yes"/>
      <point x="229" y="508"/>
      <point x="255" y="582"/>
      <point x="281" y="671" type="curve"/>
      <point x="286" y="671" type="line"/>
      <point x="312" y="582"/>
      <point x="338" y="508"/>
      <point x="368" y="421" type="curve" smooth="yes"/>
      <point x="519" y="-11" type="line"/>
      <point x="556" y="-11" type="line"/>
      <point x="299" y="708" type="line"/>
      <point x="268" y="708" type="line"/>
    </contour>
    <contour>
      <point x="122" y="246" type="line"/>
      <point x="441" y="246" type="line"/>
      <point x="441" y="277" type="line"/>
      <point x="122" y="277" type="line"/>
    </contour>
    <contour>
      <point x="368" y="776" type="curve" smooth="yes"/>
      <point x="425" y="776"/>
      <point x="456" y="829"/>
      <point x="458" y="892" type="curve"/>
      <point x="432" y="894" type="line"/>
      <point x="425" y="841"/>
      <point x="402" y="807"/>
      <point x="368" y="807" type="curve" smooth="yes"/>
      <point x="305" y="807"/>
      <point x="283" y="896"/>
      <point x="198" y="896" type="curve" smooth="yes"/>
      <point x="142" y="896"/>
      <point x="111" y="842"/>
      <point x="109" y="780" type="curve"/>
      <point x="135" y="778" type="line"/>
      <point x="140" y="830"/>
      <point x="165" y="865"/>
      <point x="198" y="865" type="curve" smooth="yes"/>
      <point x="262" y="865"/>
      <point x="283" y="776"/>
    </contour>
  </outline>
</glyph>
<glyph name="cid40106" format="2">
  <advance height="1000" width="567"/>
  <unicode hex="00C4"/>
  <outline>
    <contour>
      <point x="11" y="-11" type="line"/>
      <point x="46" y="-11" type="line"/>
      <point x="198" y="421" type="line" smooth="yes"/>
      <point x="229" y="508"/>
      <point x="255" y="582"/>
      <point x="281" y="671" type="curve"/>
      <point x="286" y="671" type="line"/>
      <point x="312" y="582"/>
      <point x="338" y="508"/>
      <point x="368" y="421" type="curve" smooth="yes"/>
      <point x="519" y="-11" type="line"/>
      <point x="556" y="-11" type="line"/>
      <point x="299" y="708" type="line"/>
      <point x="268" y="708" type="line"/>
    </contour>
    <contour>
      <point x="122" y="246" type="line"/>
      <point x="441" y="246" type="line"/>
      <point x="441" y="277" type="line"/>
      <point x="122" y="277" type="line"/>
    </contour>
    <contour>
      <point x="179" y="783" type="curve" smooth="yes"/>
      <point x="198" y="783"/>
      <point x="214" y="796"/>
      <point x="214" y="817" type="curve" smooth="yes"/>
      <point x="214" y="839"/>
      <point x="198" y="852"/>
      <point x="179" y="852" type="curve" smooth="yes"/>
      <point x="159" y="852"/>
      <point x="144" y="839"/>
      <point x="144" y="817" type="curve" smooth="yes"/>
      <point x="144" y="796"/>
      <point x="159" y="783"/>
    </contour>
    <contour>
      <point x="388" y="783" type="curve" smooth="yes"/>
      <point x="408" y="783"/>
      <point x="423" y="796"/>
      <point x="423" y="817" type="curve" smooth="yes"/>
      <point x="423" y="839"/>
      <point x="408" y="852"/>
      <point x="388" y="852" type="curve" smooth="yes"/>
      <point x="368" y="852"/>
      <point x="353" y="839"/>
      <point x="353" y="817" type="curve" smooth="yes"/>
      <point x="353" y="796"/>
      <point x="368" y="783"/>
    </contour>
  </outline>
</glyph>
<glyph name="cid40107" format="2">
  <advance height="1000" width="567"/>
  <unicode hex="00C5"/>
  <outline>
    <contour>
      <point x="11" y="-11" type="line"/>
      <point x="46" y="-11" type="line"/>
      <point x="198" y="421" type="line" smooth="yes"/>
      <point x="229" y="508"/>
      <point x="255" y="582"/>
      <point x="281" y="671" type="curve"/>
      <point x="286" y="671" type="line"/>
      <point x="312" y="582"/>
      <point x="338" y="508"/>
      <point x="368" y="421" type="curve" smooth="yes"/>
      <point x="519" y="-11" type="line"/>
      <point x="556" y="-11" type="line"/>
      <point x="299" y="708" type="line"/>
      <point x="268" y="708" type="line"/>
    </contour>
    <contour>
      <point x="122" y="246" type="line"/>
      <point x="441" y="246" type="line"/>
      <point x="441" y="277" type="line"/>
      <point x="122" y="277" type="line"/>
    </contour>
    <contour>
      <point x="283" y="752" type="curve" smooth="yes"/>
      <point x="342" y="752"/>
      <point x="386" y="787"/>
      <point x="386" y="844" type="curve" smooth="yes"/>
      <point x="386" y="900"/>
      <point x="342" y="935"/>
      <point x="283" y="935" type="curve" smooth="yes"/>
      <point x="225" y="935"/>
      <point x="181" y="900"/>
      <point x="181" y="844" type="curve" smooth="yes"/>
      <point x="181" y="787"/>
      <point x="225" y="752"/>
    </contour>
    <contour>
      <point x="283" y="776" type="curve" smooth="yes"/>
      <point x="242" y="776"/>
      <point x="209" y="798"/>
      <point x="209" y="844" type="curve" smooth="yes"/>
      <point x="209" y="889"/>
      <point x="242" y="911"/>
      <point x="283" y="911" type="curve" smooth="yes"/>
      <point x="325" y="911"/>
      <point x="358" y="889"/>
      <point x="358" y="844" type="curve" smooth="yes"/>
      <point x="358" y="798"/>
      <point x="325" y="776"/>
    </contour>
  </outline>
</glyph>
<glyph name="cid40182" format="2">
  <advance height="1000" width="556"/>
  <unicode hex="00C8"/>
  <outline>
    <contour>
      <point x="109" y="-11" type="line"/>
      <point x="506" y="-11" type="line"/>
      <point x="506" y="20" type="line"/>
      <point x="144" y="20" type="line"/>
      <point x="144" y="357" type="line"/>
      <point x="438" y="357" type="line"/>
      <point x="438" y="388" type="line"/>
      <point x="144" y="388" type="line"/>
      <point x="144" y="678" type="line"/>
      <point x="495" y="678" type="line"/>
      <point x="495" y="708" type="line"/>
      <point x="109" y="708" type="line"/>
    </contour>
    <contour>
      <point x="353" y="763" type="line"/>
      <point x="392" y="763" type="line"/>
      <point x="240" y="894" type="line"/>
      <point x="187" y="894" type="line"/>
      <point x="185" y="889" type="line"/>
    </contour>
  </outline>
</glyph>
<glyph name="cid40188" format="2">
  <advance height="1000" width="556"/>
  <unicode hex="00CB"/>
  <outline>
    <contour>
      <point x="109" y="-11" type="line"/>
      <point x="506" y="-11" type="line"/>
      <point x="506" y="20" type="line"/>
      <point x="144" y="20" type="line"/>
      <point x="144" y="357" type="line"/>
      <point x="438" y="357" type="line"/>
      <point x="438" y="388" type="line"/>
      <point x="144" y="388" type="line"/>
      <point x="144" y="678" type="line"/>
      <point x="495" y="678" type="line"/>
      <point x="495" y="708" type="line"/>
      <point x="109" y="708" type="line"/>
    </contour>
    <contour>
      <point x="211" y="783" type="curve" smooth="yes"/>
      <point x="231" y="783"/>
      <point x="246" y="796"/>
      <point x="246" y="817" type="curve" smooth="yes"/>
      <point x="246" y="839"/>
      <point x="231" y="852"/>
      <point x="211" y="852" type="curve" smooth="yes"/>
      <point x="192" y="852"/>
      <point x="177" y="839"/>
      <point x="177" y="817" type="curve" smooth="yes"/>
      <point x="177" y="796"/>
      <point x="192" y="783"/>
    </contour>
    <contour>
      <point x="421" y="783" type="curve" smooth="yes"/>
      <point x="440" y="783"/>
      <point x="456" y="796"/>
      <point x="456" y="817" type="curve" smooth="yes"/>
      <point x="456" y="839"/>
      <point x="440" y="852"/>
      <point x="421" y="852" type="curve" smooth="yes"/>
      <point x="401" y="852"/>
      <point x="386" y="839"/>
      <point x="386" y="817" type="curve" smooth="yes"/>
      <point x="386" y="796"/>
      <point x="401" y="783"/>
    </contour>
  </outline>
</glyph>
<glyph name="cid40250" format="2">
  <advance height="1000" width="253"/>
  <unicode hex="00CD"/>
  <outline>
    <contour>
      <point x="109" y="-11" type="line"/>
      <point x="144" y="-11" type="line"/>
      <point x="144" y="708" type="line"/>
      <point x="109" y="708" type="line"/>
    </contour>
    <contour>
      <point x="50" y="763" type="line"/>
      <point x="89" y="763" type="line"/>
      <point x="257" y="889" type="line"/>
      <point x="255" y="894" type="line"/>
      <point x="203" y="894" type="line"/>
    </contour>
  </outline>
</glyph>
<glyph name="cid40251" format="2">
  <advance height="1000" width="253"/>
  <unicode hex="00CE"/>
  <outline>
    <contour>
      <point x="109" y="-11" type="line"/>
      <point x="144" y="-11" type="line"/>
      <point x="144" y="708" type="line"/>
      <point x="109" y="708" type="line"/>
    </contour>
    <contour>
      <point x="-37" y="763" type="line"/>
      <point x="0" y="763" type="line"/>
      <point x="124" y="861" type="line"/>
      <point x="129" y="861" type="line"/>
      <point x="253" y="763" type="line"/>
      <point x="290" y="763" type="line"/>
      <point x="137" y="894" type="line"/>
      <point x="116" y="894" type="line"/>
    </contour>
  </outline>
</glyph>
<glyph name="cid40482" format="2">
  <advance height="1000" width="676"/>
  <unicode hex="00D0"/>
  <outline>
    <contour>
      <point x="24" y="357" type="line"/>
      <point x="349" y="357" type="line"/>
      <point x="349" y="388" type="line"/>
      <point x="133" y="388" type="line"/>
      <point x="24" y="384" type="line"/>
    </contour>
    <contour>
      <point x="131" y="-11" type="line"/>
      <point x="292" y="-11" type="line" smooth="yes"/>
      <point x="514" y="-11"/>
      <point x="615" y="137"/>
      <point x="615" y="351" type="curve" smooth="yes"/>
      <point x="615" y="565"/>
      <point x="514" y="708"/>
      <point x="292" y="708" type="curve" smooth="yes"/>
      <point x="131" y="708" type="line"/>
    </contour>
    <contour>
      <point x="166" y="20" type="line"/>
      <point x="166" y="678" type="line"/>
      <point x="288" y="678" type="line" smooth="yes"/>
      <point x="493" y="678"/>
      <point x="578" y="541"/>
      <point x="578" y="351" type="curve" smooth="yes"/>
      <point x="578" y="161"/>
      <point x="493" y="20"/>
      <point x="288" y="20" type="curve" smooth="yes"/>
    </contour>
  </outline>
</glyph>
<glyph name="cid40307" format="2">
  <advance height="1000" width="689"/>
  <unicode hex="00D1"/>
  <outline>
    <contour>
      <point x="109" y="-11" type="line"/>
      <point x="142" y="-11" type="line"/>
      <point x="142" y="462" type="line" smooth="yes"/>
      <point x="142" y="530"/>
      <point x="140" y="591"/>
      <point x="137" y="658" type="curve"/>
      <point x="142" y="658" type="line"/>
      <point x="168" y="612"/>
      <point x="196" y="565"/>
      <point x="225" y="517" type="curve" smooth="yes"/>
      <point x="543" y="-11" type="line"/>
      <point x="580" y="-11" type="line"/>
      <point x="580" y="708" type="line"/>
      <point x="547" y="708" type="line"/>
      <point x="547" y="242" type="line" smooth="yes"/>
      <point x="547" y="174"/>
      <point x="549" y="109"/>
      <point x="552" y="39" type="curve"/>
      <point x="547" y="39" type="line"/>
      <point x="521" y="85"/>
      <point x="493" y="133"/>
      <point x="464" y="181" type="curve" smooth="yes"/>
      <point x="146" y="708" type="line"/>
      <point x="109" y="708" type="line"/>
    </contour>
    <contour>
      <point x="445" y="776" type="curve" smooth="yes"/>
      <point x="501" y="776"/>
      <point x="532" y="829"/>
      <point x="534" y="892" type="curve"/>
      <point x="508" y="894" type="line"/>
      <point x="501" y="841"/>
      <point x="479" y="807"/>
      <point x="445" y="807" type="curve" smooth="yes"/>
      <point x="382" y="807"/>
      <point x="360" y="896"/>
      <point x="275" y="896" type="curve" smooth="yes"/>
      <point x="218" y="896"/>
      <point x="187" y="842"/>
      <point x="185" y="780" type="curve"/>
      <point x="211" y="778" type="line"/>
      <point x="216" y="830"/>
      <point x="241" y="865"/>
      <point x="275" y="865" type="curve" smooth="yes"/>
      <point x="338" y="865"/>
      <point x="360" y="776"/>
    </contour>
  </outline>
</glyph>
<glyph name="cid40318" format="2">
  <advance height="1000" width="706"/>
  <unicode hex="00D3"/>
  <outline>
    <contour>
      <point x="353" y="-24" type="curve" smooth="yes"/>
      <point x="523" y="-24"/>
      <point x="645" y="124"/>
      <point x="645" y="351" type="curve" smooth="yes"/>
      <point x="645" y="578"/>
      <point x="523" y="721"/>
      <point x="353" y="721" type="curve" smooth="yes"/>
      <point x="183" y="721"/>
      <point x="61" y="578"/>
      <point x="61" y="351" type="curve" smooth="yes"/>
      <point x="61" y="124"/>
      <point x="183" y="-24"/>
    </contour>
    <contour>
      <point x="353" y="9" type="curve" smooth="yes"/>
      <point x="201" y="9"/>
      <point x="98" y="144"/>
      <point x="98" y="351" type="curve" smooth="yes"/>
      <point x="98" y="558"/>
      <point x="201" y="689"/>
      <point x="353" y="689" type="curve" smooth="yes"/>
      <point x="506" y="689"/>
      <point x="608" y="558"/>
      <point x="608" y="351" type="curve" smooth="yes"/>
      <point x="608" y="144"/>
      <point x="506" y="9"/>
    </contour>
    <contour>
      <point x="277" y="763" type="line"/>
      <point x="316" y="763" type="line"/>
      <point x="484" y="889" type="line"/>
      <point x="482" y="894" type="line"/>
      <point x="429" y="894" type="line"/>
    </contour>
  </outline>
</glyph>
<glyph name="cid40321" format="2">
  <advance height="1000" width="706"/>
  <unicode hex="00D5"/>
  <outline>
    <contour>
      <point x="353" y="-24" type="curve" smooth="yes"/>
      <point x="523" y="-24"/>
      <point x="645" y="124"/>
      <point x="645" y="351" type="curve" smooth="yes"/>
      <point x="645" y="578"/>
      <point x="523" y="721"/>
      <point x="353" y="721" type="curve" smooth="yes"/>
      <point x="183" y="721"/>
      <point x="61" y="578"/>
      <point x="61" y="351" type="curve" smooth="yes"/>
      <point x="61" y="124"/>
      <point x="183" y="-24"/>
    </contour>
    <contour>
      <point x="353" y="9" type="curve" smooth="yes"/>
      <point x="201" y="9"/>
      <point x="98" y="144"/>
      <point x="98" y="351" type="curve" smooth="yes"/>
      <point x="98" y="558"/>
      <point x="201" y="689"/>
      <point x="353" y="689" type="curve" smooth="yes"/>
      <point x="506" y="689"/>
      <point x="608" y="558"/>
      <point x="608" y="351" type="curve" smooth="yes"/>
      <point x="608" y="144"/>
      <point x="506" y="9"/>
    </contour>
    <contour>
      <point x="438" y="776" type="curve" smooth="yes"/>
      <point x="495" y="776"/>
      <point x="525" y="829"/>
      <point x="528" y="892" type="curve"/>
      <point x="501" y="894" type="line"/>
      <point x="495" y="841"/>
      <point x="472" y="807"/>
      <point x="438" y="807" type="curve" smooth="yes"/>
      <point x="375" y="807"/>
      <point x="353" y="896"/>
      <point x="268" y="896" type="curve" smooth="yes"/>
      <point x="211" y="896"/>
      <point x="181" y="842"/>
      <point x="179" y="780" type="curve"/>
      <point x="205" y="778" type="line"/>
      <point x="209" y="830"/>
      <point x="234" y="865"/>
      <point x="268" y="865" type="curve" smooth="yes"/>
      <point x="331" y="865"/>
      <point x="353" y="776"/>
    </contour>
  </outline>
</glyph>
<glyph name="cid40325" format="2">
  <advance height="1000" width="706"/>
  <unicode hex="00D6"/>
  <outline>
    <contour>
      <point x="353" y="-24" type="curve" smooth="yes"/>
      <point x="523" y="-24"/>
      <point x="645" y="124"/>
      <point x="645" y="351" type="curve" smooth="yes"/>
      <point x="645" y="578"/>
      <point x="523" y="721"/>
      <point x="353" y="721" type="curve" smooth="yes"/>
      <point x="183" y="721"/>
      <point x="61" y="578"/>
      <point x="61" y="351" type="curve" smooth="yes"/>
      <point x="61" y="124"/>
      <point x="183" y="-24"/>
    </contour>
    <contour>
      <point x="353" y="9" type="curve" smooth="yes"/>
      <point x="201" y="9"/>
      <point x="98" y="144"/>
      <point x="98" y="351" type="curve" smooth="yes"/>
      <point x="98" y="558"/>
      <point x="201" y="689"/>
      <point x="353" y="689" type="curve" smooth="yes"/>
      <point x="506" y="689"/>
      <point x="608" y="558"/>
      <point x="608" y="351" type="curve" smooth="yes"/>
      <point x="608" y="144"/>
      <point x="506" y="9"/>
    </contour>
    <contour>
      <point x="249" y="783" type="curve" smooth="yes"/>
      <point x="268" y="783"/>
      <point x="283" y="796"/>
      <point x="283" y="817" type="curve" smooth="yes"/>
      <point x="283" y="839"/>
      <point x="268" y="852"/>
      <point x="249" y="852" type="curve" smooth="yes"/>
      <point x="229" y="852"/>
      <point x="214" y="839"/>
      <point x="214" y="817" type="curve" smooth="yes"/>
      <point x="214" y="796"/>
      <point x="229" y="783"/>
    </contour>
    <contour>
      <point x="458" y="783" type="curve" smooth="yes"/>
      <point x="477" y="783"/>
      <point x="493" y="796"/>
      <point x="493" y="817" type="curve" smooth="yes"/>
      <point x="493" y="839"/>
      <point x="477" y="852"/>
      <point x="458" y="852" type="curve" smooth="yes"/>
      <point x="438" y="852"/>
      <point x="423" y="839"/>
      <point x="423" y="817" type="curve" smooth="yes"/>
      <point x="423" y="796"/>
      <point x="438" y="783"/>
    </contour>
  </outline>
</glyph>
<glyph name="cid40351" format="2">
  <advance height="1000" width="706"/>
  <unicode hex="00D8"/>
  <outline>
    <contour>
      <point x="87" y="-33" type="line"/>
      <point x="639" y="713" type="line"/>
      <point x="615" y="730" type="line"/>
      <point x="63" y="-15" type="line"/>
    </contour>
    <contour>
      <point x="358" y="-24" type="curve" smooth="yes"/>
      <point x="528" y="-24"/>
      <point x="650" y="124"/>
      <point x="650" y="351" type="curve" smooth="yes"/>
      <point x="650" y="578"/>
      <point x="528" y="721"/>
      <point x="358" y="721" type="curve" smooth="yes"/>
      <point x="187" y="721"/>
      <point x="65" y="578"/>
      <point x="65" y="351" type="curve" smooth="yes"/>
      <point x="65" y="124"/>
      <point x="187" y="-24"/>
    </contour>
    <contour>
      <point x="358" y="9" type="curve" smooth="yes"/>
      <point x="205" y="9"/>
      <point x="102" y="144"/>
      <point x="102" y="351" type="curve" smooth="yes"/>
      <point x="102" y="558"/>
      <point x="205" y="689"/>
      <point x="358" y="689" type="curve" smooth="yes"/>
      <point x="510" y="689"/>
      <point x="613" y="558"/>
      <point x="613" y="351" type="curve" smooth="yes"/>
      <point x="613" y="144"/>
      <point x="510" y="9"/>
    </contour>
  </outline>
</glyph>
<glyph name="cid40418" format="2">
  <advance height="1000" width="687"/>
  <unicode hex="00DA"/>
  <outline>
    <contour>
      <point x="342" y="-24" type="curve" smooth="yes"/>
      <point x="458" y="-24"/>
      <point x="580" y="35"/>
      <point x="580" y="257" type="curve" smooth="yes"/>
      <point x="580" y="708" type="line"/>
      <point x="547" y="708" type="line"/>
      <point x="547" y="266" type="line" smooth="yes"/>
      <point x="547" y="67"/>
      <point x="449" y="9"/>
      <point x="342" y="9" type="curve" smooth="yes"/>
      <point x="238" y="9"/>
      <point x="142" y="67"/>
      <point x="142" y="266" type="curve" smooth="yes"/>
      <point x="142" y="708" type="line"/>
      <point x="107" y="708" type="line"/>
      <point x="107" y="257" type="line" smooth="yes"/>
      <point x="107" y="35"/>
      <point x="227" y="-24"/>
    </contour>
    <contour>
      <point x="266" y="763" type="line"/>
      <point x="305" y="763" type="line"/>
      <point x="473" y="889" type="line"/>
      <point x="471" y="894" type="line"/>
      <point x="419" y="894" type="line"/>
    </contour>
  </outline>
</glyph>
<glyph name="cid40420" format="2">
  <advance height="1000" width="687"/>
  <unicode hex="00DB"/>
  <outline>
    <contour>
      <point x="342" y="-24" type="curve" smooth="yes"/>
      <point x="458" y="-24"/>
      <point x="580" y="35"/>
      <point x="580" y="257" type="curve" smooth="yes"/>
      <point x="580" y="708" type="line"/>
      <point x="547" y="708" type="line"/>
      <point x="547" y="266" type="line" smooth="yes"/>
      <point x="547" y="67"/>
      <point x="449" y="9"/>
      <point x="342" y="9" type="curve" smooth="yes"/>
      <point x="238" y="9"/>
      <point x="142" y="67"/>
      <point x="142" y="266" type="curve" smooth="yes"/>
      <point x="142" y="708" type="line"/>
      <point x="107" y="708" type="line"/>
      <point x="107" y="257" type="line" smooth="yes"/>
      <point x="107" y="35"/>
      <point x="227" y="-24"/>
    </contour>
    <contour>
      <point x="179" y="763" type="line"/>
      <point x="216" y="763" type="line"/>
      <point x="340" y="861" type="line"/>
      <point x="344" y="861" type="line"/>
      <point x="469" y="763" type="line"/>
      <point x="506" y="763" type="line"/>
      <point x="353" y="894" type="line"/>
      <point x="331" y="894" type="line"/>
    </contour>
  </outline>
</glyph>
<glyph name="cid40483" format="2">
  <advance height="1000" width="606"/>
  <unicode hex="00DE"/>
  <outline>
    <contour>
      <point x="109" y="-11" type="line"/>
      <point x="144" y="-11" type="line"/>
      <point x="144" y="176" type="line"/>
      <point x="296" y="176" type="line" smooth="yes"/>
      <point x="458" y="176"/>
      <point x="549" y="244"/>
      <point x="549" y="381" type="curve" smooth="yes"/>
      <point x="549" y="525"/>
      <point x="458" y="578"/>
      <point x="296" y="578" type="curve" smooth="yes"/>
      <point x="144" y="578" type="line"/>
      <point x="144" y="708" type="line"/>
      <point x="109" y="708" type="line"/>
    </contour>
    <contour>
      <point x="144" y="207" type="line"/>
      <point x="144" y="547" type="line"/>
      <point x="283" y="547" type="line" smooth="yes"/>
      <point x="438" y="547"/>
      <point x="512" y="508"/>
      <point x="512" y="381" type="curve" smooth="yes"/>
      <point x="512" y="257"/>
      <point x="438" y="207"/>
      <point x="283" y="207" type="curve" smooth="yes"/>
    </contour>
  </outline>
</glyph>
<glyph name="cid40945" format="2">
  <advance height="1000" width="578"/>
  <unicode hex="00DF"/>
  <outline>
    <contour>
      <point x="392" y="-24" type="curve" smooth="yes"/>
      <point x="480" y="-24"/>
      <point x="545" y="39"/>
      <point x="545" y="124" type="curve" smooth="yes"/>
      <point x="545" y="309"/>
      <point x="323" y="268"/>
      <point x="323" y="401" type="curve" smooth="yes"/>
      <point x="323" y="493"/>
      <point x="445" y="532"/>
      <point x="445" y="645" type="curve" smooth="yes"/>
      <point x="445" y="726"/>
      <point x="386" y="787"/>
      <point x="292" y="787" type="curve" smooth="yes"/>
      <point x="181" y="787"/>
      <point x="105" y="708"/>
      <point x="105" y="575" type="curve" smooth="yes"/>
      <point x="105" y="-11" type="line"/>
      <point x="137" y="-11" type="line"/>
      <point x="137" y="560" type="line" smooth="yes"/>
      <point x="137" y="695"/>
      <point x="198" y="756"/>
      <point x="290" y="756" type="curve" smooth="yes"/>
      <point x="368" y="756"/>
      <point x="410" y="708"/>
      <point x="410" y="643" type="curve" smooth="yes"/>
      <point x="410" y="543"/>
      <point x="288" y="508"/>
      <point x="288" y="399" type="curve" smooth="yes"/>
      <point x="288" y="240"/>
      <point x="510" y="283"/>
      <point x="510" y="122" type="curve" smooth="yes"/>
      <point x="510" y="63"/>
      <point x="471" y="6"/>
      <point x="392" y="6" type="curve" smooth="yes"/>
      <point x="344" y="6"/>
      <point x="305" y="20"/>
      <point x="266" y="54" type="curve"/>
      <point x="246" y="33" type="line"/>
      <point x="286" y="-7"/>
      <point x="336" y="-24"/>
    </contour>
  </outline>
</glyph>
<glyph name="cid40538" format="2">
  <advance height="1000" width="530"/>
  <unicode hex="00E3"/>
  <outline>
    <contour>
      <point x="216" y="-24" type="curve" smooth="yes"/>
      <point x="286" y="-24"/>
      <point x="351" y="15"/>
      <point x="405" y="59" type="curve"/>
      <point x="408" y="59" type="line"/>
      <point x="412" y="-11" type="line"/>
      <point x="440" y="-11" type="line"/>
      <point x="440" y="327" type="line" smooth="yes"/>
      <point x="440" y="432"/>
      <point x="403" y="523"/>
      <point x="281" y="523" type="curve" smooth="yes"/>
      <point x="196" y="523"/>
      <point x="124" y="482"/>
      <point x="92" y="456" type="curve"/>
      <point x="109" y="432" type="line"/>
      <point x="142" y="456"/>
      <point x="205" y="493"/>
      <point x="279" y="493" type="curve" smooth="yes"/>
      <point x="388" y="493"/>
      <point x="410" y="399"/>
      <point x="408" y="314" type="curve"/>
      <point x="172" y="288"/>
      <point x="65" y="233"/>
      <point x="65" y="117" type="curve" smooth="yes"/>
      <point x="65" y="17"/>
      <point x="135" y="-24"/>
    </contour>
    <contour>
      <point x="218" y="6" type="curve" smooth="yes"/>
      <point x="155" y="6"/>
      <point x="100" y="37"/>
      <point x="100" y="118" type="curve" smooth="yes"/>
      <point x="100" y="207"/>
      <point x="179" y="259"/>
      <point x="408" y="285" type="curve"/>
      <point x="408" y="96" type="line"/>
      <point x="338" y="37"/>
      <point x="281" y="6"/>
    </contour>
    <contour>
      <point x="367" y="621" type="curve" smooth="yes"/>
      <point x="436" y="621"/>
      <point x="453" y="693"/>
      <point x="458" y="754" type="curve"/>
      <point x="429" y="756" type="line"/>
      <point x="427" y="700"/>
      <point x="410" y="650"/>
      <point x="370" y="650" type="curve" smooth="yes"/>
      <point x="305" y="650"/>
      <point x="283" y="759"/>
      <point x="201" y="759" type="curve" smooth="yes"/>
      <point x="131" y="759"/>
      <point x="113" y="688"/>
      <point x="109" y="626" type="curve"/>
      <point x="137" y="623" type="line"/>
      <point x="140" y="682"/>
      <point x="157" y="730"/>
      <point x="198" y="730" type="curve" smooth="yes"/>
      <point x="262" y="730"/>
      <point x="283" y="621"/>
    </contour>
  </outline>
</glyph>
<glyph name="cid40541" format="2">
  <advance height="1000" width="530"/>
  <unicode hex="00E5"/>
  <outline>
    <contour>
      <point x="216" y="-24" type="curve" smooth="yes"/>
      <point x="286" y="-24"/>
      <point x="351" y="15"/>
      <point x="405" y="59" type="curve"/>
      <point x="408" y="59" type="line"/>
      <point x="412" y="-11" type="line"/>
      <point x="440" y="-11" type="line"/>
      <point x="440" y="327" type="line" smooth="yes"/>
      <point x="440" y="432"/>
      <point x="403" y="523"/>
      <point x="281" y="523" type="curve" smooth="yes"/>
      <point x="196" y="523"/>
      <point x="124" y="482"/>
      <point x="92" y="456" type="curve"/>
      <point x="109" y="432" type="line"/>
      <point x="142" y="456"/>
      <point x="205" y="493"/>
      <point x="279" y="493" type="curve" smooth="yes"/>
      <point x="388" y="493"/>
      <point x="410" y="399"/>
      <point x="408" y="314" type="curve"/>
      <point x="172" y="288"/>
      <point x="65" y="233"/>
      <point x="65" y="117" type="curve" smooth="yes"/>
      <point x="65" y="17"/>
      <point x="135" y="-24"/>
    </contour>
    <contour>
      <point x="218" y="6" type="curve" smooth="yes"/>
      <point x="155" y="6"/>
      <point x="100" y="37"/>
      <point x="100" y="118" type="curve" smooth="yes"/>
      <point x="100" y="207"/>
      <point x="179" y="259"/>
      <point x="408" y="285" type="curve"/>
      <point x="408" y="96" type="line"/>
      <point x="338" y="37"/>
      <point x="281" y="6"/>
    </contour>
    <contour>
      <point x="283" y="584" type="curve" smooth="yes"/>
      <point x="340" y="584"/>
      <point x="384" y="626"/>
      <point x="384" y="687" type="curve" smooth="yes"/>
      <point x="384" y="748"/>
      <point x="340" y="789"/>
      <point x="283" y="789" type="curve" smooth="yes"/>
      <point x="227" y="789"/>
      <point x="183" y="748"/>
      <point x="183" y="687" type="curve" smooth="yes"/>
      <point x="183" y="626"/>
      <point x="227" y="584"/>
    </contour>
    <contour>
      <point x="283" y="608" type="curve" smooth="yes"/>
      <point x="242" y="608"/>
      <point x="209" y="639"/>
      <point x="209" y="687" type="curve" smooth="yes"/>
      <point x="209" y="735"/>
      <point x="242" y="765"/>
      <point x="283" y="765" type="curve" smooth="yes"/>
      <point x="325" y="765"/>
      <point x="358" y="735"/>
      <point x="358" y="687" type="curve" smooth="yes"/>
      <point x="358" y="639"/>
      <point x="325" y="608"/>
    </contour>
  </outline>
</glyph>
<glyph name="cid40573" format="2">
  <advance height="1000" width="846"/>
  <unicode hex="00E6"/>
  <outline>
    <contour>
      <point x="216" y="-24" type="curve" smooth="yes"/>
      <point x="281" y="-24"/>
      <point x="371" y="20"/>
      <point x="438" y="87" type="curve"/>
      <point x="475" y="33"/>
      <point x="530" y="-24"/>
      <point x="626" y="-24" type="curve" smooth="yes"/>
      <point x="704" y="-24"/>
      <point x="743" y="-2"/>
      <point x="783" y="26" type="curve"/>
      <point x="767" y="50" type="line"/>
      <point x="730" y="22"/>
      <point x="687" y="6"/>
      <point x="628" y="6" type="curve" smooth="yes"/>
      <point x="517" y="6"/>
      <point x="432" y="109"/>
      <point x="434" y="248" type="curve"/>
      <point x="802" y="248" type="line"/>
      <point x="804" y="262"/>
      <point x="804" y="272"/>
      <point x="804" y="283" type="curve" smooth="yes"/>
      <point x="804" y="438"/>
      <point x="732" y="523"/>
      <point x="613" y="523" type="curve" smooth="yes"/>
      <point x="534" y="523"/>
      <point x="464" y="469"/>
      <point x="427" y="386" type="curve"/>
      <point x="412" y="469"/>
      <point x="362" y="523"/>
      <point x="275" y="523" type="curve" smooth="yes"/>
      <point x="196" y="523"/>
      <point x="124" y="482"/>
      <point x="92" y="456" type="curve"/>
      <point x="109" y="432" type="line"/>
      <point x="142" y="456"/>
      <point x="205" y="493"/>
      <point x="273" y="493" type="curve" smooth="yes"/>
      <point x="382" y="493"/>
      <point x="403" y="399"/>
      <point x="401" y="314" type="curve"/>
      <point x="174" y="288"/>
      <point x="65" y="233"/>
      <point x="65" y="115" type="curve" smooth="yes"/>
      <point x="65" y="17"/>
      <point x="135" y="-24"/>
    </contour>
    <contour>
      <point x="218" y="6" type="curve" smooth="yes"/>
      <point x="155" y="6"/>
      <point x="100" y="37"/>
      <point x="100" y="118" type="curve" smooth="yes"/>
      <point x="100" y="207"/>
      <point x="183" y="259"/>
      <point x="401" y="285" type="curve"/>
      <point x="401" y="255" type="line" smooth="yes"/>
      <point x="401" y="203"/>
      <point x="410" y="148"/>
      <point x="425" y="115" type="curve"/>
      <point x="362" y="46"/>
      <point x="277" y="6"/>
    </contour>
    <contour>
      <point x="434" y="277" type="line"/>
      <point x="445" y="403"/>
      <point x="521" y="493"/>
      <point x="613" y="493" type="curve" smooth="yes"/>
      <point x="711" y="493"/>
      <point x="772" y="421"/>
      <point x="772" y="277" type="curve"/>
    </contour>
  </outline>
</glyph>
<glyph name="cid40585" format="2">
  <advance height="1000" width="486"/>
  <unicode hex="00E7"/>
  <outline>
    <contour>
      <point x="292" y="-24" type="curve" smooth="yes"/>
      <point x="360" y="-24"/>
      <point x="414" y="4"/>
      <point x="458" y="48" type="curve"/>
      <point x="438" y="67" type="line"/>
      <point x="403" y="32"/>
      <point x="351" y="6"/>
      <point x="292" y="6" type="curve" smooth="yes"/>
      <point x="172" y="6"/>
      <point x="94" y="105"/>
      <point x="94" y="248" type="curve" smooth="yes"/>
      <point x="94" y="392"/>
      <point x="181" y="493"/>
      <point x="292" y="493" type="curve" smooth="yes"/>
      <point x="349" y="493"/>
      <point x="392" y="471"/>
      <point x="425" y="438" type="curve"/>
      <point x="445" y="458" type="line"/>
      <point x="410" y="495"/>
      <point x="364" y="523"/>
      <point x="292" y="523" type="curve" smooth="yes"/>
      <point x="168" y="523"/>
      <point x="59" y="423"/>
      <point x="59" y="248" type="curve" smooth="yes"/>
      <point x="59" y="76"/>
      <point x="159" y="-24"/>
    </contour>
    <contour>
      <point x="214" y="-246" type="line"/>
      <point x="312" y="-240"/>
      <point x="364" y="-212"/>
      <point x="364" y="-157" type="curve" smooth="yes"/>
      <point x="364" y="-113"/>
      <point x="334" y="-94"/>
      <point x="288" y="-83" type="curve"/>
      <point x="320" y="-9" type="line"/>
      <point x="290" y="-9" type="line"/>
      <point x="246" y="-103" type="line"/>
      <point x="305" y="-111"/>
      <point x="331" y="-127"/>
      <point x="331" y="-159" type="curve" smooth="yes"/>
      <point x="331" y="-192"/>
      <point x="303" y="-212"/>
      <point x="207" y="-218" type="curve"/>
    </contour>
  </outline>
</glyph>
<glyph name="cid40736" format="2">
  <advance height="1000" width="242"/>
  <unicode hex="00EE"/>
  <outline>
    <contour>
      <point x="105" y="-11" type="line"/>
      <point x="137" y="-11" type="line"/>
      <point x="137" y="510" type="line"/>
      <point x="105" y="510" type="line"/>
    </contour>
    <contour>
      <point x="-44" y="610" type="line"/>
      <point x="-11" y="610" type="line"/>
      <point x="118" y="737" type="line"/>
      <point x="122" y="737" type="line"/>
      <point x="251" y="610" type="line"/>
      <point x="283" y="610" type="line"/>
      <point x="131" y="774" type="line"/>
      <point x="109" y="774" type="line"/>
    </contour>
  </outline>
</glyph>
<glyph name="cid40743" format="2">
  <advance height="1000" width="242"/>
  <unicode hex="00EF"/>
  <outline>
    <contour>
      <point x="105" y="-11" type="line"/>
      <point x="137" y="-11" type="line"/>
      <point x="137" y="510" type="line"/>
      <point x="105" y="510" type="line"/>
    </contour>
    <contour>
      <point x="26" y="645" type="curve" smooth="yes"/>
      <point x="46" y="645"/>
      <point x="61" y="660"/>
      <point x="61" y="680" type="curve" smooth="yes"/>
      <point x="61" y="700"/>
      <point x="46" y="715"/>
      <point x="26" y="715" type="curve" smooth="yes"/>
      <point x="7" y="715"/>
      <point x="-9" y="700"/>
      <point x="-9" y="680" type="curve" smooth="yes"/>
      <point x="-9" y="660"/>
      <point x="7" y="645"/>
    </contour>
    <contour>
      <point x="214" y="645" type="curve" smooth="yes"/>
      <point x="233" y="645"/>
      <point x="249" y="660"/>
      <point x="249" y="680" type="curve" smooth="yes"/>
      <point x="249" y="700"/>
      <point x="233" y="715"/>
      <point x="214" y="715" type="curve" smooth="yes"/>
      <point x="194" y="715"/>
      <point x="179" y="700"/>
      <point x="179" y="680" type="curve" smooth="yes"/>
      <point x="179" y="660"/>
      <point x="194" y="645"/>
    </contour>
  </outline>
</glyph>
<glyph name="cid41046" format="2">
  <advance height="1000" width="580"/>
  <unicode hex="00F0"/>
  <outline>
    <contour>
      <point x="290" y="-24" type="curve" smooth="yes"/>
      <point x="416" y="-24"/>
      <point x="506" y="87"/>
      <point x="506" y="262" type="curve" smooth="yes"/>
      <point x="506" y="556"/>
      <point x="347" y="698"/>
      <point x="144" y="778" type="curve"/>
      <point x="129" y="754" type="line"/>
      <point x="323" y="671"/>
      <point x="471" y="547"/>
      <point x="471" y="262" type="curve" smooth="yes"/>
      <point x="471" y="122"/>
      <point x="416" y="6"/>
      <point x="290" y="6" type="curve" smooth="yes"/>
      <point x="187" y="6"/>
      <point x="102" y="98"/>
      <point x="102" y="227" type="curve" smooth="yes"/>
      <point x="102" y="338"/>
      <point x="167" y="438"/>
      <point x="292" y="438" type="curve" smooth="yes"/>
      <point x="351" y="438"/>
      <point x="412" y="418"/>
      <point x="473" y="325" type="curve"/>
      <point x="473" y="366" type="line"/>
      <point x="427" y="434"/>
      <point x="364" y="469"/>
      <point x="294" y="469" type="curve" smooth="yes"/>
      <point x="157" y="469"/>
      <point x="68" y="368"/>
      <point x="68" y="227" type="curve" smooth="yes"/>
      <point x="68" y="70"/>
      <point x="177" y="-24"/>
    </contour>
    <contour>
      <point x="155" y="556" type="line"/>
      <point x="484" y="728" type="line"/>
      <point x="471" y="752" type="line"/>
      <point x="142" y="580" type="line"/>
    </contour>
  </outline>
</glyph>
<glyph name="cid40849" format="2">
  <advance height="1000" width="580"/>
  <unicode hex="00F3"/>
  <outline>
    <contour>
      <point x="290" y="-24" type="curve" smooth="yes"/>
      <point x="414" y="-24"/>
      <point x="521" y="76"/>
      <point x="521" y="248" type="curve" smooth="yes"/>
      <point x="521" y="423"/>
      <point x="414" y="523"/>
      <point x="290" y="523" type="curve" smooth="yes"/>
      <point x="166" y="523"/>
      <point x="59" y="423"/>
      <point x="59" y="248" type="curve" smooth="yes"/>
      <point x="59" y="76"/>
      <point x="166" y="-24"/>
    </contour>
    <contour>
      <point x="290" y="6" type="curve" smooth="yes"/>
      <point x="179" y="6"/>
      <point x="94" y="105"/>
      <point x="94" y="248" type="curve" smooth="yes"/>
      <point x="94" y="392"/>
      <point x="179" y="493"/>
      <point x="290" y="493" type="curve" smooth="yes"/>
      <point x="401" y="493"/>
      <point x="486" y="392"/>
      <point x="486" y="248" type="curve" smooth="yes"/>
      <point x="486" y="105"/>
      <point x="401" y="6"/>
    </contour>
    <contour>
      <point x="214" y="610" type="line"/>
      <point x="246" y="610" type="line"/>
      <point x="410" y="769" type="line"/>
      <point x="408" y="774" type="line"/>
      <point x="366" y="774" type="line"/>
    </contour>
  </outline>
</glyph>
<glyph name="cid40854" format="2">
  <advance height="1000" width="580"/>
  <unicode hex="00F5"/>
  <outline>
    <contour>
      <point x="290" y="-24" type="curve" smooth="yes"/>
      <point x="414" y="-24"/>
      <point x="521" y="76"/>
      <point x="521" y="248" type="curve" smooth="yes"/>
      <point x="521" y="423"/>
      <point x="414" y="523"/>
      <point x="290" y="523" type="curve" smooth="yes"/>
      <point x="166" y="523"/>
      <point x="59" y="423"/>
      <point x="59" y="248" type="curve" smooth="yes"/>
      <point x="59" y="76"/>
      <point x="166" y="-24"/>
    </contour>
    <contour>
      <point x="290" y="6" type="curve" smooth="yes"/>
      <point x="179" y="6"/>
      <point x="94" y="105"/>
      <point x="94" y="248" type="curve" smooth="yes"/>
      <point x="94" y="392"/>
      <point x="179" y="493"/>
      <point x="290" y="493" type="curve" smooth="yes"/>
      <point x="401" y="493"/>
      <point x="486" y="392"/>
      <point x="486" y="248" type="curve" smooth="yes"/>
      <point x="486" y="105"/>
      <point x="401" y="6"/>
    </contour>
    <contour>
      <point x="374" y="621" type="curve" smooth="yes"/>
      <point x="443" y="621"/>
      <point x="460" y="693"/>
      <point x="464" y="754" type="curve"/>
      <point x="436" y="756" type="line"/>
      <point x="434" y="700"/>
      <point x="416" y="650"/>
      <point x="376" y="650" type="curve" smooth="yes"/>
      <point x="312" y="650"/>
      <point x="290" y="759"/>
      <point x="207" y="759" type="curve" smooth="yes"/>
      <point x="137" y="759"/>
      <point x="120" y="688"/>
      <point x="116" y="626" type="curve"/>
      <point x="144" y="623" type="line"/>
      <point x="146" y="682"/>
      <point x="164" y="730"/>
      <point x="205" y="730" type="curve" smooth="yes"/>
      <point x="268" y="730"/>
      <point x="290" y="621"/>
    </contour>
  </outline>
</glyph>
<glyph name="cid40858" format="2">
  <advance height="1000" width="580"/>
  <unicode hex="00F6"/>
  <outline>
    <contour>
      <point x="290" y="-24" type="curve" smooth="yes"/>
      <point x="414" y="-24"/>
      <point x="521" y="76"/>
      <point x="521" y="248" type="curve" smooth="yes"/>
      <point x="521" y="423"/>
      <point x="414" y="523"/>
      <point x="290" y="523" type="curve" smooth="yes"/>
      <point x="166" y="523"/>
      <point x="59" y="423"/>
      <point x="59" y="248" type="curve" smooth="yes"/>
      <point x="59" y="76"/>
      <point x="166" y="-24"/>
    </contour>
    <contour>
      <point x="290" y="6" type="curve" smooth="yes"/>
      <point x="179" y="6"/>
      <point x="94" y="105"/>
      <point x="94" y="248" type="curve" smooth="yes"/>
      <point x="94" y="392"/>
      <point x="179" y="493"/>
      <point x="290" y="493" type="curve" smooth="yes"/>
      <point x="401" y="493"/>
      <point x="486" y="392"/>
      <point x="486" y="248" type="curve" smooth="yes"/>
      <point x="486" y="105"/>
      <point x="401" y="6"/>
    </contour>
    <contour>
      <point x="196" y="645" type="curve" smooth="yes"/>
      <point x="216" y="645"/>
      <point x="231" y="660"/>
      <point x="231" y="680" type="curve" smooth="yes"/>
      <point x="231" y="700"/>
      <point x="216" y="715"/>
      <point x="196" y="715" type="curve" smooth="yes"/>
      <point x="177" y="715"/>
      <point x="161" y="700"/>
      <point x="161" y="680" type="curve" smooth="yes"/>
      <point x="161" y="660"/>
      <point x="177" y="645"/>
    </contour>
    <contour>
      <point x="384" y="645" type="curve" smooth="yes"/>
      <point x="403" y="645"/>
      <point x="419" y="660"/>
      <point x="419" y="680" type="curve" smooth="yes"/>
      <point x="419" y="700"/>
      <point x="403" y="715"/>
      <point x="384" y="715" type="curve" smooth="yes"/>
      <point x="364" y="715"/>
      <point x="349" y="700"/>
      <point x="349" y="680" type="curve" smooth="yes"/>
      <point x="349" y="660"/>
      <point x="364" y="645"/>
    </contour>
  </outline>
</glyph>
<glyph name="cid44792" format="2">
  <advance height="1000" width="514"/>
  <unicode hex="00F7"/>
  <outline>
    <contour>
      <point x="37" y="333" type="line"/>
      <point x="477" y="333" type="line"/>
      <point x="477" y="364" type="line"/>
      <point x="37" y="364" type="line"/>
    </contour>
    <contour>
      <point x="257" y="113" type="curve" smooth="yes"/>
      <point x="277" y="113"/>
      <point x="292" y="129"/>
      <point x="292" y="153" type="curve" smooth="yes"/>
      <point x="292" y="174"/>
      <point x="277" y="190"/>
      <point x="257" y="190" type="curve" smooth="yes"/>
      <point x="238" y="190"/>
      <point x="222" y="174"/>
      <point x="222" y="153" type="curve" smooth="yes"/>
      <point x="222" y="129"/>
      <point x="238" y="113"/>
    </contour>
    <contour>
      <point x="257" y="506" type="curve" smooth="yes"/>
      <point x="277" y="506"/>
      <point x="292" y="521"/>
      <point x="292" y="545" type="curve" smooth="yes"/>
      <point x="292" y="567"/>
      <point x="277" y="582"/>
      <point x="257" y="582" type="curve" smooth="yes"/>
      <point x="238" y="582"/>
      <point x="222" y="567"/>
      <point x="222" y="545" type="curve" smooth="yes"/>
      <point x="222" y="521"/>
      <point x="238" y="506"/>
    </contour>
  </outline>
</glyph>
<glyph name="cid41048" format="2">
  <advance height="1000" width="589"/>
  <unicode hex="00FE"/>
  <outline>
    <contour>
      <point x="105" y="-253" type="line"/>
      <point x="137" y="-253" type="line"/>
      <point x="137" y="-57" type="line"/>
      <point x="137" y="41" type="line"/>
      <point x="194" y="0"/>
      <point x="249" y="-24"/>
      <point x="299" y="-24" type="curve" smooth="yes"/>
      <point x="423" y="-24"/>
      <point x="530" y="81"/>
      <point x="530" y="257" type="curve" smooth="yes"/>
      <point x="530" y="418"/>
      <point x="462" y="523"/>
      <point x="320" y="523" type="curve" smooth="yes"/>
      <point x="255" y="523"/>
      <point x="192" y="484"/>
      <point x="137" y="442" type="curve"/>
      <point x="137" y="545" type="line"/>
      <point x="137" y="776" type="line"/>
      <point x="105" y="776" type="line"/>
    </contour>
    <contour>
      <point x="301" y="6" type="curve" smooth="yes"/>
      <point x="259" y="6"/>
      <point x="201" y="26"/>
      <point x="137" y="78" type="curve"/>
      <point x="137" y="401" type="line"/>
      <point x="205" y="460"/>
      <point x="264" y="493"/>
      <point x="318" y="493" type="curve" smooth="yes"/>
      <point x="447" y="493"/>
      <point x="495" y="390"/>
      <point x="495" y="257" type="curve" smooth="yes"/>
      <point x="495" y="111"/>
      <point x="414" y="6"/>
    </contour>
  </outline>
</glyph>
<glyph name="cid41026" format="2">
  <advance height="1000" width="462"/>
  <unicode hex="00FF"/>
  <outline>
    <contour>
      <point x="72" y="-253" type="curve" smooth="yes"/>
      <point x="161" y="-253"/>
      <point x="214" y="-166"/>
      <point x="240" y="-85" type="curve" smooth="yes"/>
      <point x="449" y="510" type="line"/>
      <point x="414" y="510" type="line"/>
      <point x="296" y="168" type="line" smooth="yes"/>
      <point x="281" y="124"/>
      <point x="264" y="67"/>
      <point x="246" y="22" type="curve"/>
      <point x="242" y="22" type="line"/>
      <point x="222" y="67"/>
      <point x="201" y="124"/>
      <point x="183" y="168" type="curve" smooth="yes"/>
      <point x="50" y="510" type="line"/>
      <point x="13" y="510" type="line"/>
      <point x="229" y="-24" type="line"/>
      <point x="214" y="-72" type="line" smooth="yes"/>
      <point x="185" y="-157"/>
      <point x="140" y="-220"/>
      <point x="74" y="-220" type="curve" smooth="yes"/>
      <point x="61" y="-220"/>
      <point x="44" y="-216"/>
      <point x="33" y="-212" type="curve"/>
      <point x="22" y="-242" type="line"/>
      <point x="35" y="-249"/>
      <point x="55" y="-253"/>
    </contour>
    <contour>
      <point x="146" y="645" type="curve" smooth="yes"/>
      <point x="166" y="645"/>
      <point x="181" y="660"/>
      <point x="181" y="680" type="curve" smooth="yes"/>
      <point x="181" y="700"/>
      <point x="166" y="715"/>
      <point x="146" y="715" type="curve" smooth="yes"/>
      <point x="126" y="715"/>
      <point x="111" y="700"/>
      <point x="111" y="680" type="curve" smooth="yes"/>
      <point x="111" y="660"/>
      <point x="126" y="645"/>
    </contour>
    <contour>
      <point x="334" y="645" type="curve" smooth="yes"/>
      <point x="353" y="645"/>
      <point x="368" y="660"/>
      <point x="368" y="680" type="curve" smooth="yes"/>
      <point x="368" y="700"/>
      <point x="353" y="715"/>
      <point x="334" y="715" type="curve" smooth="yes"/>
      <point x="314" y="715"/>
      <point x="299" y="700"/>
      <point x="299" y="680" type="curve" smooth="yes"/>
      <point x="299" y="660"/>
      <point x="314" y="645"/>
    </contour>
  </outline>
</glyph>
<glyph name="cid40116" format="2">
  <advance height="1000" width="567"/>
  <unicode hex="0104"/>
  <outline>
    <contour>
      <point x="532" y="-244" type="curve" smooth="yes"/>
      <point x="565" y="-244"/>
      <point x="593" y="-229"/>
      <point x="610" y="-214" type="curve"/>
      <point x="595" y="-192" type="line"/>
      <point x="576" y="-207"/>
      <point x="558" y="-214"/>
      <point x="534" y="-214" type="curve" smooth="yes"/>
      <point x="501" y="-214"/>
      <point x="469" y="-194"/>
      <point x="469" y="-148" type="curve" smooth="yes"/>
      <point x="469" y="-100"/>
      <point x="509" y="-47"/>
      <point x="556" y="-11" type="curve"/>
      <point x="299" y="708" type="line"/>
      <point x="268" y="708" type="line"/>
      <point x="11" y="-11" type="line"/>
      <point x="46" y="-11" type="line"/>
      <point x="198" y="421" type="line" smooth="yes"/>
      <point x="229" y="508"/>
      <point x="255" y="582"/>
      <point x="281" y="671" type="curve"/>
      <point x="286" y="671" type="line"/>
      <point x="312" y="582"/>
      <point x="338" y="508"/>
      <point x="368" y="421" type="curve" smooth="yes"/>
      <point x="519" y="-11" type="line"/>
      <point x="521" y="-11" type="line"/>
      <point x="479" y="-42"/>
      <point x="436" y="-95"/>
      <point x="436" y="-151" type="curve" smooth="yes"/>
      <point x="436" y="-216"/>
      <point x="480" y="-244"/>
    </contour>
    <contour>
      <point x="122" y="246" type="line"/>
      <point x="443" y="246" type="line"/>
      <point x="443" y="277" type="line"/>
      <point x="122" y="277" type="line"/>
    </contour>
  </outline>
</glyph>
<glyph name="cid40550" format="2">
  <advance height="1000" width="530"/>
  <unicode hex="0105"/>
  <outline>
    <contour>
      <point x="412" y="-242" type="curve" smooth="yes"/>
      <point x="445" y="-242"/>
      <point x="471" y="-227"/>
      <point x="488" y="-212" type="curve"/>
      <point x="473" y="-190" type="line"/>
      <point x="453" y="-205"/>
      <point x="438" y="-212"/>
      <point x="414" y="-212" type="curve" smooth="yes"/>
      <point x="382" y="-212"/>
      <point x="351" y="-192"/>
      <point x="351" y="-146" type="curve" smooth="yes"/>
      <point x="351" y="-98"/>
      <point x="392" y="-42"/>
      <point x="440" y="-11" type="curve"/>
      <point x="440" y="327" type="line" smooth="yes"/>
      <point x="440" y="432"/>
      <point x="403" y="523"/>
      <point x="281" y="523" type="curve" smooth="yes"/>
      <point x="196" y="523"/>
      <point x="124" y="482"/>
      <point x="92" y="456" type="curve"/>
      <point x="109" y="432" type="line"/>
      <point x="142" y="456"/>
      <point x="205" y="493"/>
      <point x="279" y="493" type="curve" smooth="yes"/>
      <point x="388" y="493"/>
      <point x="410" y="399"/>
      <point x="408" y="314" type="curve"/>
      <point x="172" y="288"/>
      <point x="65" y="233"/>
      <point x="65" y="115" type="curve" smooth="yes"/>
      <point x="65" y="17"/>
      <point x="135" y="-24"/>
      <point x="216" y="-24" type="curve" smooth="yes"/>
      <point x="286" y="-24"/>
      <point x="351" y="15"/>
      <point x="405" y="59" type="curve"/>
      <point x="408" y="59" type="line"/>
      <point x="412" y="-2" type="line"/>
      <point x="362" y="-37"/>
      <point x="318" y="-94"/>
      <point x="318" y="-148" type="curve" smooth="yes"/>
      <point x="318" y="-214"/>
      <point x="360" y="-242"/>
    </contour>
    <contour>
      <point x="218" y="6" type="curve" smooth="yes"/>
      <point x="155" y="6"/>
      <point x="100" y="37"/>
      <point x="100" y="118" type="curve" smooth="yes"/>
      <point x="100" y="207"/>
      <point x="179" y="259"/>
      <point x="408" y="285" type="curve"/>
      <point x="408" y="96" type="line"/>
      <point x="338" y="37"/>
      <point x="281" y="6"/>
    </contour>
  </outline>
</glyph>
<glyph name="cid40587" format="2">
  <advance height="1000" width="486"/>
  <unicode hex="0107"/>
  <outline>
    <contour>
      <point x="292" y="-24" type="curve" smooth="yes"/>
      <point x="360" y="-24"/>
      <point x="414" y="4"/>
      <point x="458" y="48" type="curve"/>
      <point x="438" y="67" type="line"/>
      <point x="403" y="32"/>
      <point x="351" y="6"/>
      <point x="292" y="6" type="curve" smooth="yes"/>
      <point x="172" y="6"/>
      <point x="94" y="105"/>
      <point x="94" y="248" type="curve" smooth="yes"/>
      <point x="94" y="392"/>
      <point x="181" y="493"/>
      <point x="292" y="493" type="curve" smooth="yes"/>
      <point x="349" y="493"/>
      <point x="392" y="471"/>
      <point x="425" y="438" type="curve"/>
      <point x="445" y="458" type="line"/>
      <point x="410" y="495"/>
      <point x="364" y="523"/>
      <point x="292" y="523" type="curve" smooth="yes"/>
      <point x="168" y="523"/>
      <point x="59" y="423"/>
      <point x="59" y="248" type="curve" smooth="yes"/>
      <point x="59" y="76"/>
      <point x="159" y="-24"/>
    </contour>
    <contour>
      <point x="218" y="610" type="line"/>
      <point x="251" y="610" type="line"/>
      <point x="414" y="769" type="line"/>
      <point x="412" y="774" type="line"/>
      <point x="371" y="774" type="line"/>
    </contour>
  </outline>
</glyph>
<glyph name="cid40165" format="2">
  <advance height="1000" width="613"/>
  <unicode hex="010A"/>
  <outline>
    <contour>
      <point x="358" y="-24" type="curve" smooth="yes"/>
      <point x="453" y="-24"/>
      <point x="514" y="15"/>
      <point x="569" y="78" type="curve"/>
      <point x="548" y="97" type="line"/>
      <point x="494" y="36"/>
      <point x="436" y="9"/>
      <point x="360" y="9" type="curve" smooth="yes"/>
      <point x="198" y="9"/>
      <point x="98" y="144"/>
      <point x="98" y="351" type="curve" smooth="yes"/>
      <point x="98" y="558"/>
      <point x="198" y="689"/>
      <point x="364" y="689" type="curve" smooth="yes"/>
      <point x="429" y="689"/>
      <point x="486" y="660"/>
      <point x="525" y="615" type="curve"/>
      <point x="547" y="636" type="line"/>
      <point x="510" y="682"/>
      <point x="445" y="721"/>
      <point x="364" y="721" type="curve" smooth="yes"/>
      <point x="181" y="721"/>
      <point x="61" y="578"/>
      <point x="61" y="351" type="curve" smooth="yes"/>
      <point x="61" y="124"/>
      <point x="181" y="-24"/>
    </contour>
    <contour>
      <point x="349" y="778" type="curve" smooth="yes"/>
      <point x="368" y="778"/>
      <point x="386" y="793"/>
      <point x="386" y="817" type="curve" smooth="yes"/>
      <point x="386" y="839"/>
      <point x="368" y="854"/>
      <point x="349" y="854" type="curve" smooth="yes"/>
      <point x="329" y="854"/>
      <point x="312" y="839"/>
      <point x="312" y="817" type="curve" smooth="yes"/>
      <point x="312" y="793"/>
      <point x="329" y="778"/>
    </contour>
  </outline>
</glyph>
<glyph name="cid40601" format="2">
  <advance height="1000" width="610"/>
  <unicode hex="0111"/>
  <outline>
    <contour>
      <point x="275" y="-24" type="curve" smooth="yes"/>
      <point x="347" y="-24"/>
      <point x="405" y="15"/>
      <point x="449" y="59" type="curve"/>
      <point x="451" y="59" type="line"/>
      <point x="456" y="-11" type="line"/>
      <point x="484" y="-11" type="line"/>
      <point x="484" y="776" type="line"/>
      <point x="451" y="776" type="line"/>
      <point x="451" y="521" type="line"/>
      <point x="453" y="423" type="line"/>
      <point x="399" y="464"/>
      <point x="355" y="488"/>
      <point x="292" y="488" type="curve" smooth="yes"/>
      <point x="166" y="488"/>
      <point x="59" y="388"/>
      <point x="59" y="231" type="curve" smooth="yes"/>
      <point x="59" y="65"/>
      <point x="144" y="-24"/>
    </contour>
    <contour>
      <point x="277" y="6" type="curve" smooth="yes"/>
      <point x="159" y="6"/>
      <point x="94" y="98"/>
      <point x="94" y="231" type="curve" smooth="yes"/>
      <point x="94" y="355"/>
      <point x="179" y="458"/>
      <point x="290" y="458" type="curve" smooth="yes"/>
      <point x="344" y="458"/>
      <point x="392" y="438"/>
      <point x="451" y="386" type="curve"/>
      <point x="451" y="98" type="line"/>
      <point x="392" y="39"/>
      <point x="338" y="6"/>
    </contour>
    <contour>
      <point x="242" y="626" type="line"/>
      <point x="484" y="626" type="line"/>
      <point x="586" y="630" type="line"/>
      <point x="586" y="656" type="line"/>
      <point x="242" y="656" type="line"/>
    </contour>
  </outline>
</glyph>
<glyph name="cid40189" format="2">
  <advance height="1000" width="556"/>
  <unicode hex="0112"/>
  <outline>
    <contour>
      <point x="109" y="-11" type="line"/>
      <point x="506" y="-11" type="line"/>
      <point x="506" y="20" type="line"/>
      <point x="144" y="20" type="line"/>
      <point x="144" y="357" type="line"/>
      <point x="438" y="357" type="line"/>
      <point x="438" y="388" type="line"/>
      <point x="144" y="388" type="line"/>
      <point x="144" y="678" type="line"/>
      <point x="495" y="678" type="line"/>
      <point x="495" y="708" type="line"/>
      <point x="109" y="708" type="line"/>
    </contour>
    <contour>
      <point x="185" y="802" type="line"/>
      <point x="447" y="802" type="line"/>
      <point x="447" y="833" type="line"/>
      <point x="185" y="833" type="line"/>
    </contour>
  </outline>
</glyph>
<glyph name="cid40191" format="2">
  <advance height="1000" width="556"/>
  <unicode hex="0114"/>
  <outline>
    <contour>
      <point x="109" y="-11" type="line"/>
      <point x="506" y="-11" type="line"/>
      <point x="506" y="20" type="line"/>
      <point x="144" y="20" type="line"/>
      <point x="144" y="357" type="line"/>
      <point x="438" y="357" type="line"/>
      <point x="438" y="388" type="line"/>
      <point x="144" y="388" type="line"/>
      <point x="144" y="678" type="line"/>
      <point x="495" y="678" type="line"/>
      <point x="495" y="708" type="line"/>
      <point x="109" y="708" type="line"/>
    </contour>
    <contour>
      <point x="316" y="765" type="curve" smooth="yes"/>
      <point x="411" y="765"/>
      <point x="452" y="838"/>
      <point x="460" y="898" type="curve"/>
      <point x="432" y="902" type="line"/>
      <point x="424" y="846"/>
      <point x="389" y="793"/>
      <point x="316" y="793" type="curve" smooth="yes"/>
      <point x="243" y="793"/>
      <point x="208" y="846"/>
      <point x="201" y="902" type="curve"/>
      <point x="172" y="898" type="line"/>
      <point x="180" y="838"/>
      <point x="221" y="765"/>
    </contour>
  </outline>
</glyph>
<glyph name="cid40192" format="2">
  <advance height="1000" width="556"/>
  <unicode hex="0116"/>
  <outline>
    <contour>
      <point x="109" y="-11" type="line"/>
      <point x="506" y="-11" type="line"/>
      <point x="506" y="20" type="line"/>
      <point x="144" y="20" type="line"/>
      <point x="144" y="357" type="line"/>
      <point x="438" y="357" type="line"/>
      <point x="438" y="388" type="line"/>
      <point x="144" y="388" type="line"/>
      <point x="144" y="678" type="line"/>
      <point x="495" y="678" type="line"/>
      <point x="495" y="708" type="line"/>
      <point x="109" y="708" type="line"/>
    </contour>
    <contour>
      <point x="316" y="778" type="curve" smooth="yes"/>
      <point x="336" y="778"/>
      <point x="353" y="793"/>
      <point x="353" y="817" type="curve" smooth="yes"/>
      <point x="353" y="839"/>
      <point x="336" y="854"/>
      <point x="316" y="854" type="curve" smooth="yes"/>
      <point x="296" y="854"/>
      <point x="279" y="839"/>
      <point x="279" y="817" type="curve" smooth="yes"/>
      <point x="279" y="793"/>
      <point x="296" y="778"/>
    </contour>
  </outline>
</glyph>
<glyph name="cid40196" format="2">
  <advance height="1000" width="556"/>
  <unicode hex="0118"/>
  <outline>
    <contour>
      <point x="453" y="-244" type="curve" smooth="yes"/>
      <point x="486" y="-244"/>
      <point x="514" y="-229"/>
      <point x="532" y="-214" type="curve"/>
      <point x="517" y="-192" type="line"/>
      <point x="497" y="-207"/>
      <point x="480" y="-214"/>
      <point x="456" y="-214" type="curve" smooth="yes"/>
      <point x="423" y="-214"/>
      <point x="390" y="-194"/>
      <point x="390" y="-148" type="curve" smooth="yes"/>
      <point x="390" y="-81"/>
      <point x="464" y="-11"/>
      <point x="504" y="-11" type="curve" smooth="yes"/>
      <point x="506" y="-11" type="line"/>
      <point x="506" y="20" type="line"/>
      <point x="144" y="20" type="line"/>
      <point x="144" y="357" type="line"/>
      <point x="438" y="357" type="line"/>
      <point x="438" y="388" type="line"/>
      <point x="144" y="388" type="line"/>
      <point x="144" y="678" type="line"/>
      <point x="495" y="678" type="line"/>
      <point x="495" y="708" type="line"/>
      <point x="109" y="708" type="line"/>
      <point x="109" y="-11" type="line"/>
      <point x="445" y="-11" type="line"/>
      <point x="397" y="-42"/>
      <point x="358" y="-92"/>
      <point x="358" y="-151" type="curve" smooth="yes"/>
      <point x="358" y="-216"/>
      <point x="401" y="-244"/>
    </contour>
  </outline>
</glyph>
<glyph name="cid40628" format="2">
  <advance height="1000" width="521"/>
  <unicode hex="0119"/>
  <outline>
    <contour>
      <point x="388" y="-242" type="curve" smooth="yes"/>
      <point x="421" y="-242"/>
      <point x="447" y="-227"/>
      <point x="464" y="-212" type="curve"/>
      <point x="449" y="-190" type="line"/>
      <point x="429" y="-205"/>
      <point x="414" y="-212"/>
      <point x="390" y="-212" type="curve" smooth="yes"/>
      <point x="358" y="-212"/>
      <point x="327" y="-192"/>
      <point x="327" y="-146" type="curve" smooth="yes"/>
      <point x="327" y="-92"/>
      <point x="377" y="-22"/>
      <point x="458" y="26" type="curve"/>
      <point x="443" y="50" type="line"/>
      <point x="405" y="24"/>
      <point x="358" y="6"/>
      <point x="299" y="6" type="curve" smooth="yes"/>
      <point x="182" y="6"/>
      <point x="94" y="102"/>
      <point x="94" y="251" type="curve" smooth="yes"/>
      <point x="94" y="412"/>
      <point x="192" y="493"/>
      <point x="283" y="493" type="curve" smooth="yes"/>
      <point x="382" y="493"/>
      <point x="447" y="423"/>
      <point x="447" y="279" type="curve"/>
      <point x="76" y="279" type="line"/>
      <point x="76" y="248" type="line"/>
      <point x="477" y="248" type="line"/>
      <point x="480" y="262"/>
      <point x="480" y="272"/>
      <point x="480" y="283" type="curve" smooth="yes"/>
      <point x="480" y="438"/>
      <point x="403" y="523"/>
      <point x="283" y="523" type="curve" smooth="yes"/>
      <point x="168" y="523"/>
      <point x="59" y="418"/>
      <point x="59" y="248" type="curve" smooth="yes"/>
      <point x="59" y="78"/>
      <point x="166" y="-24"/>
      <point x="296" y="-24" type="curve" smooth="yes"/>
      <point x="331" y="-24"/>
      <point x="371" y="-18"/>
      <point x="401" y="-2" type="curve"/>
      <point x="395" y="6" type="line"/>
      <point x="338" y="-37"/>
      <point x="294" y="-89"/>
      <point x="294" y="-148" type="curve" smooth="yes"/>
      <point x="294" y="-214"/>
      <point x="336" y="-242"/>
    </contour>
  </outline>
</glyph>
<glyph name="cid40193" format="2">
  <advance height="1000" width="556"/>
  <unicode hex="011A"/>
  <outline>
    <contour>
      <point x="109" y="-11" type="line"/>
      <point x="506" y="-11" type="line"/>
      <point x="506" y="20" type="line"/>
      <point x="144" y="20" type="line"/>
      <point x="144" y="357" type="line"/>
      <point x="438" y="357" type="line"/>
      <point x="438" y="388" type="line"/>
      <point x="144" y="388" type="line"/>
      <point x="144" y="678" type="line"/>
      <point x="495" y="678" type="line"/>
      <point x="495" y="708" type="line"/>
      <point x="109" y="708" type="line"/>
    </contour>
    <contour>
      <point x="305" y="765" type="line"/>
      <point x="327" y="765" type="line"/>
      <point x="480" y="894" type="line"/>
      <point x="443" y="894" type="line"/>
      <point x="318" y="798" type="line"/>
      <point x="314" y="798" type="line"/>
      <point x="190" y="894" type="line"/>
      <point x="153" y="894" type="line"/>
    </contour>
  </outline>
</glyph>
<glyph name="cid40221" format="2">
  <advance height="1000" width="654"/>
  <unicode hex="011E"/>
  <outline>
    <contour>
      <point x="364" y="-24" type="curve" smooth="yes"/>
      <point x="458" y="-24"/>
      <point x="530" y="9"/>
      <point x="573" y="57" type="curve"/>
      <point x="573" y="336" type="line"/>
      <point x="360" y="336" type="line"/>
      <point x="360" y="305" type="line"/>
      <point x="538" y="305" type="line"/>
      <point x="538" y="67" type="line"/>
      <point x="501" y="30"/>
      <point x="436" y="9"/>
      <point x="366" y="9" type="curve" smooth="yes"/>
      <point x="198" y="9"/>
      <point x="98" y="144"/>
      <point x="98" y="351" type="curve" smooth="yes"/>
      <point x="98" y="558"/>
      <point x="203" y="689"/>
      <point x="375" y="689" type="curve" smooth="yes"/>
      <point x="456" y="689"/>
      <point x="508" y="654"/>
      <point x="545" y="612" type="curve"/>
      <point x="567" y="636" type="line"/>
      <point x="530" y="676"/>
      <point x="471" y="721"/>
      <point x="375" y="721" type="curve" smooth="yes"/>
      <point x="185" y="721"/>
      <point x="61" y="578"/>
      <point x="61" y="351" type="curve" smooth="yes"/>
      <point x="61" y="124"/>
      <point x="181" y="-24"/>
    </contour>
    <contour>
      <point x="371" y="765" type="curve" smooth="yes"/>
      <point x="465" y="765"/>
      <point x="507" y="838"/>
      <point x="514" y="898" type="curve"/>
      <point x="486" y="902" type="line"/>
      <point x="479" y="846"/>
      <point x="444" y="793"/>
      <point x="371" y="793" type="curve" smooth="yes"/>
      <point x="298" y="793"/>
      <point x="263" y="846"/>
      <point x="255" y="902" type="curve"/>
      <point x="227" y="898" type="line"/>
      <point x="234" y="838"/>
      <point x="276" y="765"/>
    </contour>
  </outline>
</glyph>
<glyph name="cid40226" format="2">
  <advance height="1000" width="654"/>
  <unicode hex="0122"/>
  <outline>
    <contour>
      <point x="364" y="-24" type="curve" smooth="yes"/>
      <point x="458" y="-24"/>
      <point x="530" y="9"/>
      <point x="573" y="57" type="curve"/>
      <point x="573" y="336" type="line"/>
      <point x="360" y="336" type="line"/>
      <point x="360" y="305" type="line"/>
      <point x="538" y="305" type="line"/>
      <point x="538" y="67" type="line"/>
      <point x="501" y="30"/>
      <point x="436" y="9"/>
      <point x="366" y="9" type="curve" smooth="yes"/>
      <point x="198" y="9"/>
      <point x="98" y="144"/>
      <point x="98" y="351" type="curve" smooth="yes"/>
      <point x="98" y="558"/>
      <point x="203" y="689"/>
      <point x="375" y="689" type="curve" smooth="yes"/>
      <point x="456" y="689"/>
      <point x="508" y="654"/>
      <point x="545" y="612" type="curve"/>
      <point x="567" y="636" type="line"/>
      <point x="530" y="676"/>
      <point x="471" y="721"/>
      <point x="375" y="721" type="curve" smooth="yes"/>
      <point x="185" y="721"/>
      <point x="61" y="578"/>
      <point x="61" y="351" type="curve" smooth="yes"/>
      <point x="61" y="124"/>
      <point x="181" y="-24"/>
    </contour>
    <contour>
      <point x="290" y="-246" type="line"/>
      <point x="388" y="-240"/>
      <point x="440" y="-212"/>
      <point x="440" y="-157" type="curve" smooth="yes"/>
      <point x="440" y="-111"/>
      <point x="412" y="-92"/>
      <point x="334" y="-79" type="curve"/>
      <point x="323" y="-107" type="line"/>
      <point x="375" y="-111"/>
      <point x="408" y="-124"/>
      <point x="408" y="-159" type="curve" smooth="yes"/>
      <point x="408" y="-192"/>
      <point x="379" y="-212"/>
      <point x="283" y="-218" type="curve"/>
    </contour>
  </outline>
</glyph>
<glyph name="cid40232" format="2">
  <advance height="1000" width="691"/>
  <unicode hex="0124"/>
  <outline>
    <contour>
      <point x="109" y="-11" type="line"/>
      <point x="144" y="-11" type="line"/>
      <point x="144" y="357" type="line"/>
      <point x="547" y="357" type="line"/>
      <point x="547" y="-11" type="line"/>
      <point x="582" y="-11" type="line"/>
      <point x="582" y="708" type="line"/>
      <point x="547" y="708" type="line"/>
      <point x="547" y="388" type="line"/>
      <point x="144" y="388" type="line"/>
      <point x="144" y="708" type="line"/>
      <point x="109" y="708" type="line"/>
    </contour>
    <contour>
      <point x="181" y="763" type="line"/>
      <point x="218" y="763" type="line"/>
      <point x="342" y="861" type="line"/>
      <point x="347" y="861" type="line"/>
      <point x="471" y="763" type="line"/>
      <point x="508" y="763" type="line"/>
      <point x="355" y="894" type="line"/>
      <point x="334" y="894" type="line"/>
    </contour>
  </outline>
</glyph>
<glyph name="cid40247" format="2">
  <advance height="1000" width="735"/>
  <unicode hex="0126"/>
  <outline>
    <contour>
      <point x="24" y="530" type="line"/>
      <point x="706" y="530" type="line"/>
      <point x="706" y="560" type="line"/>
      <point x="133" y="560" type="line"/>
      <point x="24" y="556" type="line"/>
    </contour>
    <contour>
      <point x="131" y="-11" type="line"/>
      <point x="166" y="-11" type="line"/>
      <point x="166" y="357" type="line"/>
      <point x="569" y="357" type="line"/>
      <point x="569" y="-11" type="line"/>
      <point x="604" y="-11" type="line"/>
      <point x="604" y="708" type="line"/>
      <point x="569" y="708" type="line"/>
      <point x="569" y="388" type="line"/>
      <point x="166" y="388" type="line"/>
      <point x="166" y="708" type="line"/>
      <point x="131" y="708" type="line"/>
    </contour>
  </outline>
</glyph>
<glyph name="cid40252" format="2">
  <advance height="1000" width="253"/>
  <unicode hex="0128"/>
  <outline>
    <contour>
      <point x="109" y="-11" type="line"/>
      <point x="144" y="-11" type="line"/>
      <point x="144" y="708" type="line"/>
      <point x="109" y="708" type="line"/>
    </contour>
    <contour>
      <point x="211" y="776" type="curve" smooth="yes"/>
      <point x="268" y="776"/>
      <point x="299" y="829"/>
      <point x="301" y="892" type="curve"/>
      <point x="275" y="894" type="line"/>
      <point x="268" y="841"/>
      <point x="245" y="807"/>
      <point x="211" y="807" type="curve" smooth="yes"/>
      <point x="148" y="807"/>
      <point x="126" y="896"/>
      <point x="41" y="896" type="curve" smooth="yes"/>
      <point x="-15" y="896"/>
      <point x="-46" y="842"/>
      <point x="-48" y="780" type="curve"/>
      <point x="-22" y="778" type="line"/>
      <point x="-17" y="830"/>
      <point x="8" y="865"/>
      <point x="41" y="865" type="curve" smooth="yes"/>
      <point x="105" y="865"/>
      <point x="126" y="776"/>
    </contour>
  </outline>
</glyph>
<glyph name="cid40738" format="2">
  <advance height="1000" width="242"/>
  <unicode hex="0129"/>
  <outline>
    <contour>
      <point x="105" y="-11" type="line"/>
      <point x="137" y="-11" type="line"/>
      <point x="137" y="510" type="line"/>
      <point x="105" y="510" type="line"/>
    </contour>
    <contour>
      <point x="204" y="621" type="curve" smooth="yes"/>
      <point x="273" y="621"/>
      <point x="290" y="693"/>
      <point x="294" y="754" type="curve"/>
      <point x="266" y="756" type="line"/>
      <point x="264" y="700"/>
      <point x="246" y="650"/>
      <point x="206" y="650" type="curve" smooth="yes"/>
      <point x="142" y="650"/>
      <point x="120" y="759"/>
      <point x="37" y="759" type="curve" smooth="yes"/>
      <point x="-33" y="759"/>
      <point x="-50" y="688"/>
      <point x="-54" y="626" type="curve"/>
      <point x="-26" y="623" type="line"/>
      <point x="-24" y="682"/>
      <point x="-7" y="730"/>
      <point x="35" y="730" type="curve" smooth="yes"/>
      <point x="98" y="730"/>
      <point x="120" y="621"/>
    </contour>
  </outline>
</glyph>
<glyph name="cid40256" format="2">
  <advance height="1000" width="253"/>
  <unicode hex="012A"/>
  <outline>
    <contour>
      <point x="109" y="-11" type="line"/>
      <point x="144" y="-11" type="line"/>
      <point x="144" y="708" type="line"/>
      <point x="109" y="708" type="line"/>
    </contour>
    <contour>
      <point x="-4" y="802" type="line"/>
      <point x="257" y="802" type="line"/>
      <point x="257" y="833" type="line"/>
      <point x="-4" y="833" type="line"/>
    </contour>
  </outline>
</glyph>
<glyph name="cid40746" format="2">
  <advance height="1000" width="242"/>
  <unicode hex="012B"/>
  <outline>
    <contour>
      <point x="105" y="-11" type="line"/>
      <point x="137" y="-11" type="line"/>
      <point x="137" y="510" type="line"/>
      <point x="105" y="510" type="line"/>
    </contour>
    <contour>
      <point x="-11" y="652" type="line"/>
      <point x="251" y="652" type="line"/>
      <point x="251" y="682" type="line"/>
      <point x="-11" y="682" type="line"/>
    </contour>
  </outline>
</glyph>
<glyph name="cid40257" format="2">
  <advance height="1000" width="253"/>
  <unicode hex="012C"/>
  <outline>
    <contour>
      <point x="109" y="-11" type="line"/>
      <point x="144" y="-11" type="line"/>
      <point x="144" y="708" type="line"/>
      <point x="109" y="708" type="line"/>
    </contour>
    <contour>
      <point x="126" y="765" type="curve" smooth="yes"/>
      <point x="221" y="765"/>
      <point x="263" y="838"/>
      <point x="270" y="898" type="curve"/>
      <point x="242" y="902" type="line"/>
      <point x="234" y="846"/>
      <point x="199" y="793"/>
      <point x="126" y="793" type="curve" smooth="yes"/>
      <point x="53" y="793"/>
      <point x="19" y="846"/>
      <point x="11" y="902" type="curve"/>
      <point x="-17" y="898" type="line"/>
      <point x="-10" y="838"/>
      <point x="32" y="765"/>
    </contour>
  </outline>
</glyph>
<glyph name="cid40747" format="2">
  <advance height="1000" width="242"/>
  <unicode hex="012D"/>
  <outline>
    <contour>
      <point x="105" y="-11" type="line"/>
      <point x="137" y="-11" type="line"/>
      <point x="137" y="510" type="line"/>
      <point x="105" y="510" type="line"/>
    </contour>
    <contour>
      <point x="120" y="610" type="curve" smooth="yes"/>
      <point x="230" y="610"/>
      <point x="270" y="702"/>
      <point x="279" y="769" type="curve"/>
      <point x="251" y="774" type="line"/>
      <point x="242" y="711"/>
      <point x="202" y="639"/>
      <point x="120" y="639" type="curve" smooth="yes"/>
      <point x="38" y="639"/>
      <point x="-2" y="711"/>
      <point x="-11" y="774" type="curve"/>
      <point x="-39" y="769" type="line"/>
      <point x="-31" y="702"/>
      <point x="10" y="610"/>
    </contour>
  </outline>
</glyph>
<glyph name="cid40757" format="2">
  <advance height="1000" width="242"/>
  <unicode hex="012F"/>
  <outline>
    <contour>
      <point x="126" y="-242" type="curve" smooth="yes"/>
      <point x="159" y="-242"/>
      <point x="185" y="-227"/>
      <point x="203" y="-212" type="curve"/>
      <point x="187" y="-190" type="line"/>
      <point x="168" y="-205"/>
      <point x="153" y="-212"/>
      <point x="129" y="-212" type="curve" smooth="yes"/>
      <point x="96" y="-212"/>
      <point x="65" y="-192"/>
      <point x="65" y="-146" type="curve" smooth="yes"/>
      <point x="65" y="-98"/>
      <point x="100" y="-52"/>
      <point x="137" y="-11" type="curve"/>
      <point x="137" y="510" type="line"/>
      <point x="105" y="510" type="line"/>
      <point x="105" y="-11" type="line"/>
      <point x="107" y="-11" type="line"/>
      <point x="68" y="-50"/>
      <point x="33" y="-94"/>
      <point x="33" y="-148" type="curve" smooth="yes"/>
      <point x="33" y="-214"/>
      <point x="74" y="-242"/>
    </contour>
    <contour>
      <point x="122" y="643" type="curve" smooth="yes"/>
      <point x="142" y="643"/>
      <point x="157" y="658"/>
      <point x="157" y="682" type="curve" smooth="yes"/>
      <point x="157" y="704"/>
      <point x="142" y="719"/>
      <point x="122" y="719" type="curve" smooth="yes"/>
      <point x="102" y="719"/>
      <point x="87" y="704"/>
      <point x="87" y="682" type="curve" smooth="yes"/>
      <point x="87" y="658"/>
      <point x="102" y="643"/>
    </contour>
  </outline>
</glyph>
<glyph name="cid40259" format="2">
  <advance height="1000" width="253"/>
  <unicode hex="0130"/>
  <outline>
    <contour>
      <point x="109" y="-11" type="line"/>
      <point x="144" y="-11" type="line"/>
      <point x="144" y="708" type="line"/>
      <point x="109" y="708" type="line"/>
    </contour>
    <contour>
      <point x="126" y="778" type="curve" smooth="yes"/>
      <point x="146" y="778"/>
      <point x="164" y="793"/>
      <point x="164" y="817" type="curve" smooth="yes"/>
      <point x="164" y="839"/>
      <point x="146" y="854"/>
      <point x="126" y="854" type="curve" smooth="yes"/>
      <point x="107" y="854"/>
      <point x="89" y="839"/>
      <point x="89" y="817" type="curve" smooth="yes"/>
      <point x="89" y="793"/>
      <point x="107" y="778"/>
    </contour>
  </outline>
</glyph>
<glyph name="cid40270" format="2">
  <advance height="1000" width="506"/>
  <unicode hex="0132"/>
  <outline>
    <contour>
      <point x="109" y="-11" type="line"/>
      <point x="144" y="-11" type="line"/>
      <point x="144" y="708" type="line"/>
      <point x="109" y="708" type="line"/>
    </contour>
    <contour>
      <point x="288" y="-177" type="curve" smooth="yes"/>
      <point x="360" y="-177"/>
      <point x="397" y="-133"/>
      <point x="397" y="-33" type="curve" smooth="yes"/>
      <point x="397" y="708" type="line"/>
      <point x="362" y="708" type="line"/>
      <point x="362" y="-24" type="line" smooth="yes"/>
      <point x="362" y="-92"/>
      <point x="351" y="-142"/>
      <point x="290" y="-142" type="curve" smooth="yes"/>
      <point x="268" y="-142"/>
      <point x="246" y="-135"/>
      <point x="233" y="-131" type="curve"/>
      <point x="225" y="-164" type="line"/>
      <point x="240" y="-170"/>
      <point x="266" y="-177"/>
    </contour>
  </outline>
</glyph>
<glyph name="cid40767" format="2">
  <advance height="1000" width="484"/>
  <unicode hex="0133"/>
  <outline>
    <contour>
      <point x="105" y="-11" type="line"/>
      <point x="137" y="-11" type="line"/>
      <point x="137" y="510" type="line"/>
      <point x="105" y="510" type="line"/>
    </contour>
    <contour>
      <point x="120" y="643" type="curve" smooth="yes"/>
      <point x="140" y="643"/>
      <point x="155" y="658"/>
      <point x="155" y="682" type="curve" smooth="yes"/>
      <point x="155" y="704"/>
      <point x="140" y="719"/>
      <point x="120" y="719" type="curve" smooth="yes"/>
      <point x="100" y="719"/>
      <point x="85" y="704"/>
      <point x="85" y="682" type="curve" smooth="yes"/>
      <point x="85" y="658"/>
      <point x="100" y="643"/>
    </contour>
    <contour>
      <point x="273" y="-266" type="curve" smooth="yes"/>
      <point x="344" y="-266"/>
      <point x="379" y="-222"/>
      <point x="379" y="-122" type="curve" smooth="yes"/>
      <point x="379" y="510" type="line"/>
      <point x="347" y="510" type="line"/>
      <point x="347" y="-118" type="line" smooth="yes"/>
      <point x="347" y="-185"/>
      <point x="336" y="-236"/>
      <point x="275" y="-236" type="curve" smooth="yes"/>
      <point x="255" y="-236"/>
      <point x="231" y="-229"/>
      <point x="218" y="-225" type="curve"/>
      <point x="209" y="-251" type="line"/>
      <point x="225" y="-260"/>
      <point x="253" y="-266"/>
    </contour>
    <contour>
      <point x="362" y="643" type="curve" smooth="yes"/>
      <point x="382" y="643"/>
      <point x="397" y="658"/>
      <point x="397" y="682" type="curve" smooth="yes"/>
      <point x="397" y="704"/>
      <point x="382" y="719"/>
      <point x="362" y="719" type="curve" smooth="yes"/>
      <point x="342" y="719"/>
      <point x="327" y="704"/>
      <point x="327" y="682" type="curve" smooth="yes"/>
      <point x="327" y="658"/>
      <point x="342" y="643"/>
    </contour>
  </outline>
</glyph>
<glyph name="cid40769" format="2">
  <advance height="1000" width="242"/>
  <unicode hex="0135"/>
  <outline>
    <contour>
      <point x="31" y="-266" type="curve" smooth="yes"/>
      <point x="102" y="-266"/>
      <point x="137" y="-222"/>
      <point x="137" y="-122" type="curve" smooth="yes"/>
      <point x="137" y="510" type="line"/>
      <point x="105" y="510" type="line"/>
      <point x="105" y="-118" type="line" smooth="yes"/>
      <point x="105" y="-185"/>
      <point x="94" y="-236"/>
      <point x="33" y="-236" type="curve" smooth="yes"/>
      <point x="13" y="-236"/>
      <point x="-11" y="-229"/>
      <point x="-24" y="-225" type="curve"/>
      <point x="-33" y="-251" type="line"/>
      <point x="-17" y="-260"/>
      <point x="11" y="-266"/>
    </contour>
    <contour>
      <point x="-41" y="610" type="line"/>
      <point x="-9" y="610" type="line"/>
      <point x="120" y="737" type="line"/>
      <point x="124" y="737" type="line"/>
      <point x="253" y="610" type="line"/>
      <point x="286" y="610" type="line"/>
      <point x="133" y="774" type="line"/>
      <point x="111" y="774" type="line"/>
    </contour>
  </outline>
</glyph>
<glyph name="cid40276" format="2">
  <advance height="1000" width="600"/>
  <unicode hex="0136"/>
  <outline>
    <contour>
      <point x="109" y="-11" type="line"/>
      <point x="144" y="-11" type="line"/>
      <point x="144" y="244" type="line"/>
      <point x="299" y="418" type="line"/>
      <point x="545" y="-11" type="line"/>
      <point x="586" y="-11" type="line"/>
      <point x="325" y="445" type="line"/>
      <point x="556" y="708" type="line"/>
      <point x="512" y="708" type="line"/>
      <point x="146" y="294" type="line"/>
      <point x="144" y="294" type="line"/>
      <point x="144" y="708" type="line"/>
      <point x="109" y="708" type="line"/>
    </contour>
    <contour>
      <point x="273" y="-246" type="line"/>
      <point x="371" y="-240"/>
      <point x="423" y="-212"/>
      <point x="423" y="-157" type="curve" smooth="yes"/>
      <point x="423" y="-111"/>
      <point x="395" y="-92"/>
      <point x="316" y="-79" type="curve"/>
      <point x="305" y="-107" type="line"/>
      <point x="358" y="-111"/>
      <point x="390" y="-124"/>
      <point x="390" y="-159" type="curve" smooth="yes"/>
      <point x="390" y="-192"/>
      <point x="362" y="-212"/>
      <point x="266" y="-218" type="curve"/>
    </contour>
  </outline>
</glyph>
<glyph name="cid40782" format="2">
  <advance height="1000" width="493"/>
  <unicode hex="0137"/>
  <outline>
    <contour>
      <point x="105" y="-11" type="line"/>
      <point x="137" y="-11" type="line"/>
      <point x="137" y="133" type="line"/>
      <point x="262" y="279" type="line"/>
      <point x="443" y="-11" type="line"/>
      <point x="480" y="-11" type="line"/>
      <point x="281" y="305" type="line"/>
      <point x="449" y="510" type="line"/>
      <point x="410" y="510" type="line"/>
      <point x="140" y="179" type="line"/>
      <point x="137" y="179" type="line"/>
      <point x="137" y="776" type="line"/>
      <point x="105" y="776" type="line"/>
    </contour>
    <contour>
      <point x="203" y="-246" type="line"/>
      <point x="301" y="-240"/>
      <point x="353" y="-212"/>
      <point x="353" y="-157" type="curve" smooth="yes"/>
      <point x="353" y="-111"/>
      <point x="325" y="-92"/>
      <point x="246" y="-79" type="curve"/>
      <point x="235" y="-107" type="line"/>
      <point x="288" y="-111"/>
      <point x="320" y="-124"/>
      <point x="320" y="-159" type="curve" smooth="yes"/>
      <point x="320" y="-192"/>
      <point x="292" y="-212"/>
      <point x="196" y="-218" type="curve"/>
    </contour>
  </outline>
</glyph>
<glyph name="cid40787" format="2">
  <advance height="1000" width="493"/>
  <unicode hex="0138"/>
  <outline>
    <contour>
      <point x="105" y="-11" type="line"/>
      <point x="137" y="-11" type="line"/>
      <point x="137" y="133" type="line"/>
      <point x="262" y="279" type="line"/>
      <point x="443" y="-11" type="line"/>
      <point x="480" y="-11" type="line"/>
      <point x="281" y="305" type="line"/>
      <point x="449" y="510" type="line"/>
      <point x="410" y="510" type="line"/>
      <point x="140" y="179" type="line"/>
      <point x="137" y="179" type="line"/>
      <point x="137" y="510" type="line"/>
      <point x="105" y="510" type="line"/>
    </contour>
  </outline>
</glyph>
<glyph name="cid40280" format="2">
  <advance height="1000" width="501"/>
  <unicode hex="0139"/>
  <outline>
    <contour>
      <point x="109" y="-11" type="line"/>
      <point x="482" y="-11" type="line"/>
      <point x="482" y="20" type="line"/>
      <point x="144" y="20" type="line"/>
      <point x="144" y="708" type="line"/>
      <point x="109" y="708" type="line"/>
    </contour>
    <contour>
      <point x="50" y="763" type="line"/>
      <point x="89" y="763" type="line"/>
      <point x="257" y="889" type="line"/>
      <point x="255" y="894" type="line"/>
      <point x="203" y="894" type="line"/>
    </contour>
  </outline>
</glyph>
<glyph name="cid40790" format="2">
  <advance height="1000" width="251"/>
  <unicode hex="013A"/>
  <outline>
    <contour>
      <point x="157" y="-20" type="curve" smooth="yes"/>
      <point x="168" y="-20"/>
      <point x="177" y="-18"/>
      <point x="185" y="-13" type="curve"/>
      <point x="179" y="13" type="line"/>
      <point x="170" y="11"/>
      <point x="166" y="11"/>
      <point x="161" y="11" type="curve" smooth="yes"/>
      <point x="146" y="11"/>
      <point x="137" y="20"/>
      <point x="137" y="44" type="curve" smooth="yes"/>
      <point x="137" y="776" type="line"/>
      <point x="105" y="776" type="line"/>
      <point x="105" y="50" type="line" smooth="yes"/>
      <point x="105" y="0"/>
      <point x="124" y="-20"/>
    </contour>
    <contour>
      <point x="44" y="817" type="line"/>
      <point x="83" y="817" type="line"/>
      <point x="251" y="944" type="line"/>
      <point x="249" y="948" type="line"/>
      <point x="196" y="948" type="line"/>
    </contour>
  </outline>
</glyph>
<glyph name="cid40284" format="2">
  <advance height="1000" width="501"/>
  <unicode hex="013B"/>
  <outline>
    <contour>
      <point x="109" y="-11" type="line"/>
      <point x="482" y="-11" type="line"/>
      <point x="482" y="20" type="line"/>
      <point x="144" y="20" type="line"/>
      <point x="144" y="708" type="line"/>
      <point x="109" y="708" type="line"/>
    </contour>
    <contour>
      <point x="233" y="-246" type="line"/>
      <point x="331" y="-240"/>
      <point x="384" y="-212"/>
      <point x="384" y="-157" type="curve" smooth="yes"/>
      <point x="384" y="-111"/>
      <point x="355" y="-92"/>
      <point x="277" y="-79" type="curve"/>
      <point x="266" y="-107" type="line"/>
      <point x="318" y="-111"/>
      <point x="351" y="-124"/>
      <point x="351" y="-159" type="curve" smooth="yes"/>
      <point x="351" y="-192"/>
      <point x="323" y="-212"/>
      <point x="227" y="-218" type="curve"/>
    </contour>
  </outline>
</glyph>
<glyph name="cid40793" format="2">
  <advance height="1000" width="251"/>
  <unicode hex="013C"/>
  <outline>
    <contour>
      <point x="157" y="-20" type="curve" smooth="yes"/>
      <point x="168" y="-20"/>
      <point x="177" y="-18"/>
      <point x="185" y="-13" type="curve"/>
      <point x="179" y="13" type="line"/>
      <point x="170" y="11"/>
      <point x="166" y="11"/>
      <point x="161" y="11" type="curve" smooth="yes"/>
      <point x="146" y="11"/>
      <point x="137" y="20"/>
      <point x="137" y="44" type="curve" smooth="yes"/>
      <point x="137" y="776" type="line"/>
      <point x="105" y="776" type="line"/>
      <point x="105" y="50" type="line" smooth="yes"/>
      <point x="105" y="0"/>
      <point x="124" y="-20"/>
    </contour>
    <contour>
      <point x="61" y="-246" type="line"/>
      <point x="159" y="-240"/>
      <point x="211" y="-212"/>
      <point x="211" y="-157" type="curve" smooth="yes"/>
      <point x="211" y="-111"/>
      <point x="183" y="-92"/>
      <point x="105" y="-79" type="curve"/>
      <point x="94" y="-107" type="line"/>
      <point x="146" y="-111"/>
      <point x="179" y="-124"/>
      <point x="179" y="-159" type="curve" smooth="yes"/>
      <point x="179" y="-192"/>
      <point x="150" y="-212"/>
      <point x="55" y="-218" type="curve"/>
    </contour>
  </outline>
</glyph>
<glyph name="cid40282" format="2">
  <advance height="1000" width="501"/>
  <unicode hex="013D"/>
  <outline>
    <contour>
      <point x="109" y="-11" type="line"/>
      <point x="482" y="-11" type="line"/>
      <point x="482" y="20" type="line"/>
      <point x="144" y="20" type="line"/>
      <point x="144" y="708" type="line"/>
      <point x="109" y="708" type="line"/>
    </contour>
    <contour>
      <point x="347" y="554" type="line"/>
      <point x="371" y="554" type="line"/>
      <point x="377" y="724" type="line"/>
      <point x="377" y="776" type="line"/>
      <point x="344" y="776" type="line"/>
    </contour>
  </outline>
</glyph>
<glyph name="cid40792" format="2">
  <advance height="1000" width="242"/>
  <unicode hex="013E"/>
  <outline>
    <contour>
      <point x="157" y="-20" type="curve" smooth="yes"/>
      <point x="168" y="-20"/>
      <point x="177" y="-18"/>
      <point x="185" y="-13" type="curve"/>
      <point x="179" y="13" type="line"/>
      <point x="170" y="11"/>
      <point x="166" y="11"/>
      <point x="161" y="11" type="curve" smooth="yes"/>
      <point x="146" y="11"/>
      <point x="137" y="20"/>
      <point x="137" y="44" type="curve" smooth="yes"/>
      <point x="137" y="776" type="line"/>
      <point x="105" y="776" type="line"/>
      <point x="105" y="50" type="line" smooth="yes"/>
      <point x="105" y="0"/>
      <point x="124" y="-20"/>
    </contour>
    <contour>
      <point x="211" y="586" type="line"/>
      <point x="235" y="586" type="line"/>
      <point x="242" y="756" type="line"/>
      <point x="242" y="809" type="line"/>
      <point x="209" y="809" type="line"/>
    </contour>
  </outline>
</glyph>
<glyph name="cid40818" format="2">
  <advance height="1000" width="314"/>
  <unicode hex="0140"/>
  <outline>
    <contour>
      <point x="157" y="-20" type="curve" smooth="yes"/>
      <point x="168" y="-20"/>
      <point x="177" y="-18"/>
      <point x="185" y="-13" type="curve"/>
      <point x="179" y="13" type="line"/>
      <point x="170" y="11"/>
      <point x="166" y="11"/>
      <point x="161" y="11" type="curve" smooth="yes"/>
      <point x="146" y="11"/>
      <point x="137" y="20"/>
      <point x="137" y="44" type="curve" smooth="yes"/>
      <point x="137" y="776" type="line"/>
      <point x="105" y="776" type="line"/>
      <point x="105" y="50" type="line" smooth="yes"/>
      <point x="105" y="0"/>
      <point x="124" y="-20"/>
    </contour>
    <contour>
      <point x="277" y="299" type="curve" smooth="yes"/>
      <point x="296" y="299"/>
      <point x="316" y="314"/>
      <point x="316" y="340" type="curve" smooth="yes"/>
      <point x="316" y="368"/>
      <point x="296" y="384"/>
      <point x="277" y="384" type="curve" smooth="yes"/>
      <point x="257" y="384"/>
      <point x="238" y="368"/>
      <point x="238" y="340" type="curve" smooth="yes"/>
      <point x="238" y="314"/>
      <point x="257" y="299"/>
    </contour>
  </outline>
</glyph>
<glyph name="cid40290" format="2">
  <advance height="1000" width="508"/>
  <unicode hex="0141"/>
  <outline>
    <contour>
      <point x="17" y="244" type="line"/>
      <point x="126" y="290" type="line"/>
      <point x="140" y="292" type="line"/>
      <point x="388" y="399" type="line"/>
      <point x="375" y="427" type="line"/>
      <point x="140" y="327" type="line"/>
      <point x="126" y="325" type="line"/>
      <point x="4" y="272" type="line"/>
    </contour>
    <contour>
      <point x="120" y="-11" type="line"/>
      <point x="493" y="-11" type="line"/>
      <point x="493" y="20" type="line"/>
      <point x="155" y="20" type="line"/>
      <point x="155" y="708" type="line"/>
      <point x="120" y="708" type="line"/>
    </contour>
  </outline>
</glyph>
<glyph name="cid40805" format="2">
  <advance height="1000" width="273"/>
  <unicode hex="0142"/>
  <outline>
    <contour>
      <point x="13" y="373" type="line"/>
      <point x="126" y="432" type="line"/>
      <point x="140" y="436" type="line"/>
      <point x="257" y="497" type="line"/>
      <point x="244" y="523" type="line"/>
      <point x="140" y="469" type="line"/>
      <point x="126" y="464" type="line"/>
      <point x="0" y="399" type="line"/>
    </contour>
    <contour>
      <point x="168" y="-20" type="curve" smooth="yes"/>
      <point x="179" y="-20"/>
      <point x="187" y="-18"/>
      <point x="196" y="-13" type="curve"/>
      <point x="190" y="13" type="line"/>
      <point x="181" y="11"/>
      <point x="177" y="11"/>
      <point x="172" y="11" type="curve" smooth="yes"/>
      <point x="157" y="11"/>
      <point x="148" y="20"/>
      <point x="148" y="44" type="curve" smooth="yes"/>
      <point x="148" y="776" type="line"/>
      <point x="116" y="776" type="line"/>
      <point x="116" y="50" type="line" smooth="yes"/>
      <point x="116" y="0"/>
      <point x="135" y="-20"/>
    </contour>
  </outline>
</glyph>
<glyph name="cid40828" format="2">
  <advance height="1000" width="573"/>
  <unicode hex="0144"/>
  <outline>
    <contour>
      <point x="105" y="-11" type="line"/>
      <point x="137" y="-11" type="line"/>
      <point x="137" y="388" type="line"/>
      <point x="205" y="458"/>
      <point x="253" y="493"/>
      <point x="318" y="493" type="curve" smooth="yes"/>
      <point x="408" y="493"/>
      <point x="445" y="436"/>
      <point x="445" y="320" type="curve" smooth="yes"/>
      <point x="445" y="-11" type="line"/>
      <point x="477" y="-11" type="line"/>
      <point x="477" y="325" type="line" smooth="yes"/>
      <point x="477" y="460"/>
      <point x="427" y="523"/>
      <point x="320" y="523" type="curve" smooth="yes"/>
      <point x="249" y="523"/>
      <point x="194" y="482"/>
      <point x="140" y="427" type="curve"/>
      <point x="137" y="427" type="line"/>
      <point x="133" y="510" type="line"/>
      <point x="105" y="510" type="line"/>
    </contour>
    <contour>
      <point x="229" y="610" type="line"/>
      <point x="262" y="610" type="line"/>
      <point x="425" y="769" type="line"/>
      <point x="423" y="774" type="line"/>
      <point x="382" y="774" type="line"/>
    </contour>
  </outline>
</glyph>
<glyph name="cid40842" format="2">
  <advance height="1000" width="766"/>
  <unicode hex="0149"/>
  <outline>
    <contour>
      <point x="78" y="521" type="line"/>
      <point x="159" y="560"/>
      <point x="187" y="621"/>
      <point x="187" y="689" type="curve" smooth="yes"/>
      <point x="187" y="756"/>
      <point x="144" y="789"/>
      <point x="107" y="789" type="curve" smooth="yes"/>
      <point x="78" y="789"/>
      <point x="59" y="772"/>
      <point x="59" y="748" type="curve" smooth="yes"/>
      <point x="59" y="719"/>
      <point x="81" y="708"/>
      <point x="98" y="708" type="curve" smooth="yes"/>
      <point x="116" y="708"/>
      <point x="129" y="715"/>
      <point x="135" y="732" type="curve"/>
      <point x="131" y="732" type="line"/>
      <point x="146" y="719"/>
      <point x="153" y="702"/>
      <point x="153" y="678" type="curve" smooth="yes"/>
      <point x="153" y="628"/>
      <point x="137" y="586"/>
      <point x="63" y="543" type="curve"/>
    </contour>
    <contour>
      <point x="298" y="-11" type="line"/>
      <point x="330" y="-11" type="line"/>
      <point x="330" y="388" type="line"/>
      <point x="398" y="458"/>
      <point x="446" y="493"/>
      <point x="511" y="493" type="curve" smooth="yes"/>
      <point x="601" y="493"/>
      <point x="638" y="436"/>
      <point x="638" y="320" type="curve" smooth="yes"/>
      <point x="638" y="-11" type="line"/>
      <point x="670" y="-11" type="line"/>
      <point x="670" y="325" type="line" smooth="yes"/>
      <point x="670" y="460"/>
      <point x="620" y="523"/>
      <point x="513" y="523" type="curve" smooth="yes"/>
      <point x="441" y="523"/>
      <point x="387" y="482"/>
      <point x="332" y="427" type="curve"/>
      <point x="330" y="427" type="line"/>
      <point x="326" y="510" type="line"/>
      <point x="298" y="510" type="line"/>
    </contour>
  </outline>
</glyph>
<glyph name="cid40314" format="2">
  <advance height="1000" width="665"/>
  <unicode hex="014A"/>
  <outline>
    <contour>
      <point x="438" y="-24" type="curve" smooth="yes"/>
      <point x="524" y="-24"/>
      <point x="604" y="65"/>
      <point x="604" y="357" type="curve" smooth="yes"/>
      <point x="604" y="626"/>
      <point x="497" y="721"/>
      <point x="353" y="721" type="curve" smooth="yes"/>
      <point x="275" y="721"/>
      <point x="194" y="667"/>
      <point x="144" y="610" type="curve"/>
      <point x="144" y="708" type="line"/>
      <point x="109" y="708" type="line"/>
      <point x="109" y="-11" type="line"/>
      <point x="144" y="-11" type="line"/>
      <point x="144" y="569" type="line"/>
      <point x="193" y="632"/>
      <point x="283" y="689"/>
      <point x="351" y="689" type="curve" smooth="yes"/>
      <point x="477" y="689"/>
      <point x="567" y="615"/>
      <point x="567" y="357" type="curve" smooth="yes"/>
      <point x="567" y="96"/>
      <point x="507" y="11"/>
      <point x="436" y="11" type="curve" smooth="yes"/>
      <point x="410" y="11"/>
      <point x="392" y="15"/>
      <point x="375" y="24" type="curve"/>
      <point x="362" y="-11" type="line"/>
      <point x="382" y="-20"/>
      <point x="413" y="-24"/>
    </contour>
  </outline>
</glyph>
<glyph name="cid40844" format="2">
  <advance height="1000" width="573"/>
  <unicode hex="014B"/>
  <outline>
    <contour>
      <point x="371" y="-266" type="curve" smooth="yes"/>
      <point x="443" y="-266"/>
      <point x="477" y="-222"/>
      <point x="477" y="-122" type="curve" smooth="yes"/>
      <point x="477" y="325" type="line" smooth="yes"/>
      <point x="477" y="460"/>
      <point x="427" y="523"/>
      <point x="320" y="523" type="curve" smooth="yes"/>
      <point x="249" y="523"/>
      <point x="194" y="482"/>
      <point x="140" y="427" type="curve"/>
      <point x="137" y="427" type="line"/>
      <point x="133" y="510" type="line"/>
      <point x="105" y="510" type="line"/>
      <point x="105" y="-11" type="line"/>
      <point x="137" y="-11" type="line"/>
      <point x="137" y="388" type="line"/>
      <point x="205" y="458"/>
      <point x="253" y="493"/>
      <point x="318" y="493" type="curve" smooth="yes"/>
      <point x="408" y="493"/>
      <point x="445" y="436"/>
      <point x="445" y="320" type="curve" smooth="yes"/>
      <point x="445" y="-118" type="line" smooth="yes"/>
      <point x="445" y="-185"/>
      <point x="434" y="-236"/>
      <point x="373" y="-236" type="curve" smooth="yes"/>
      <point x="353" y="-236"/>
      <point x="329" y="-229"/>
      <point x="316" y="-225" type="curve"/>
      <point x="307" y="-251" type="line"/>
      <point x="323" y="-260"/>
      <point x="351" y="-266"/>
    </contour>
  </outline>
</glyph>
<glyph name="cid40329" format="2">
  <advance height="1000" width="706"/>
  <unicode hex="014E"/>
  <outline>
    <contour>
      <point x="353" y="-24" type="curve" smooth="yes"/>
      <point x="523" y="-24"/>
      <point x="645" y="124"/>
      <point x="645" y="351" type="curve" smooth="yes"/>
      <point x="645" y="578"/>
      <point x="523" y="721"/>
      <point x="353" y="721" type="curve" smooth="yes"/>
      <point x="183" y="721"/>
      <point x="61" y="578"/>
      <point x="61" y="351" type="curve" smooth="yes"/>
      <point x="61" y="124"/>
      <point x="183" y="-24"/>
    </contour>
    <contour>
      <point x="353" y="9" type="curve" smooth="yes"/>
      <point x="201" y="9"/>
      <point x="98" y="144"/>
      <point x="98" y="351" type="curve" smooth="yes"/>
      <point x="98" y="558"/>
      <point x="201" y="689"/>
      <point x="353" y="689" type="curve" smooth="yes"/>
      <point x="506" y="689"/>
      <point x="608" y="558"/>
      <point x="608" y="351" type="curve" smooth="yes"/>
      <point x="608" y="144"/>
      <point x="506" y="9"/>
    </contour>
    <contour>
      <point x="353" y="765" type="curve" smooth="yes"/>
      <point x="448" y="765"/>
      <point x="489" y="838"/>
      <point x="497" y="898" type="curve"/>
      <point x="469" y="902" type="line"/>
      <point x="461" y="846"/>
      <point x="426" y="793"/>
      <point x="353" y="793" type="curve" smooth="yes"/>
      <point x="280" y="793"/>
      <point x="245" y="846"/>
      <point x="238" y="902" type="curve"/>
      <point x="209" y="898" type="line"/>
      <point x="217" y="838"/>
      <point x="258" y="765"/>
    </contour>
  </outline>
</glyph>
<glyph name="cid40862" format="2">
  <advance height="1000" width="580"/>
  <unicode hex="014F"/>
  <outline>
    <contour>
      <point x="290" y="-24" type="curve" smooth="yes"/>
      <point x="414" y="-24"/>
      <point x="521" y="76"/>
      <point x="521" y="248" type="curve" smooth="yes"/>
      <point x="521" y="423"/>
      <point x="414" y="523"/>
      <point x="290" y="523" type="curve" smooth="yes"/>
      <point x="166" y="523"/>
      <point x="59" y="423"/>
      <point x="59" y="248" type="curve" smooth="yes"/>
      <point x="59" y="76"/>
      <point x="166" y="-24"/>
    </contour>
    <contour>
      <point x="290" y="6" type="curve" smooth="yes"/>
      <point x="179" y="6"/>
      <point x="94" y="105"/>
      <point x="94" y="248" type="curve" smooth="yes"/>
      <point x="94" y="392"/>
      <point x="179" y="493"/>
      <point x="290" y="493" type="curve" smooth="yes"/>
      <point x="401" y="493"/>
      <point x="486" y="392"/>
      <point x="486" y="248" type="curve" smooth="yes"/>
      <point x="486" y="105"/>
      <point x="401" y="6"/>
    </contour>
    <contour>
      <point x="290" y="610" type="curve" smooth="yes"/>
      <point x="400" y="610"/>
      <point x="440" y="702"/>
      <point x="449" y="769" type="curve"/>
      <point x="421" y="774" type="line"/>
      <point x="412" y="711"/>
      <point x="372" y="639"/>
      <point x="290" y="639" type="curve" smooth="yes"/>
      <point x="208" y="639"/>
      <point x="168" y="711"/>
      <point x="159" y="774" type="curve"/>
      <point x="131" y="769" type="line"/>
      <point x="140" y="702"/>
      <point x="180" y="610"/>
    </contour>
  </outline>
</glyph>
<glyph name="cid40354" format="2">
  <advance height="1000" width="903"/>
  <unicode hex="0152"/>
  <outline>
    <contour>
      <point x="399" y="-11" type="curve" smooth="yes"/>
      <point x="852" y="-11" type="line"/>
      <point x="852" y="20" type="line"/>
      <point x="512" y="20" type="line"/>
      <point x="512" y="357" type="line"/>
      <point x="785" y="357" type="line"/>
      <point x="785" y="388" type="line"/>
      <point x="512" y="388" type="line"/>
      <point x="512" y="678" type="line"/>
      <point x="841" y="678" type="line"/>
      <point x="841" y="708" type="line"/>
      <point x="399" y="708" type="line" smooth="yes"/>
      <point x="170" y="708"/>
      <point x="61" y="565"/>
      <point x="61" y="351" type="curve" smooth="yes"/>
      <point x="61" y="137"/>
      <point x="170" y="-11"/>
    </contour>
    <contour>
      <point x="403" y="20" type="line" smooth="yes"/>
      <point x="192" y="20"/>
      <point x="98" y="161"/>
      <point x="98" y="351" type="curve" smooth="yes"/>
      <point x="98" y="541"/>
      <point x="192" y="678"/>
      <point x="403" y="678" type="curve" smooth="yes"/>
      <point x="477" y="678" type="line"/>
      <point x="477" y="20" type="line"/>
    </contour>
  </outline>
</glyph>
<glyph name="cid40890" format="2">
  <advance height="1000" width="929"/>
  <unicode hex="0153"/>
  <outline>
    <contour>
      <point x="286" y="-24" type="curve" smooth="yes"/>
      <point x="379" y="-24"/>
      <point x="453" y="30"/>
      <point x="493" y="137" type="curve"/>
      <point x="530" y="39"/>
      <point x="608" y="-24"/>
      <point x="704" y="-24" type="curve" smooth="yes"/>
      <point x="783" y="-24"/>
      <point x="826" y="0"/>
      <point x="865" y="26" type="curve"/>
      <point x="850" y="50" type="line"/>
      <point x="813" y="24"/>
      <point x="765" y="6"/>
      <point x="706" y="6" type="curve" smooth="yes"/>
      <point x="595" y="6"/>
      <point x="508" y="109"/>
      <point x="510" y="248" type="curve"/>
      <point x="885" y="248" type="line"/>
      <point x="887" y="262"/>
      <point x="887" y="272"/>
      <point x="887" y="283" type="curve" smooth="yes"/>
      <point x="887" y="438"/>
      <point x="811" y="523"/>
      <point x="691" y="523" type="curve" smooth="yes"/>
      <point x="604" y="523"/>
      <point x="530" y="460"/>
      <point x="493" y="360" type="curve"/>
      <point x="456" y="469"/>
      <point x="371" y="523"/>
      <point x="286" y="523" type="curve" smooth="yes"/>
      <point x="166" y="523"/>
      <point x="59" y="423"/>
      <point x="59" y="248" type="curve" smooth="yes"/>
      <point x="59" y="76"/>
      <point x="166" y="-24"/>
    </contour>
    <contour>
      <point x="286" y="6" type="curve" smooth="yes"/>
      <point x="177" y="6"/>
      <point x="94" y="105"/>
      <point x="94" y="248" type="curve" smooth="yes"/>
      <point x="94" y="392"/>
      <point x="177" y="493"/>
      <point x="286" y="493" type="curve" smooth="yes"/>
      <point x="397" y="493"/>
      <point x="477" y="392"/>
      <point x="477" y="248" type="curve" smooth="yes"/>
      <point x="477" y="105"/>
      <point x="397" y="6"/>
    </contour>
    <contour>
      <point x="510" y="277" type="line"/>
      <point x="521" y="403"/>
      <point x="600" y="493"/>
      <point x="691" y="493" type="curve" smooth="yes"/>
      <point x="789" y="493"/>
      <point x="855" y="421"/>
      <point x="855" y="277" type="curve"/>
    </contour>
  </outline>
</glyph>
<glyph name="cid40381" format="2">
  <advance height="1000" width="582"/>
  <unicode hex="0156"/>
  <outline>
    <contour>
      <point x="109" y="-11" type="line"/>
      <point x="144" y="-11" type="line"/>
      <point x="144" y="329" type="line"/>
      <point x="307" y="329" type="line" smooth="yes"/>
      <point x="449" y="329"/>
      <point x="538" y="397"/>
      <point x="538" y="523" type="curve" smooth="yes"/>
      <point x="538" y="656"/>
      <point x="449" y="708"/>
      <point x="307" y="708" type="curve" smooth="yes"/>
      <point x="109" y="708" type="line"/>
    </contour>
    <contour>
      <point x="144" y="360" type="line"/>
      <point x="144" y="678" type="line"/>
      <point x="294" y="678" type="line" smooth="yes"/>
      <point x="427" y="678"/>
      <point x="501" y="636"/>
      <point x="501" y="523" type="curve" smooth="yes"/>
      <point x="501" y="412"/>
      <point x="427" y="360"/>
      <point x="294" y="360" type="curve" smooth="yes"/>
    </contour>
    <contour>
      <point x="508" y="-11" type="line"/>
      <point x="549" y="-11" type="line"/>
      <point x="338" y="342" type="line"/>
      <point x="299" y="340" type="line"/>
    </contour>
    <contour>
      <point x="242" y="-246" type="line"/>
      <point x="340" y="-240"/>
      <point x="392" y="-212"/>
      <point x="392" y="-157" type="curve" smooth="yes"/>
      <point x="392" y="-111"/>
      <point x="364" y="-92"/>
      <point x="286" y="-79" type="curve"/>
      <point x="275" y="-107" type="line"/>
      <point x="327" y="-111"/>
      <point x="360" y="-124"/>
      <point x="360" y="-159" type="curve" smooth="yes"/>
      <point x="360" y="-192"/>
      <point x="331" y="-212"/>
      <point x="235" y="-218" type="curve"/>
    </contour>
  </outline>
</glyph>
<glyph name="cid40921" format="2">
  <advance height="1000" width="334"/>
  <unicode hex="0157"/>
  <outline>
    <contour>
      <point x="105" y="-11" type="line"/>
      <point x="137" y="-11" type="line"/>
      <point x="137" y="351" type="line"/>
      <point x="179" y="453"/>
      <point x="235" y="490"/>
      <point x="283" y="490" type="curve" smooth="yes"/>
      <point x="303" y="490"/>
      <point x="314" y="488"/>
      <point x="327" y="484" type="curve"/>
      <point x="338" y="512" type="line"/>
      <point x="320" y="521"/>
      <point x="305" y="523"/>
      <point x="288" y="523" type="curve" smooth="yes"/>
      <point x="222" y="523"/>
      <point x="172" y="475"/>
      <point x="140" y="412" type="curve"/>
      <point x="137" y="412" type="line"/>
      <point x="133" y="510" type="line"/>
      <point x="105" y="510" type="line"/>
    </contour>
    <contour>
      <point x="39" y="-246" type="line"/>
      <point x="137" y="-240"/>
      <point x="190" y="-212"/>
      <point x="190" y="-157" type="curve" smooth="yes"/>
      <point x="190" y="-111"/>
      <point x="161" y="-92"/>
      <point x="83" y="-79" type="curve"/>
      <point x="72" y="-107" type="line"/>
      <point x="124" y="-111"/>
      <point x="157" y="-124"/>
      <point x="157" y="-159" type="curve" smooth="yes"/>
      <point x="157" y="-192"/>
      <point x="129" y="-212"/>
      <point x="33" y="-218" type="curve"/>
    </contour>
  </outline>
</glyph>
<glyph name="cid40377" format="2">
  <advance height="1000" width="582"/>
  <unicode hex="0158"/>
  <outline>
    <contour>
      <point x="109" y="-11" type="line"/>
      <point x="144" y="-11" type="line"/>
      <point x="144" y="329" type="line"/>
      <point x="307" y="329" type="line" smooth="yes"/>
      <point x="449" y="329"/>
      <point x="538" y="397"/>
      <point x="538" y="523" type="curve" smooth="yes"/>
      <point x="538" y="656"/>
      <point x="449" y="708"/>
      <point x="307" y="708" type="curve" smooth="yes"/>
      <point x="109" y="708" type="line"/>
    </contour>
    <contour>
      <point x="144" y="360" type="line"/>
      <point x="144" y="678" type="line"/>
      <point x="294" y="678" type="line" smooth="yes"/>
      <point x="427" y="678"/>
      <point x="501" y="636"/>
      <point x="501" y="523" type="curve" smooth="yes"/>
      <point x="501" y="412"/>
      <point x="427" y="360"/>
      <point x="294" y="360" type="curve" smooth="yes"/>
    </contour>
    <contour>
      <point x="508" y="-11" type="line"/>
      <point x="549" y="-11" type="line"/>
      <point x="338" y="342" type="line"/>
      <point x="299" y="340" type="line"/>
    </contour>
    <contour>
      <point x="296" y="765" type="line"/>
      <point x="318" y="765" type="line"/>
      <point x="471" y="894" type="line"/>
      <point x="434" y="894" type="line"/>
      <point x="310" y="798" type="line"/>
      <point x="305" y="798" type="line"/>
      <point x="181" y="894" type="line"/>
      <point x="144" y="894" type="line"/>
    </contour>
  </outline>
</glyph>
<glyph name="cid40937" format="2">
  <advance height="1000" width="436"/>
  <unicode hex="015F"/>
  <outline>
    <contour>
      <point x="227" y="-24" type="curve" smooth="yes"/>
      <point x="336" y="-24"/>
      <point x="397" y="44"/>
      <point x="397" y="120" type="curve" smooth="yes"/>
      <point x="397" y="222"/>
      <point x="305" y="247"/>
      <point x="222" y="279" type="curve" smooth="yes"/>
      <point x="159" y="303"/>
      <point x="100" y="327"/>
      <point x="100" y="390" type="curve" smooth="yes"/>
      <point x="100" y="441"/>
      <point x="140" y="493"/>
      <point x="227" y="493" type="curve" smooth="yes"/>
      <point x="281" y="493"/>
      <point x="318" y="474"/>
      <point x="353" y="449" type="curve"/>
      <point x="373" y="471" type="line"/>
      <point x="336" y="501"/>
      <point x="286" y="523"/>
      <point x="229" y="523" type="curve" smooth="yes"/>
      <point x="122" y="523"/>
      <point x="65" y="460"/>
      <point x="65" y="388" type="curve" smooth="yes"/>
      <point x="65" y="299"/>
      <point x="150" y="268"/>
      <point x="231" y="240" type="curve" smooth="yes"/>
      <point x="292" y="218"/>
      <point x="362" y="187"/>
      <point x="362" y="118" type="curve" smooth="yes"/>
      <point x="362" y="59"/>
      <point x="316" y="6"/>
      <point x="229" y="6" type="curve" smooth="yes"/>
      <point x="146" y="6"/>
      <point x="100" y="33"/>
      <point x="57" y="70" type="curve"/>
      <point x="37" y="48" type="line"/>
      <point x="81" y="4"/>
      <point x="144" y="-24"/>
    </contour>
    <contour>
      <point x="148" y="-246" type="line"/>
      <point x="246" y="-240"/>
      <point x="299" y="-212"/>
      <point x="299" y="-157" type="curve" smooth="yes"/>
      <point x="299" y="-113"/>
      <point x="268" y="-94"/>
      <point x="222" y="-83" type="curve"/>
      <point x="255" y="-9" type="line"/>
      <point x="225" y="-9" type="line"/>
      <point x="181" y="-103" type="line"/>
      <point x="240" y="-111"/>
      <point x="266" y="-127"/>
      <point x="266" y="-159" type="curve" smooth="yes"/>
      <point x="266" y="-192"/>
      <point x="238" y="-212"/>
      <point x="142" y="-218" type="curve"/>
    </contour>
  </outline>
</glyph>
<glyph name="cid40405" format="2">
  <advance height="1000" width="567"/>
  <unicode hex="0162"/>
  <outline>
    <contour>
      <point x="266" y="-11" type="line"/>
      <point x="301" y="-11" type="line"/>
      <point x="301" y="678" type="line"/>
      <point x="534" y="678" type="line"/>
      <point x="534" y="708" type="line"/>
      <point x="33" y="708" type="line"/>
      <point x="33" y="678" type="line"/>
      <point x="266" y="678" type="line"/>
    </contour>
    <contour>
      <point x="193" y="-246" type="line"/>
      <point x="291" y="-240"/>
      <point x="343" y="-212"/>
      <point x="343" y="-157" type="curve" smooth="yes"/>
      <point x="343" y="-113"/>
      <point x="313" y="-94"/>
      <point x="267" y="-83" type="curve"/>
      <point x="300" y="-9" type="line"/>
      <point x="269" y="-9" type="line"/>
      <point x="226" y="-103" type="line"/>
      <point x="284" y="-111"/>
      <point x="311" y="-127"/>
      <point x="311" y="-159" type="curve" smooth="yes"/>
      <point x="311" y="-192"/>
      <point x="282" y="-212"/>
      <point x="186" y="-218" type="curve"/>
    </contour>
  </outline>
</glyph>
<glyph name="cid40402" format="2">
  <advance height="1000" width="567"/>
  <unicode hex="0164"/>
  <outline>
    <contour>
      <point x="266" y="-11" type="line"/>
      <point x="301" y="-11" type="line"/>
      <point x="301" y="678" type="line"/>
      <point x="534" y="678" type="line"/>
      <point x="534" y="708" type="line"/>
      <point x="33" y="708" type="line"/>
      <point x="33" y="678" type="line"/>
      <point x="266" y="678" type="line"/>
    </contour>
    <contour>
      <point x="273" y="765" type="line"/>
      <point x="294" y="765" type="line"/>
      <point x="447" y="894" type="line"/>
      <point x="410" y="894" type="line"/>
      <point x="286" y="798" type="line"/>
      <point x="281" y="798" type="line"/>
      <point x="157" y="894" type="line"/>
      <point x="120" y="894" type="line"/>
    </contour>
  </outline>
</glyph>
<glyph name="cid40414" format="2">
  <advance height="1000" width="567"/>
  <unicode hex="0166"/>
  <outline>
    <contour>
      <point x="126" y="355" type="line"/>
      <point x="440" y="355" type="line"/>
      <point x="440" y="386" type="line"/>
      <point x="218" y="386" type="line"/>
      <point x="126" y="384" type="line"/>
    </contour>
    <contour>
      <point x="266" y="-11" type="line"/>
      <point x="301" y="-11" type="line"/>
      <point x="301" y="678" type="line"/>
      <point x="534" y="678" type="line"/>
      <point x="534" y="708" type="line"/>
      <point x="33" y="708" type="line"/>
      <point x="33" y="678" type="line"/>
      <point x="266" y="678" type="line"/>
    </contour>
  </outline>
</glyph>
<glyph name="cid40421" format="2">
  <advance height="1000" width="687"/>
  <unicode hex="0168"/>
  <outline>
    <contour>
      <point x="342" y="-24" type="curve" smooth="yes"/>
      <point x="458" y="-24"/>
      <point x="580" y="35"/>
      <point x="580" y="257" type="curve" smooth="yes"/>
      <point x="580" y="708" type="line"/>
      <point x="547" y="708" type="line"/>
      <point x="547" y="266" type="line" smooth="yes"/>
      <point x="547" y="67"/>
      <point x="449" y="9"/>
      <point x="342" y="9" type="curve" smooth="yes"/>
      <point x="238" y="9"/>
      <point x="142" y="67"/>
      <point x="142" y="266" type="curve" smooth="yes"/>
      <point x="142" y="708" type="line"/>
      <point x="107" y="708" type="line"/>
      <point x="107" y="257" type="line" smooth="yes"/>
      <point x="107" y="35"/>
      <point x="227" y="-24"/>
    </contour>
    <contour>
      <point x="427" y="776" type="curve" smooth="yes"/>
      <point x="484" y="776"/>
      <point x="514" y="829"/>
      <point x="517" y="892" type="curve"/>
      <point x="491" y="894" type="line"/>
      <point x="484" y="841"/>
      <point x="461" y="807"/>
      <point x="427" y="807" type="curve" smooth="yes"/>
      <point x="364" y="807"/>
      <point x="342" y="896"/>
      <point x="257" y="896" type="curve" smooth="yes"/>
      <point x="201" y="896"/>
      <point x="170" y="842"/>
      <point x="168" y="780" type="curve"/>
      <point x="194" y="778" type="line"/>
      <point x="198" y="830"/>
      <point x="223" y="865"/>
      <point x="257" y="865" type="curve" smooth="yes"/>
      <point x="320" y="865"/>
      <point x="342" y="776"/>
    </contour>
  </outline>
</glyph>
<glyph name="cid40969" format="2">
  <advance height="1000" width="571"/>
  <unicode hex="0169"/>
  <outline>
    <contour>
      <point x="253" y="-24" type="curve" smooth="yes"/>
      <point x="325" y="-24"/>
      <point x="379" y="17"/>
      <point x="432" y="78" type="curve"/>
      <point x="434" y="78" type="line"/>
      <point x="438" y="-11" type="line"/>
      <point x="467" y="-11" type="line"/>
      <point x="467" y="510" type="line"/>
      <point x="434" y="510" type="line"/>
      <point x="434" y="120" type="line"/>
      <point x="368" y="41"/>
      <point x="320" y="6"/>
      <point x="255" y="6" type="curve" smooth="yes"/>
      <point x="166" y="6"/>
      <point x="129" y="63"/>
      <point x="129" y="179" type="curve" smooth="yes"/>
      <point x="129" y="510" type="line"/>
      <point x="96" y="510" type="line"/>
      <point x="96" y="174" type="line" smooth="yes"/>
      <point x="96" y="39"/>
      <point x="146" y="-24"/>
    </contour>
    <contour>
      <point x="367" y="621" type="curve" smooth="yes"/>
      <point x="436" y="621"/>
      <point x="453" y="693"/>
      <point x="458" y="754" type="curve"/>
      <point x="429" y="756" type="line"/>
      <point x="427" y="700"/>
      <point x="410" y="650"/>
      <point x="370" y="650" type="curve" smooth="yes"/>
      <point x="305" y="650"/>
      <point x="283" y="759"/>
      <point x="201" y="759" type="curve" smooth="yes"/>
      <point x="131" y="759"/>
      <point x="113" y="688"/>
      <point x="109" y="626" type="curve"/>
      <point x="137" y="623" type="line"/>
      <point x="140" y="682"/>
      <point x="157" y="730"/>
      <point x="198" y="730" type="curve" smooth="yes"/>
      <point x="262" y="730"/>
      <point x="283" y="621"/>
    </contour>
  </outline>
</glyph>
<glyph name="cid40425" format="2">
  <advance height="1000" width="687"/>
  <unicode hex="016C"/>
  <outline>
    <contour>
      <point x="342" y="-24" type="curve" smooth="yes"/>
      <point x="458" y="-24"/>
      <point x="580" y="35"/>
      <point x="580" y="257" type="curve" smooth="yes"/>
      <point x="580" y="708" type="line"/>
      <point x="547" y="708" type="line"/>
      <point x="547" y="266" type="line" smooth="yes"/>
      <point x="547" y="67"/>
      <point x="449" y="9"/>
      <point x="342" y="9" type="curve" smooth="yes"/>
      <point x="238" y="9"/>
      <point x="142" y="67"/>
      <point x="142" y="266" type="curve" smooth="yes"/>
      <point x="142" y="708" type="line"/>
      <point x="107" y="708" type="line"/>
      <point x="107" y="257" type="line" smooth="yes"/>
      <point x="107" y="35"/>
      <point x="227" y="-24"/>
    </contour>
    <contour>
      <point x="342" y="765" type="curve" smooth="yes"/>
      <point x="437" y="765"/>
      <point x="479" y="838"/>
      <point x="486" y="898" type="curve"/>
      <point x="458" y="902" type="line"/>
      <point x="450" y="846"/>
      <point x="415" y="793"/>
      <point x="342" y="793" type="curve" smooth="yes"/>
      <point x="269" y="793"/>
      <point x="234" y="846"/>
      <point x="227" y="902" type="curve"/>
      <point x="198" y="898" type="line"/>
      <point x="206" y="838"/>
      <point x="247" y="765"/>
    </contour>
  </outline>
</glyph>
<glyph name="cid40975" format="2">
  <advance height="1000" width="571"/>
  <unicode hex="016D"/>
  <outline>
    <contour>
      <point x="253" y="-24" type="curve" smooth="yes"/>
      <point x="325" y="-24"/>
      <point x="379" y="17"/>
      <point x="432" y="78" type="curve"/>
      <point x="434" y="78" type="line"/>
      <point x="438" y="-11" type="line"/>
      <point x="467" y="-11" type="line"/>
      <point x="467" y="510" type="line"/>
      <point x="434" y="510" type="line"/>
      <point x="434" y="120" type="line"/>
      <point x="368" y="41"/>
      <point x="320" y="6"/>
      <point x="255" y="6" type="curve" smooth="yes"/>
      <point x="166" y="6"/>
      <point x="129" y="63"/>
      <point x="129" y="179" type="curve" smooth="yes"/>
      <point x="129" y="510" type="line"/>
      <point x="96" y="510" type="line"/>
      <point x="96" y="174" type="line" smooth="yes"/>
      <point x="96" y="39"/>
      <point x="146" y="-24"/>
    </contour>
    <contour>
      <point x="283" y="610" type="curve" smooth="yes"/>
      <point x="393" y="610"/>
      <point x="434" y="702"/>
      <point x="443" y="769" type="curve"/>
      <point x="414" y="774" type="line"/>
      <point x="405" y="711"/>
      <point x="365" y="639"/>
      <point x="283" y="639" type="curve" smooth="yes"/>
      <point x="202" y="639"/>
      <point x="161" y="711"/>
      <point x="153" y="774" type="curve"/>
      <point x="124" y="769" type="line"/>
      <point x="133" y="702"/>
      <point x="173" y="610"/>
    </contour>
  </outline>
</glyph>
<glyph name="cid40427" format="2">
  <advance height="1000" width="687"/>
  <unicode hex="016E"/>
  <outline>
    <contour>
      <point x="342" y="-24" type="curve" smooth="yes"/>
      <point x="458" y="-24"/>
      <point x="580" y="35"/>
      <point x="580" y="257" type="curve" smooth="yes"/>
      <point x="580" y="708" type="line"/>
      <point x="547" y="708" type="line"/>
      <point x="547" y="266" type="line" smooth="yes"/>
      <point x="547" y="67"/>
      <point x="449" y="9"/>
      <point x="342" y="9" type="curve" smooth="yes"/>
      <point x="238" y="9"/>
      <point x="142" y="67"/>
      <point x="142" y="266" type="curve" smooth="yes"/>
      <point x="142" y="708" type="line"/>
      <point x="107" y="708" type="line"/>
      <point x="107" y="257" type="line" smooth="yes"/>
      <point x="107" y="35"/>
      <point x="227" y="-24"/>
    </contour>
    <contour>
      <point x="342" y="752" type="curve" smooth="yes"/>
      <point x="401" y="752"/>
      <point x="445" y="787"/>
      <point x="445" y="844" type="curve" smooth="yes"/>
      <point x="445" y="900"/>
      <point x="401" y="935"/>
      <point x="342" y="935" type="curve" smooth="yes"/>
      <point x="283" y="935"/>
      <point x="240" y="900"/>
      <point x="240" y="844" type="curve" smooth="yes"/>
      <point x="240" y="787"/>
      <point x="283" y="752"/>
    </contour>
    <contour>
      <point x="342" y="776" type="curve" smooth="yes"/>
      <point x="301" y="776"/>
      <point x="268" y="798"/>
      <point x="268" y="844" type="curve" smooth="yes"/>
      <point x="268" y="889"/>
      <point x="301" y="911"/>
      <point x="342" y="911" type="curve" smooth="yes"/>
      <point x="384" y="911"/>
      <point x="416" y="889"/>
      <point x="416" y="844" type="curve" smooth="yes"/>
      <point x="416" y="798"/>
      <point x="384" y="776"/>
    </contour>
  </outline>
</glyph>
<glyph name="cid40976" format="2">
  <advance height="1000" width="571"/>
  <unicode hex="016F"/>
  <outline>
    <contour>
      <point x="253" y="-24" type="curve" smooth="yes"/>
      <point x="325" y="-24"/>
      <point x="379" y="17"/>
      <point x="432" y="78" type="curve"/>
      <point x="434" y="78" type="line"/>
      <point x="438" y="-11" type="line"/>
      <point x="467" y="-11" type="line"/>
      <point x="467" y="510" type="line"/>
      <point x="434" y="510" type="line"/>
      <point x="434" y="120" type="line"/>
      <point x="368" y="41"/>
      <point x="320" y="6"/>
      <point x="255" y="6" type="curve" smooth="yes"/>
      <point x="166" y="6"/>
      <point x="129" y="63"/>
      <point x="129" y="179" type="curve" smooth="yes"/>
      <point x="129" y="510" type="line"/>
      <point x="96" y="510" type="line"/>
      <point x="96" y="174" type="line" smooth="yes"/>
      <point x="96" y="39"/>
      <point x="146" y="-24"/>
    </contour>
    <contour>
      <point x="283" y="584" type="curve" smooth="yes"/>
      <point x="340" y="584"/>
      <point x="384" y="626"/>
      <point x="384" y="687" type="curve" smooth="yes"/>
      <point x="384" y="748"/>
      <point x="340" y="789"/>
      <point x="283" y="789" type="curve" smooth="yes"/>
      <point x="227" y="789"/>
      <point x="183" y="748"/>
      <point x="183" y="687" type="curve" smooth="yes"/>
      <point x="183" y="626"/>
      <point x="227" y="584"/>
    </contour>
    <contour>
      <point x="283" y="608" type="curve" smooth="yes"/>
      <point x="242" y="608"/>
      <point x="209" y="639"/>
      <point x="209" y="687" type="curve" smooth="yes"/>
      <point x="209" y="735"/>
      <point x="242" y="765"/>
      <point x="283" y="765" type="curve" smooth="yes"/>
      <point x="325" y="765"/>
      <point x="358" y="735"/>
      <point x="358" y="687" type="curve" smooth="yes"/>
      <point x="358" y="639"/>
      <point x="325" y="608"/>
    </contour>
  </outline>
</glyph>
<glyph name="cid40428" format="2">
  <advance height="1000" width="687"/>
  <unicode hex="0170"/>
  <outline>
    <contour>
      <point x="342" y="-24" type="curve" smooth="yes"/>
      <point x="458" y="-24"/>
      <point x="580" y="35"/>
      <point x="580" y="257" type="curve" smooth="yes"/>
      <point x="580" y="708" type="line"/>
      <point x="547" y="708" type="line"/>
      <point x="547" y="266" type="line" smooth="yes"/>
      <point x="547" y="67"/>
      <point x="449" y="9"/>
      <point x="342" y="9" type="curve" smooth="yes"/>
      <point x="238" y="9"/>
      <point x="142" y="67"/>
      <point x="142" y="266" type="curve" smooth="yes"/>
      <point x="142" y="708" type="line"/>
      <point x="107" y="708" type="line"/>
      <point x="107" y="257" type="line" smooth="yes"/>
      <point x="107" y="35"/>
      <point x="227" y="-24"/>
    </contour>
    <contour>
      <point x="211" y="763" type="line"/>
      <point x="249" y="763" type="line"/>
      <point x="397" y="889" type="line"/>
      <point x="395" y="894" type="line"/>
      <point x="344" y="894" type="line"/>
    </contour>
    <contour>
      <point x="408" y="763" type="line"/>
      <point x="445" y="763" type="line"/>
      <point x="593" y="889" type="line"/>
      <point x="591" y="894" type="line"/>
      <point x="541" y="894" type="line"/>
    </contour>
  </outline>
</glyph>
